<?xml version="1.0" standalone="no"?>
<!DOCTYPE svg PUBLIC "-//W3C//DTD SVG 1.1//EN" "http://www.w3.org/Graphics/SVG/1.1/DTD/svg11.dtd" >
<svg xmlns="http://www.w3.org/2000/svg" xmlns:xlink="http://www.w3.org/1999/xlink" version="1.1">
<metadata>
Created by FontForge 20230101 at Thu Apr 22 06:08:02 2021
 By Unknown
Copyright (c) 2019 by Mathieu Desjardins. All rights reserved.
</metadata>
<defs>
<font id="PPEditorialNew-Ultrabold" horiz-adv-x="940" >
  <font-face 
    font-family="PP Editorial New Ultrabold"
    font-weight="800"
    font-stretch="normal"
    units-per-em="1000"
    panose-1="0 0 9 0 0 0 0 0 0 0"
    ascent="800"
    descent="-200"
    x-height="538"
    cap-height="800"
    bbox="-456 -336 1606 1084"
    underline-thickness="55"
    underline-position="-98"
    unicode-range="U+0020-FB02"
  />
<missing-glyph horiz-adv-x="520" 
d="M97 820h329v-1040h-329v1040zM346 716v34h-171v-34h67v-38h-68v-35h172v35h-68v38h68zM278 543v73h-104v-108h172v35h-68zM208 581h34v-38h-34v38zM346 446v34h-172v-34h68v-39h-68v-34h104v73h68zM346 314v104h-34v-69h-138v-35h172zM346 173v118h-104v-59h36v24h34v-49
h-104v84h-34v-118h172zM346 -7v118h-172v-118h172zM208 76h104v-48h-104v48zM346 -65v34h-172v-34h72l-72 -49v-34h172v34h-106l73 49h33z" />
    <glyph glyph-name="f_f" unicode="ff" horiz-adv-x="761" 
d="M708 829q67 0 104 -27.5t37 -65.5q0 -31 -21 -53.5t-59 -22.5q-40 0 -68 46q-7 11 -14.5 24t-11 18t-8.5 9t-12 4q-22 0 -31.5 -34t-9.5 -116v-73h120v-56h-120v-364q0 -52 21.5 -70.5t85.5 -18.5v-29h-706v29q49 0 65 18.5t16 70.5v364h-65v49l65 3v28q0 55 14 98
t35.5 69t52 42.5t60.5 22.5t63 6q127 0 167 -64q40 49 100.5 71t119.5 22zM316 744q-24 0 -32.5 -29.5t-8.5 -99.5v-77h160v32q0 30 4 51h-11q-29 0 -43 14.5t-24 46.5q-1 4 -5 15.5t-5.5 15.5t-5.5 11.5t-7.5 10.5t-9 6t-12.5 3zM435 118v364h-160v-364q0 -52 16 -70
t65 -19q48 1 63.5 19t15.5 70z" />
    <glyph glyph-name="f_f_i" unicode="ffi" horiz-adv-x="1054" 
d="M965 539v-421q0 -52 16 -70.5t65 -18.5v-29h-1031v29q49 0 65 18.5t16 70.5v364h-65v49l65 3v28q0 55 14 98t35.5 69t52 42.5t60.5 22.5t63 6q133 0 170 -70q42 54 106.5 77.5t127.5 23.5q88 0 141 -33t53 -92q0 -35 -22 -56t-59 -21q-6 0 -12 1t-10.5 1.5t-9.5 4t-8 5
t-8 6.5l-7.5 7.5t-8 10t-8 11t-9.5 13.5t-10 14q-10 15 -17 23t-20 15.5t-27 7.5q-69 0 -69 -138v-73h136q110 0 197 20zM316 744q-24 0 -32.5 -29.5t-8.5 -99.5v-77h160v13q0 40 7 71q-5 -1 -14 -1q-29 0 -43 14.5t-24 46.5q-1 4 -5 15.5t-5.5 15.5t-5.5 11.5t-7.5 10.5
t-9 6t-12.5 3zM356 29q48 1 63.5 19t15.5 70v364h-160v-364q0 -52 16 -70t65 -19zM786 118v273q0 21 -1 32.5t-6.5 27.5t-19.5 23.5t-37 7.5h-108v-364q0 -52 18.5 -70t76.5 -19q46 1 61.5 19t15.5 70z" />
    <glyph glyph-name="f_i" unicode="fi" horiz-adv-x="715" 
d="M627 539v-421q0 -52 16 -70.5t65 -18.5v-29h-693v29q49 0 65 18.5t16 70.5v364h-70v49l70 4v16q0 65 20 116t51 81t71 49.5t76.5 26.5t71.5 7q88 0 141.5 -33t53.5 -92q0 -35 -22 -56t-59 -21q-6 0 -12 1t-10.5 1.5t-9.5 4t-8 5t-8 6.5l-7.5 7.5t-8 10t-8 11t-9.5 13.5
t-10 14q-12 16 -18 23t-19 15t-28 8q-31 0 -49.5 -29.5t-18.5 -108.5v-73h136q110 0 197 20zM448 118v273q0 21 -1 32.5t-6.5 27.5t-19.5 23.5t-37 7.5h-108v-364q0 -52 18.5 -70t76.5 -19q47 1 62 19t15 70z" />
    <glyph glyph-name="f_l" unicode="fl" horiz-adv-x="735" 
d="M647 783v-665q0 -53 15.5 -71t64.5 -18v-29h-333v29q44 0 58.5 18t14.5 71v514q-4 -1 -14 -1q-29 0 -47 17t-37 55q-23 46 -46 46q-25 0 -36 -28t-11 -110v-73h93v-56h-93v-364q0 -53 17.5 -71t72.5 -18v-29h-351v29q49 0 65 18.5t16 70.5v364h-70v49l70 4v55
q0 52 17 93.5t42.5 66.5t58.5 42t62.5 23.5t57.5 6.5q68 0 121 -22.5t70 -62.5l100 64z" />
    <glyph glyph-name=".notdef" horiz-adv-x="520" 
d="M97 820h329v-1040h-329v1040zM346 716v34h-171v-34h67v-38h-68v-35h172v35h-68v38h68zM278 543v73h-104v-108h172v35h-68zM208 581h34v-38h-34v38zM346 446v34h-172v-34h68v-39h-68v-34h104v73h68zM346 314v104h-34v-69h-138v-35h172zM346 173v118h-104v-59h36v24h34v-49
h-104v84h-34v-118h172zM346 -7v118h-172v-118h172zM208 76h104v-48h-104v48zM346 -65v34h-172v-34h72l-72 -49v-34h172v34h-106l73 49h33z" />
    <glyph glyph-name=".null" horiz-adv-x="0" 
 />
    <glyph glyph-name="nonmarkingreturn" horiz-adv-x="333" 
 />
    <glyph glyph-name="space" unicode=" " horiz-adv-x="218" 
 />
    <glyph glyph-name="exclam" unicode="!" horiz-adv-x="276" 
d="M52 723q0 47 23.5 72t62.5 25t63 -25t24 -72q0 -43 -16 -112.5t-33 -169.5t-18 -215h-38q-1 115 -18 215t-33.5 169.5t-16.5 112.5zM138 -16q-35 0 -59.5 24.5t-24.5 59.5q0 34 25 59t59 25q35 0 59.5 -24.5t24.5 -59.5t-24.5 -59.5t-59.5 -24.5z" />
    <glyph glyph-name="quotedbl" unicode="&#x22;" horiz-adv-x="396" 
d="M50 755q0 31 16 48t45 17q28 0 44 -17t16 -48t-18.5 -107.5t-26.5 -122.5h-29q-8 51 -27.5 125.5t-19.5 104.5zM225 755q0 31 16 48t45 17q28 0 44 -17t16 -48t-18.5 -107.5t-26.5 -122.5h-29q-8 51 -27.5 125.5t-19.5 104.5z" />
    <glyph glyph-name="numbersign" unicode="#" horiz-adv-x="860" 
d="M810 621v-117h-135l-59 -205h124v-117h-158l-58 -202h-118l58 202h-193l-58 -202h-119l58 202h-102v117h136l59 205h-125v117h159l57 199h119l-57 -199h193l57 199h118l-57 -199h101zM305 299h193l59 205h-193z" />
    <glyph glyph-name="dollar" unicode="$" horiz-adv-x="586" 
d="M544 211q0 -89 -59.5 -155.5t-174.5 -74.5v-96h-38v95q-115 2 -209 54v234h29q0 -96 52 -165.5t126 -69.5h2v260l-38 25q-113 72 -152.5 130t-39.5 136q0 83 62.5 138.5t167.5 57.5v78h38v-79q101 -8 174 -65v-171h-29q0 73 -40.5 127t-104.5 60v-234q1 -1 8 -6t11 -7
q41 -28 55.5 -38.5t47.5 -36t47 -42.5t32.5 -43t25.5 -53.5t7 -58.5zM185 643q0 -30 16.5 -54.5t70.5 -65.5v207q-42 -5 -64.5 -28.5t-22.5 -58.5zM310 265v-229q85 16 85 101q0 61 -85 128z" />
    <glyph glyph-name="percent" unicode="%" horiz-adv-x="867" 
d="M216 400q-67 0 -116.5 60.5t-49.5 148.5q0 89 49.5 150t116.5 61t116 -61t49 -150q0 -88 -49.5 -148.5t-115.5 -60.5zM152 0l497 800h58l-497 -800h-58zM216 429q28 0 37.5 46.5t9.5 133.5q0 88 -9.5 135t-37.5 47q-48 0 -48 -182q0 -180 48 -180zM652 -16q-67 0 -117 61
t-50 149q0 89 50 150t117 61q66 0 115.5 -61t49.5 -150q0 -88 -49.5 -149t-115.5 -61zM652 13q27 0 36.5 47t9.5 134q0 88 -9.5 134.5t-36.5 46.5q-28 0 -38 -46.5t-10 -134.5q0 -87 10 -134t38 -47z" />
    <glyph glyph-name="ampersand" unicode="&#x26;" horiz-adv-x="886" 
d="M825 243h29q-5 -51 -17 -93t-33.5 -81t-59 -61.5t-87.5 -22.5q-72 0 -140 56q-81 -57 -204 -57q-117 0 -198 58t-81 162q0 81 48.5 135t146.5 93q-50 94 -50 174q0 56 22 100.5t57.5 70.5t76.5 39.5t84 13.5q93 0 144.5 -46t53.5 -109q1 -126 -171 -229q25 -38 72 -103
q44 -63 76 -103q23 51 42 115q14 51 2 69t-66 18v28h254v-28q-55 0 -81 -18t-39 -68q-29 -94 -67 -167q57 -59 102 -59q60 0 84 113zM443 771q-39 0 -62 -30.5t-23 -81.5q0 -64 48 -148q104 80 104 170q0 42 -17.5 66t-49.5 24zM246 238q0 -85 40.5 -128t105.5 -43
q42 0 78 21q-57 61 -141 184q-31 45 -51 76q-32 -42 -32 -110z" />
    <glyph glyph-name="quotesingle" unicode="'" horiz-adv-x="221" 
d="M50 755q0 31 16 48t45 17q28 0 44 -17t16 -48t-18.5 -107.5t-26.5 -122.5h-29q-8 51 -27.5 125.5t-19.5 104.5z" />
    <glyph glyph-name="parenleft" unicode="(" horiz-adv-x="471" 
d="M441 -221v-29q-75 34 -139 80t-123.5 113.5t-94 162t-34.5 204.5q0 112 33 208.5t89 164t119 113.5t133 74v-29q-159 -135 -159 -531q0 -163 43 -307.5t133 -223.5z" />
    <glyph glyph-name="parenright" unicode=")" horiz-adv-x="471" 
d="M30 -250v29q90 79 133 223.5t43 307.5q0 396 -159 531v29q70 -28 133 -74t119 -113.5t89 -164t33 -208.5q0 -110 -34.5 -204.5t-94 -162t-123.5 -113.5t-139 -80z" />
    <glyph glyph-name="asterisk" unicode="*" horiz-adv-x="501" 
d="M251 379q-23 0 -42 17t-19 44t23 69t27 75q-28 -20 -52.5 -61t-47.5 -54q-15 -8 -31 -8q-35 0 -53 30q-8 14 -8 31q0 35 31 53q22 12 71 13t79 15q-31 14 -79 15.5t-71 14.5q-31 17 -31 53q0 17 8 30q18 31 53 31q15 0 31 -9q22 -13 46.5 -55t54.5 -62q-4 36 -27.5 77.5
t-23.5 68.5q0 28 19 45t42 17t41.5 -17t18.5 -45q0 -27 -22.5 -69.5t-26.5 -76.5q28 20 52.5 62t47.5 55q15 9 30 9q35 0 53 -31q9 -14 9 -30q0 -36 -32 -53q-24 -14 -73.5 -15.5t-76.5 -14.5q28 -12 78 -13.5t72 -14.5q32 -19 32 -53q0 -15 -9 -31q-18 -30 -53 -30
q-17 0 -30 8q-23 13 -48 54t-52 61q4 -33 26.5 -75t22.5 -69t-18.5 -44t-41.5 -17z" />
    <glyph glyph-name="plus" unicode="+" horiz-adv-x="550" 
d="M217 241h-167v118h167v166h118v-166h165v-118h-165v-166h-118v166z" />
    <glyph glyph-name="comma" unicode="," horiz-adv-x="283" 
d="M121 -10q-30 0 -50.5 22t-20.5 55q0 36 24.5 60.5t61.5 24.5q46 0 75.5 -31.5t29.5 -87.5q0 -74 -50 -136.5t-144 -86.5v35q58 17 99 57t41 79q0 19 -18 19q-7 0 -21.5 -5t-26.5 -5z" />
    <glyph glyph-name="hyphen" unicode="-" horiz-adv-x="505" 
d="M455 211h-405v118h405v-118z" />
    <glyph glyph-name="period" unicode="." horiz-adv-x="268" 
d="M134 -16q-35 0 -59.5 24.5t-24.5 59.5t24.5 59.5t59.5 24.5q34 0 59 -25t25 -59q0 -35 -24.5 -59.5t-59.5 -24.5z" />
    <glyph glyph-name="slash" unicode="/" horiz-adv-x="381" 
d="M0 0l262 820h119l-262 -820h-119z" />
    <glyph glyph-name="zero" unicode="0" horiz-adv-x="695" 
d="M347 -15q-141 0 -223.5 119t-82.5 298q0 178 82.5 296t223.5 118t224 -118t83 -296q0 -179 -83 -298t-224 -119zM347 40q50 0 71.5 91t21.5 271q0 179 -21 268.5t-72 89.5q-50 0 -71 -89.5t-21 -268.5q0 -180 21 -271t71 -91z" />
    <glyph glyph-name="one" unicode="1" horiz-adv-x="436" 
d="M323 801v-683q0 -53 16.5 -71t67.5 -18v-29h-365v29q56 0 74.5 18t18.5 71l-1 490q0 32 -2 46.5t-12.5 22t-29.5 2t-54 -22.5l-14 28l282 136z" />
    <glyph glyph-name="two" unicode="2" horiz-adv-x="593" 
d="M194 154h226q51 0 77.5 23.5t49.5 86.5l27 -10l-92 -254h-471v29q76 76 119.5 122t92.5 103t73 97.5t40.5 86.5t16.5 89q0 68 -31 103.5t-85 35.5q-127 0 -147 -177h-29q0 147 81.5 237t204.5 90q96 0 150 -50.5t54 -130.5q0 -58 -28 -118.5t-85 -125.5t-110 -114.5
t-134 -119.5v-3z" />
    <glyph glyph-name="three" unicode="3" horiz-adv-x="575" 
d="M11 89q0 29 20 47t51 18q20 0 36.5 -10t23.5 -19t20 -29q12 -19 17.5 -26t17.5 -14t29 -7q41 0 70 41t29 128q0 95 -50 142.5t-127 47.5v28q171 31 171 157q0 49 -27 78.5t-82 29.5q-50 0 -84 -26.5t-46 -73.5h-28q13 99 76.5 157t168.5 58q93 0 153 -47.5t60 -132.5
q0 -77 -59 -130t-151 -72v-3q96 -2 165.5 -52t69.5 -146q0 -117 -91.5 -183t-226.5 -66q-85 0 -145.5 26.5t-60.5 78.5z" />
    <glyph glyph-name="four" unicode="4" horiz-adv-x="663" 
d="M318 198h-280v154l332 462h136v-462h109v-154h-109v-80q0 -53 16.5 -71t67.5 -18v-29h-363v29q55 0 73 18.5t18 70.5v80zM106 355v-3h212v303z" />
    <glyph glyph-name="five" unicode="5" horiz-adv-x="581" 
d="M217 -16q-82 0 -141.5 27t-59.5 78q0 29 20 47t51 18q20 0 36.5 -10t23 -18.5t20.5 -28.5q14 -25 27.5 -36.5t32.5 -11.5q42 0 70.5 57t28.5 153q0 192 -114 192q-63 0 -109 -64l-41 28l97 385h376l-36 -154h-291l-34 -149l4 -3q65 42 126 42q43 0 82.5 -14t75 -42.5
t57 -79t21.5 -117.5q0 -78 -28 -138t-75.5 -94t-103 -50.5t-116.5 -16.5z" />
    <glyph glyph-name="six" unicode="6" horiz-adv-x="674" 
d="M423 558q103 0 161.5 -71.5t58.5 -186.5q0 -132 -76.5 -224t-212.5 -92q-148 0 -230.5 92.5t-82.5 259.5q0 198 137 323t389 161v-29q-221 -50 -285 -280q63 47 141 47zM351 40q43 0 60 47t17 176q0 112 -19.5 170.5t-72.5 58.5q-40 0 -67 -35q-13 -67 -13 -155
q0 -262 95 -262z" />
    <glyph glyph-name="seven" unicode="7" horiz-adv-x="595" 
d="M584 800l-288 -820l-132 34l231 629v3h-232q-47 0 -73.5 -26t-40.5 -89l-28 6l26 119l31 144h506z" />
    <glyph glyph-name="eight" unicode="8" horiz-adv-x="630" 
d="M413 441q97 -77 122 -103q54 -58 54 -136q0 -94 -79.5 -156.5t-203.5 -62.5q-113 0 -189 53t-76 142q0 35 11.5 64.5t37.5 56t48 44t61 44.5q-68 58 -101 106t-33 116q0 90 75.5 148.5t189.5 58.5q105 0 171.5 -50t66.5 -129q0 -33 -11.5 -61t-37.5 -53t-46.5 -40.5
t-59.5 -41.5zM327 756q-36 0 -60 -24t-24 -69q0 -74 96 -162q71 77 71 155q0 46 -22.5 73t-60.5 27zM311 44q44 0 69.5 25.5t25.5 69.5q0 45 -30.5 83.5t-106.5 104.5q-66 -74 -66 -156q0 -55 27 -91t81 -36z" />
    <glyph glyph-name="nine" unicode="9" horiz-adv-x="692" 
d="M338 816q148 0 230.5 -92.5t82.5 -259.5q0 -198 -137 -323t-389 -161v29q221 50 285 280q-64 -46 -141 -46q-103 0 -161.5 71.5t-58.5 185.5q0 132 76.5 224t212.5 92zM423 343q13 67 13 155q0 262 -95 262q-43 0 -60 -47t-17 -176q0 -112 19.5 -170.5t72.5 -58.5
q40 0 67 35z" />
    <glyph glyph-name="colon" unicode=":" horiz-adv-x="268" 
d="M134 390q-35 0 -59.5 24.5t-24.5 59.5t24.5 59.5t59.5 24.5q34 0 59 -25t25 -59q0 -35 -24.5 -59.5t-59.5 -24.5zM134 -16q-35 0 -59.5 24.5t-24.5 59.5t24.5 59.5t59.5 24.5q34 0 59 -25t25 -59q0 -35 -24.5 -59.5t-59.5 -24.5z" />
    <glyph glyph-name="semicolon" unicode=";" horiz-adv-x="283" 
d="M134 393q-35 0 -59.5 24.5t-24.5 59.5q0 34 24.5 58.5t59.5 24.5t59.5 -24t24.5 -59t-24.5 -59.5t-59.5 -24.5zM117 -10q-30 0 -50 21.5t-20 55.5q0 36 24 60.5t61 24.5q47 0 76 -31.5t29 -87.5q0 -75 -50 -137t-143 -86v35q58 17 98.5 57t40.5 79q0 19 -17 19
q-7 0 -22 -5t-27 -5z" />
    <glyph glyph-name="less" unicode="&#x3c;" horiz-adv-x="558" 
d="M508 225v-125l-458 130v181l458 131v-125l-361 -95v-3z" />
    <glyph glyph-name="equal" unicode="=" horiz-adv-x="528" 
d="M478 347h-428v119h428v-119zM478 134h-428v119h428v-119z" />
    <glyph glyph-name="greater" unicode="&#x3e;" horiz-adv-x="558" 
d="M508 230l-458 -130v125l360 94v3l-360 95v125l458 -131v-181z" />
    <glyph glyph-name="question" unicode="?" horiz-adv-x="465" 
d="M213 225h-45q-54 70 -74.5 108.5t-20.5 73.5t25 66t96 89q67 54 91.5 81.5t24.5 50.5q0 49 -62 49q-50 0 -91 -41t-52 -115h-41l-15 182q25 22 75.5 38.5t102.5 16.5q88 0 152.5 -52.5t64.5 -144.5q0 -49 -31.5 -93.5t-105.5 -100.5q-63 -47 -90 -78t-27 -65
q0 -33 23 -65zM198 -16q-35 0 -59.5 24.5t-24.5 59.5q0 34 25 59t59 25q35 0 59.5 -24.5t24.5 -59.5t-24.5 -59.5t-59.5 -24.5z" />
    <glyph glyph-name="at" unicode="@" horiz-adv-x="1117" 
d="M1048 95h39q-68 -156 -209 -253.5t-336 -97.5q-224 0 -358 127.5t-134 340.5q0 158 73 288.5t201 205.5t284 75q133 0 230 -56.5t142.5 -144t45.5 -192.5q0 -102 -43 -194.5t-119 -150t-165 -57.5q-61 0 -94 28.5t-33 84.5q0 43 21 114l4 13h-10q-89 -235 -204 -235
q-53 0 -85 44.5t-32 120.5q0 88 42.5 179t112 150.5t139.5 59.5q53 0 79.5 -34.5t25.5 -83.5h1l25 73q86 0 136 54l24 -14l-125 -370q-17 -53 -17 -77q0 -48 50 -48q79 0 152 108t73 234q0 67 -23.5 129t-68 113t-119 82t-167.5 31q-146 0 -262 -73.5t-177.5 -195
t-61.5 -266.5q0 -198 119.5 -311t322.5 -113q180 0 308 87t193 225zM453 110q35 0 86.5 69.5t74.5 147.5q14 47 14 77q0 66 -43 66q-33 0 -72 -51.5t-64.5 -122.5t-25.5 -127q0 -59 30 -59z" />
    <glyph glyph-name="A" unicode="A" horiz-adv-x="786" 
d="M439 807l250 -696q18 -48 44.5 -65t77.5 -17v-29h-423v29q68 0 84 18.5t2 65.5l-35 110h-246l-37 -111q-18 -44 -2.5 -63.5t81.5 -19.5v-29h-259v29q51 0 77 17.5t43 65.5l242 695h101zM318 593l-107 -318h212l-101 318h-4z" />
    <glyph glyph-name="B" unicode="B" horiz-adv-x="763" 
d="M427 0h-410v29q64 0 87.5 20.5t23.5 68.5v564q0 48 -23.5 68.5t-87.5 20.5v29h419q131 0 199.5 -50t68.5 -148q0 -82 -50 -130t-132 -57v-8q103 -5 159.5 -56.5t56.5 -133.5q0 -110 -82.5 -163.5t-228.5 -53.5zM337 716v-275q23 -5 48 -5q117 0 117 155q0 76 -29.5 114.5
t-82.5 38.5q-23 0 -36 -4q-17 -5 -17 -24zM337 377v-293q0 -28 59 -28q136 0 136 161q0 165 -145 165q-27 0 -50 -5z" />
    <glyph glyph-name="C" unicode="C" horiz-adv-x="719" 
d="M28 385q0 189 104 310t265 121q106 0 182 -64q10 -9 17 -6t9 15l7 47h29l15 -294h-29q-22 114 -70 177t-117 63q-85 0 -133 -93t-48 -249q0 -155 48.5 -242.5t137.5 -87.5q78 0 129 68t68 178h34q-28 -344 -301 -344q-164 0 -255.5 112.5t-91.5 288.5z" />
    <glyph glyph-name="D" unicode="D" horiz-adv-x="848" 
d="M415 0h-398v29q64 0 87.5 20.5t23.5 68.5v564q0 48 -23.5 68.5t-87.5 20.5v29h396q62 0 117.5 -11t111 -39t95 -72t64 -115t24.5 -162q0 -92 -25 -163.5t-64.5 -115.5t-95 -72t-110 -39t-115.5 -11zM397 56q96 0 150.5 89t54.5 244q0 168 -61.5 261.5t-148.5 93.5
q-24 0 -36 -6q-13 -7 -13 -24v-616q0 -42 54 -42z" />
    <glyph glyph-name="E" unicode="E" horiz-adv-x="691" 
d="M612 800l5 -51l20 -176l-31 -3q-11 92 -38.5 128.5t-79.5 36.5h-88q-57 0 -57 -57v-246h69q44 0 63 26.5t19 96.5h26v-293h-26q0 70 -19 96.5t-63 26.5h-69v-263q0 -35 9 -46t38 -11h96q56 0 91.5 44t61.5 153l33 -8l-48 -206l-11 -48h-596v29q64 0 87.5 20.5t23.5 68.5
v564q0 48 -23.5 68.5t-87.5 20.5v29h595z" />
    <glyph glyph-name="F" unicode="F" horiz-adv-x="701" 
d="M674 800l4 -50l13 -177l-32 -3q-7 93 -33 129t-79 36h-147q-57 0 -57 -57v-259h96q48 0 68.5 26.5t20.5 96.5h29v-302h-29q0 70 -20.5 96.5t-68.5 26.5h-96v-245q0 -48 28 -68.5t103 -20.5v-29h-457v29q64 0 87.5 20.5t23.5 68.5v564q0 48 -23.5 68.5t-87.5 20.5v29h657z
" />
    <glyph glyph-name="G" unicode="G" horiz-adv-x="796" 
d="M407 -16q-185 0 -282 112t-97 292q0 193 105 310.5t273 117.5q118 0 204 -70q9 -9 16.5 -6t9.5 15l9 53h28l12 -294h-29q-24 116 -77 178t-124 62q-88 0 -142 -91.5t-54 -246.5q0 -162 46 -261.5t131 -99.5q65 0 96 45v204q0 48 -30.5 68.5t-111.5 20.5v29h401v-29
q-36 0 -47.5 -18t-11.5 -71v-181q-49 -59 -132 -99t-193 -40z" />
    <glyph glyph-name="H" unicode="H" horiz-adv-x="928" 
d="M912 800v-29q-64 0 -88 -20.5t-24 -68.5v-564q0 -48 24 -68.5t88 -20.5v-29h-424v29q56 0 77 20.5t21 68.5v269h-243v-269q0 -48 20.5 -68.5t76.5 -20.5v-29h-423v29q64 0 87.5 20.5t23.5 68.5v564q0 48 -23.5 68.5t-87.5 20.5v29h423v-29q-56 0 -76.5 -20.5t-20.5 -68.5
v-236h243v236q0 48 -21 68.5t-77 20.5v29h424z" />
    <glyph glyph-name="I" unicode="I" horiz-adv-x="471" 
d="M128 118v564q0 48 -23.5 68.5t-87.5 20.5v29h438v-29q-64 0 -88 -20.5t-24 -68.5v-564q0 -48 24 -68.5t88 -20.5v-29h-438v29q64 0 87.5 20.5t23.5 68.5z" />
    <glyph glyph-name="J" unicode="J" horiz-adv-x="603" 
d="M274 190v492q0 48 -24 68.5t-88 20.5v29h438v-29q-64 0 -88 -20.5t-24 -68.5v-420q0 -152 -67 -215t-186 -63q-104 0 -163 38t-59 105q0 40 26 65.5t65 25.5q43 0 68.5 -21.5t25.5 -56.5q0 -12 -1.5 -29t-1.5 -26q0 -45 35 -45q25 0 34.5 31t9.5 119z" />
    <glyph glyph-name="K" unicode="K" horiz-adv-x="914" 
d="M128 118v564q0 48 -23.5 68.5t-87.5 20.5v29h438v-29q-64 0 -88 -20.5t-24 -68.5v-564q0 -48 24 -68.5t88 -20.5v-29h-438v29q64 0 87.5 20.5t23.5 68.5zM544 540l244 -428q45 -81 109 -81v-31h-394v29q60 0 67 15t-21 62l-181 324l197 237q31 38 31 63q0 41 -78 41v29
h346v-29q-56 0 -92 -11.5t-69 -46.5z" />
    <glyph glyph-name="L" unicode="L" horiz-adv-x="687" 
d="M455 800v-29q-64 0 -88 -20.5t-24 -68.5v-538q0 -50 16 -64.5t66 -14.5h63q56 0 91.5 45t61.5 158l34 -8l-49 -212l-10 -48h-599v29q64 0 87.5 20.5t23.5 68.5v564q0 48 -23.5 68.5t-87.5 20.5v29h438z" />
    <glyph glyph-name="M" unicode="M" horiz-adv-x="1051" 
d="M389 800l140 -475h2l134 475h370v-29q-64 0 -88 -20.5t-24 -68.5v-564q0 -48 24 -68.5t88 -20.5v-29h-438v29q64 0 87.5 20.5t23.5 68.5v624h-3l-217 -762h-77l-225 752h-3v-614q0 -48 24 -68.5t88 -20.5v-29h-278v29q64 0 87.5 20.5t23.5 68.5v564q0 48 -23.5 68.5
t-87.5 20.5v29h372z" />
    <glyph glyph-name="N" unicode="N" horiz-adv-x="807" 
d="M798 800v-29q-64 0 -88 -20.5t-24 -68.5v-684h-102l-399 615v-495q0 -48 25.5 -68.5t95.5 -20.5v-29h-289v29q64 0 87.5 20.5t23.5 68.5v583q-46 70 -105 70v29h294l313 -485v367q0 48 -24 68.5t-88 20.5v29h280z" />
    <glyph glyph-name="O" unicode="O" horiz-adv-x="767" 
d="M387 -16q-164 0 -261.5 116.5t-97.5 298.5q0 180 99.5 297t252.5 117q164 0 262 -117t98 -299q0 -180 -100 -296.5t-253 -116.5zM412 43q56 0 82.5 63.5t26.5 150.5q0 86 -10 170.5t-29 159t-52 121t-75 46.5q-56 0 -82.5 -63.5t-26.5 -150.5q0 -86 10 -170.5t29 -159
t52 -121t75 -46.5z" />
    <glyph glyph-name="P" unicode="P" horiz-adv-x="745" 
d="M17 0v29q64 0 87.5 20.5t23.5 68.5v564q0 48 -23.5 68.5t-87.5 20.5v29h375q172 0 250.5 -56.5t78.5 -179.5q0 -68 -22.5 -119t-62 -80.5t-87 -44t-104.5 -16.5q-63 -1 -103 19v-205q0 -48 25.5 -68.5t95.5 -20.5v-29h-446zM401 370q59 0 85.5 54.5t26.5 143.5
q0 176 -105 176q-30 0 -52 -11q-14 -7 -14 -25v-323q22 -15 59 -15z" />
    <glyph glyph-name="Q" unicode="Q" horiz-adv-x="767" 
d="M753 -32l31 -15q-9 -91 -53 -140t-117 -49q-59 0 -124 25.5t-123.5 51t-101.5 25.5q-74 0 -142 -30l-29 93q121 17 244 58q-143 18 -226.5 131.5t-83.5 280.5q0 180 99.5 297t252.5 117q164 0 262 -117t98 -299q0 -196 -116 -314q-16 -17 -38 -33t-36 -24
q-128 -76 -327 -114l3 -10q113 19 206 19q26 0 91.5 -6t94.5 -6q116 0 135 59zM355 754q-56 0 -82.5 -63.5t-26.5 -150.5q0 -86 10 -170.5t29 -159t52 -121t75 -46.5q56 0 82.5 63.5t26.5 150.5q0 86 -10 170.5t-29 159t-52 121t-75 46.5z" />
    <glyph glyph-name="R" unicode="R" horiz-adv-x="824" 
d="M686 203l43 -93q21 -47 42.5 -64t69.5 -17v-29h-96q-61 0 -93.5 2.5t-61.5 9t-45.5 24.5t-30.5 40.5t-33 66.5l-103 232h-11h-25v-257q0 -48 24 -68.5t88 -20.5v-29h-437v29q64 0 87.5 20.5t23.5 68.5v564q0 48 -23.5 68.5t-87.5 20.5v29h396q162 0 236 -54t74 -157
q0 -55 -19.5 -95t-56 -63t-77.5 -35t-94 -17v-1q77 -11 122 -44t88 -131zM342 709v-286h26q62 0 101 40t39 130q0 151 -105 151q-22 0 -46 -10q-15 -6 -15 -25z" />
    <glyph glyph-name="S" unicode="S" horiz-adv-x="577" 
d="M289 -15q-102 0 -175 61q-10 9 -19.5 6.5t-12.5 -15.5l-10 -43h-31l4 318h34q6 -96 63 -183.5t141 -87.5q47 0 72 27.5t25 68.5q0 50 -32 92.5t-97 91.5q-104 78 -135 111q-66 70 -66 162q0 105 68 163.5t167 58.5q89 0 148 -51q14 -11 24 -8t14 20l6 29h29l11 -269h-32
q-5 82 -56 152.5t-124 70.5q-43 0 -66.5 -25t-23.5 -62q0 -41 29 -73t116 -96q100 -74 143 -133t43 -143q0 -114 -74.5 -178.5t-182.5 -64.5z" />
    <glyph glyph-name="T" unicode="T" horiz-adv-x="711" 
d="M209 735h-36q-58 0 -85 -35.5t-33 -129.5l-34 3l10 177l4 50h641l3 -50l11 -177l-35 -3q-6 94 -33 129.5t-84 35.5h-37q-38 0 -38 -39v-578q0 -48 23.5 -68.5t87.5 -20.5v-29h-438v29q64 0 88 20.5t24 68.5v578q0 39 -39 39z" />
    <glyph glyph-name="U" unicode="U" horiz-adv-x="818" 
d="M415 -16q-146 0 -223.5 80t-77.5 240v378q0 48 -23.5 68.5t-87.5 20.5v29h438v-29q-64 0 -88 -20.5t-24 -68.5v-378q0 -126 36.5 -179t111.5 -53q164 0 164 239v371q0 48 -24 68.5t-88 20.5v29h286v-29q-64 0 -87.5 -20.5t-23.5 -68.5v-371q0 -73 -14 -129.5t-46 -102.5
t-90 -70.5t-139 -24.5z" />
    <glyph glyph-name="V" unicode="V" horiz-adv-x="781" 
d="M320 688l148 -422h7l141 422q18 44 3.5 63.5t-77.5 19.5v29h247v-29q-46 0 -70.5 -17.5t-40.5 -65.5l-233 -704h-90l-257 705q-17 47 -41 64.5t-66 17.5v29h402v-29q-63 0 -77 -19.5t4 -63.5z" />
    <glyph glyph-name="W" unicode="W" horiz-adv-x="1126" 
d="M1121 800v-29q-46 0 -69 -18t-37 -67l-200 -702h-98l-141 518l-151 -518h-97l-215 703q-15 49 -38 66.5t-69 17.5v29h376v-29q-46 0 -56 -20.5t5 -64.5l115 -411h4l98 331l-22 80q-13 49 -30.5 67t-46.5 18v29h368v-29q-57 0 -71.5 -19.5t-3.5 -66.5l96 -410h5l112 411
q15 44 0.5 64.5t-71.5 20.5v29h237z" />
    <glyph glyph-name="X" unicode="X" horiz-adv-x="823" 
d="M513 450l198 -347q25 -43 52 -58.5t66 -15.5v-29h-435v29q74 0 87 17t-14 57l-128 223l-126 -210q-27 -39 -13.5 -63t78.5 -24v-29h-284v31q100 0 165 107l148 243l-181 316q-25 43 -50.5 58.5t-60.5 15.5v29h428v-29q-74 0 -86.5 -17t14.5 -57l111 -193l116 194
q25 40 14 56.5t-70 16.5v29h251v-29q-44 0 -73 -14.5t-55 -57.5z" />
    <glyph glyph-name="Y" unicode="Y" horiz-adv-x="760" 
d="M494 358v-240q0 -48 24 -68.5t88 -20.5v-29h-438v29q64 0 87.5 20.5t23.5 68.5v234l-174 343q-23 44 -48.5 60t-64.5 16v29h422v-29q-75 0 -90 -18.5t9 -59.5l126 -263h3l127 263q23 41 12 59.5t-73 18.5v29h240v-29q-43 0 -69 -16.5t-48 -61.5z" />
    <glyph glyph-name="Z" unicode="Z" horiz-adv-x="647" 
d="M77 800h539l-340 -735h171q57 0 87 44t42 158l34 -4l-22 -216l-5 -47h-557v29l339 706h-149q-57 0 -84 -37.5t-31 -136.5l-34 2l8 187z" />
    <glyph glyph-name="bracketleft" unicode="[" horiz-adv-x="389" 
d="M359 870v-56h-94v-1008h94v-56h-309v1120h309z" />
    <glyph glyph-name="backslash" unicode="\" horiz-adv-x="381" 
d="M0 820h119l262 -820h-119z" />
    <glyph glyph-name="bracketright" unicode="]" horiz-adv-x="389" 
d="M30 870h309v-1120h-309v56h94v1008h-94v56z" />
    <glyph glyph-name="asciicircum" unicode="^" horiz-adv-x="656" 
d="M182 369h-132l206 431h141l209 -431h-132l-146 317h-3z" />
    <glyph glyph-name="underscore" unicode="_" horiz-adv-x="700" 
d="M700 -90v-83h-700v83h700z" />
    <glyph glyph-name="grave" unicode="`" horiz-adv-x="280" 
d="M160 814l77 -193h-46l-170 193h139z" />
    <glyph glyph-name="a" unicode="a" horiz-adv-x="566" 
d="M543 126h29q-7 -71 -38.5 -106t-97.5 -35q-58 0 -91 31.5t-39 105.5h-4q-10 -60 -50.5 -99t-104.5 -39q-59 0 -94 34.5t-35 88.5q0 21 5 40t18 36t23.5 30t33.5 27.5t36 23t43 21l42 17.5t45 18t41 16v58q0 62 -14.5 87.5t-45.5 25.5q-23 0 -36 -12t-13 -31
q0 -10 6.5 -32.5t6.5 -36.5q0 -30 -20.5 -49.5t-58.5 -19.5q-39 0 -60.5 21t-21.5 56q0 64 63 110t162 46q103 0 156.5 -50.5t53.5 -137.5v-271q0 -28 4 -38t16 -10q35 0 40 74zM230 110q23 0 43.5 18t31.5 50v117q-115 -57 -115 -136q0 -49 40 -49z" />
    <glyph glyph-name="b" unicode="b" horiz-adv-x="618" 
d="M77 57v568q0 32 -0.5 43.5t-6.5 21t-17 6t-34 -15.5l-14 25l232 124l21 -19v-356h4q71 104 170 104q75 0 119 -66t44 -192q0 -152 -68.5 -233.5t-199.5 -81.5q-146 0 -250 72zM258 389v-292q26 -48 66 -48q78 0 78 224q0 177 -68 177q-43 0 -76 -61z" />
    <glyph glyph-name="c" unicode="c" horiz-adv-x="489" 
d="M252 -16q-106 0 -167.5 73.5t-61.5 199.5q0 133 69 217t184 84q77 0 128 -38.5t51 -104.5q0 -41 -20.5 -65t-58.5 -24q-33 0 -53.5 19.5t-20.5 49.5q0 11 4 32t4 31q0 42 -36 42q-70 0 -70 -172q0 -221 122 -221q90 0 115 127h29q-10 -127 -67.5 -188.5t-150.5 -61.5z
" />
    <glyph glyph-name="d" unicode="d" horiz-adv-x="621" 
d="M607 89l11 -29l-222 -77l-36 27v86h-3q-23 -52 -63.5 -82t-93.5 -30q-78 0 -127.5 68.5t-49.5 195.5q0 149 62 229.5t153 80.5q82 0 122 -53v122q0 32 -1 43.5t-6.5 21t-17.5 6t-35 -15.5l-13 25l234 122l19 -19v-649q0 -32 1.5 -46.5t8.5 -25t20 -9.5t37 9zM287 93
q41 0 73 61v158q0 67 -18 117t-54 50q-75 0 -75 -199q0 -187 74 -187z" />
    <glyph glyph-name="e" unicode="e" horiz-adv-x="501" 
d="M447 220h29q-21 -122 -77 -179t-149 -57q-103 0 -165 71.5t-62 203.5q0 123 64 211t171 88q75 0 125 -38.5t69.5 -96.5t19.5 -133h-272q4 -94 34.5 -140.5t92.5 -46.5q37 0 70 28t50 89zM255 501q-34 0 -44.5 -34t-11.5 -121h102q0 88 -8 121.5t-38 33.5z" />
    <glyph glyph-name="f" unicode="f" horiz-adv-x="422" 
d="M370 829q67 0 104 -27.5t37 -65.5q0 -31 -21.5 -53.5t-59.5 -22.5q-40 0 -68 46q-6 9 -12 20t-9 16t-7 10t-8 7t-9 2q-22 0 -31.5 -34t-9.5 -116v-73h120v-56h-120v-364q0 -53 21 -71t85 -18v-29h-367v29q49 0 65 18.5t16 70.5v364h-70v49l70 4v35q0 74 27.5 127.5
t71.5 80.5t87.5 39t87.5 12z" />
    <glyph glyph-name="g" unicode="g" horiz-adv-x="584" 
d="M280 115h141q164 0 164 -120q0 -100 -97 -165.5t-246 -65.5q-102 0 -170.5 32.5t-68.5 88.5q0 71 114 101q-70 33 -70 90q0 79 102 124q-105 50 -105 161q0 85 64.5 141t174.5 56q70 0 125 -25q59 38 125 38q55 0 55 -44q0 -21 -11.5 -36t-30.5 -15q-22 0 -58.5 22
t-53.5 20q78 -51 78 -150q0 -88 -63 -141t-170 -53q-46 0 -87 11q-25 -14 -25 -34q0 -19 22 -27.5t91 -8.5zM264 506q-44 0 -44 -88q0 -74 18.5 -132.5t53.5 -58.5q44 0 44 86q0 75 -18.5 134t-53.5 59zM287 -150q87 0 147.5 27.5t60.5 57.5q0 15 -17.5 20t-63.5 5h-158
q-48 0 -93 10q-16 -25 -16 -46q0 -30 31 -52t109 -22z" />
    <glyph glyph-name="h" unicode="h" horiz-adv-x="675" 
d="M271 376v-258q0 -53 11 -71t45 -18v-29h-309v29q44 0 59 18.5t15 70.5l-1 506q0 31 -1 42.5t-7 20.5t-18.5 4.5t-37.5 -17.5l-13 26l238 129l19 -20v-375h3q41 60 85.5 92.5t103.5 32.5q58 0 93 -40.5t35 -126.5v-274q0 -53 13.5 -71t56.5 -18v-29h-305v29q33 0 44 18
t11 71v266q0 65 -46 65q-48 0 -94 -73z" />
    <glyph glyph-name="i" unicode="i" horiz-adv-x="371" 
d="M188 615q-43 0 -70 24.5t-27 64.5t27 65t70 25t69.5 -25t26.5 -65t-26.5 -64.5t-69.5 -24.5zM283 541v-423q0 -52 16 -70.5t64 -18.5v-29h-340v29q49 0 65 18.5t16 70.5l-1 256q0 33 -1 47t-7.5 24.5t-19 9t-35.5 -10.5l-12 29l227 91z" />
    <glyph glyph-name="j" unicode="j" horiz-adv-x="354" 
d="M202 615q-43 0 -70 24.5t-27 64.5t27 65t70 25t69.5 -25t26.5 -65t-26.5 -64.5t-69.5 -24.5zM93 -236q-84 0 -136.5 28t-52.5 77q0 31 20.5 48.5t55.5 17.5q34 0 52.5 -16t28.5 -53q8 -29 14 -39.5t16 -10.5q16 0 21 22t5 86v449q0 33 -1 47t-7.5 24.5t-19 9t-36.5 -11.5
l-12 29l226 93l30 -23v-559q0 -114 -59.5 -166t-144.5 -52z" />
    <glyph glyph-name="k" unicode="k" horiz-adv-x="701" 
d="M274 810v-692q0 -53 11.5 -71t47.5 -18v-29h-319v29q48 0 64 18.5t16 70.5v513q0 31 -1 43t-7.5 20.5t-19.5 5t-38 -16.5l-13 25l236 121zM450 378l151 -274q23 -43 49.5 -59t63.5 -16v-29h-341v29q48 0 50.5 14.5t-24.5 60.5l-105 193l114 134q36 42 27 60t-65 18v29
h303v-29q-50 0 -84.5 -11t-67.5 -45z" />
    <glyph glyph-name="l" unicode="l" horiz-adv-x="362" 
d="M274 810v-692q0 -53 15.5 -71t64.5 -18v-29h-340v29q48 0 64 18.5t16 70.5v513q0 31 -1 43t-7.5 20.5t-19.5 5t-38 -16.5l-13 25l236 121z" />
    <glyph glyph-name="m" unicode="m" horiz-adv-x="972" 
d="M888 394v-276q0 -52 14 -70.5t56 -18.5v-29h-296v29q30 0 39.5 18t9.5 71v268q0 63 -43 63q-41 0 -86 -70v-261q0 -53 9.5 -71t39.5 -18v-29h-275v29q30 0 39.5 18t9.5 71v268q0 63 -42 63q-44 0 -88 -72v-259q0 -53 9.5 -71t39.5 -18v-29h-299v29q44 0 58.5 18t14.5 71
v257q0 33 -1 47t-7.5 24.5t-19 9t-35.5 -11.5l-12 29l85 34l138 57l29 -23v-107h3q39 58 79.5 91.5t99.5 33.5q50 0 82.5 -31t40.5 -94h5q39 58 79 91.5t98 33.5t92 -41t34 -124z" />
    <glyph glyph-name="n" unicode="n" horiz-adv-x="682" 
d="M25 0v29q44 0 58.5 18t14.5 71v256q0 33 -1 47t-7.5 24.5t-19 9t-35.5 -11.5l-12 29l225 92l30 -23v-107h3q41 60 85.5 92.5t103.5 32.5q58 0 93 -40.5t35 -126.5v-274q0 -53 13.5 -71t55.5 -18v-29h-305v29q34 0 45 18t11 71v263q0 68 -45 68q-49 0 -95 -73v-258
q0 -53 11 -71t45 -18v-29h-309z" />
    <glyph glyph-name="o" unicode="o" horiz-adv-x="586" 
d="M293 -16q-127 0 -198.5 75.5t-71.5 208.5q0 131 72.5 210.5t197.5 79.5q126 0 198 -75t72 -208q0 -131 -72.5 -211t-197.5 -80zM312 47q34 0 49.5 40.5t15.5 95.5q0 118 -26.5 215t-76.5 97q-34 0 -49.5 -40.5t-15.5 -95.5q0 -118 26.5 -215t76.5 -97z" />
    <glyph glyph-name="p" unicode="p" horiz-adv-x="625" 
d="M432 558q81 0 124.5 -69.5t43.5 -195.5q0 -139 -58.5 -221t-142.5 -82q-39 0 -75 16.5t-55 48.5h-2v-157q0 -53 15.5 -71t64.5 -18v-29h-340v29q49 0 64.5 18t15.5 71v476q0 33 -1 47t-7.5 24.5t-19 9t-36.5 -10.5l-12 29l230 91l26 -23v-88h4q74 105 161 105zM340 62
q67 0 67 205q0 101 -15 142t-48 41q-43 0 -77 -62v-170q0 -78 21 -117t52 -39z" />
    <glyph glyph-name="q" unicode="q" horiz-adv-x="614" 
d="M433 502l83 61l23 -20v-645q0 -53 15.5 -71t64.5 -18v-29h-349v29q53 0 70.5 18t17.5 71v199h-4q-53 -110 -152 -110q-78 0 -128.5 65.5t-50.5 198.5q0 141 59 224t176 83q91 0 175 -56zM358 153v201q-1 70 -20.5 98.5t-46.5 28.5q-79 0 -79 -203q0 -185 73 -185
q42 0 73 60z" />
    <glyph glyph-name="r" unicode="r" horiz-adv-x="518" 
d="M437 558q70 0 70 -81q0 -45 -20.5 -74t-53.5 -29q-18 0 -29 6.5t-28 24.5q-23 25 -38 25q-19 0 -36 -25t-24 -61v-210q0 -60 23.5 -80.5t96.5 -20.5v-33h-373v29q44 0 58.5 18t14.5 71v256q0 33 -1 47t-7.5 24.5t-19 9t-35.5 -11.5l-12 29l225 92l30 -23v-111h3
q28 48 69.5 88t86.5 40z" />
    <glyph glyph-name="s" unicode="s" horiz-adv-x="437" 
d="M232 -16q-74 0 -131 39q-19 13 -28 -6l-10 -21h-28l-10 229h29q13 -81 55.5 -132t101.5 -51q62 0 62 61q0 25 -19.5 44t-93.5 69q-70 47 -98.5 86.5t-28.5 88.5q0 77 51.5 122t126.5 45q61 0 109 -37q20 -15 30 6l10 24h28l9 -188h-28q-15 59 -54 98.5t-87 39.5
q-25 0 -38.5 -13.5t-13.5 -34.5q0 -24 17.5 -41t80.5 -61q53 -36 80 -60t45.5 -59t18.5 -79q0 -84 -53 -126.5t-133 -42.5z" />
    <glyph glyph-name="t" unicode="t" horiz-adv-x="406" 
d="M358 246h38q0 -135 -39 -198.5t-130 -63.5q-76 0 -115 47.5t-39 157.5v293h-65v53q64 4 115 43.5t67 114.5h58v-155h117v-56h-113v-285q0 -112 49 -112q57 0 57 161z" />
    <glyph glyph-name="u" unicode="u" horiz-adv-x="646" 
d="M426 -17l-36 27v97h-3q-19 -30 -32 -47t-34 -37t-47 -29.5t-59 -9.5q-60 0 -98.5 43.5t-38.5 120.5v238q0 55 -12 68t-58 -1l-8 28l238 72l19 -17v-372q0 -41 10.5 -58.5t34.5 -17.5q39 0 88 75v223q0 55 -12 68t-58 -1l-8 28l239 72l18 -17v-375q0 -32 1.5 -47
t8.5 -25.5t20.5 -9.5t37.5 9l10 -30z" />
    <glyph glyph-name="v" unicode="v" horiz-adv-x="569" 
d="M344 215l71 211q19 50 12.5 66.5t-50.5 16.5v29h186v-29q-32 0 -52 -17.5t-36 -65.5l-144 -433h-100l-145 433q-16 48 -34.5 65.5t-46.5 17.5v29h316v-29q-46 0 -54 -17.5t9 -66.5l62 -210h6z" />
    <glyph glyph-name="w" unicode="w" horiz-adv-x="872" 
d="M865 538v-29q-31 0 -50.5 -18t-33.5 -66l-132 -433h-116l-89 322l-91 -322h-119l-144 434q-16 48 -35 65.5t-49 17.5v29h290v-29q-30 0 -31 -16.5t17 -66.5l71 -217h5l58 205l-3 10q-14 48 -29.5 66.5t-37.5 18.5v29h286v-29q-35 0 -40 -17.5t8 -68.5l50 -214h5l69 216
q18 50 12.5 67t-45.5 17v29h174z" />
    <glyph glyph-name="x" unicode="x" horiz-adv-x="585" 
d="M377 287l91 -181q23 -44 45.5 -60.5t51.5 -16.5v-29h-312v29q41 0 43.5 14.5t-23.5 59.5q-1 2 -1 3l-43 85l-46 -86q-28 -53 -25 -63q3 -13 45 -13v-29h-199v29q38 0 64.5 16t50.5 59l80 146l-92 182q-22 44 -44 60.5t-51 16.5v29h309v-29q-41 0 -42.5 -15t24.5 -62
l44 -86l47 88q28 52 25 62q-3 13 -44 13v29h189v-29q-33 0 -58 -16t-48 -59z" />
    <glyph glyph-name="y" unicode="y" horiz-adv-x="568" 
d="M126 -236q-42 0 -70 25t-28 66q0 40 23 62t58 22t69 -36q21 -24 44 -24q27 0 33 47q0 26 -38 140l-123 360q-16 48 -36 65.5t-52 17.5v29h320v-29q-45 0 -52 -17.5t10 -67.5l61 -209h7l66 210q18 50 12 67t-48 17v29h179v-29q-31 0 -50.5 -17.5t-35.5 -65.5l-144 -436
q-38 -116 -83 -169t-122 -57z" />
    <glyph glyph-name="z" unicode="z" horiz-adv-x="472" 
d="M235 56h74q58 0 78 32t20 129h32v-217h-418v29l214 453h-68q-59 0 -79 -27t-20 -110h-31v193h412v-29z" />
    <glyph glyph-name="braceleft" unicode="{" horiz-adv-x="476" 
d="M435 870v-29q-40 -5 -66.5 -14.5t-38 -23.5t-15.5 -26t-4 -28q0 -36 34 -98t34 -118q0 -63 -33 -109.5t-75.5 -68t-92.5 -31.5v-2q37 -7 69.5 -22t63.5 -39t49.5 -62.5t18.5 -86.5q0 -56 -34 -130.5t-34 -110.5q0 -35 24.5 -59t99.5 -33v-29q-155 20 -216.5 64t-61.5 129
q0 51 16.5 133.5t16.5 118.5q0 57 -33.5 85t-123.5 28v29q157 0 157 118q0 29 -16.5 100t-16.5 123q0 84 62 128.5t216 63.5z" />
    <glyph glyph-name="bar" unicode="|" horiz-adv-x="219" 
d="M50 -160v980h119v-980h-119z" />
    <glyph glyph-name="braceright" unicode="}" horiz-adv-x="476" 
d="M444 337v-29q-90 0 -123.5 -27.5t-33.5 -85.5q0 -36 16.5 -118.5t16.5 -133.5q0 -85 -62 -129t-217 -64v29q75 9 100 33t25 59q0 36 -34 110.5t-34 130.5q0 48 18.5 86.5t49.5 62.5t63.5 39t69.5 22v2q-50 10 -92.5 31.5t-75.5 68t-33 109.5q0 56 34 118t34 98
q0 34 -24.5 58.5t-100.5 33.5v29q154 -19 216.5 -63.5t62.5 -128.5q0 -52 -16.5 -123t-16.5 -100q0 -59 37 -88.5t120 -29.5z" />
    <glyph glyph-name="asciitilde" unicode="~" horiz-adv-x="748" 
d="M669 434h29q-7 -103 -47.5 -164t-117.5 -61q-41 0 -86 16.5t-77.5 36t-77.5 36t-86 16.5q-103 0 -127 -104h-29q7 103 47.5 164t116.5 61q42 0 86.5 -16.5t77.5 -36t77.5 -36t85.5 -16.5q104 0 128 104z" />
    <glyph glyph-name="exclamdown" unicode="&#xa1;" horiz-adv-x="276" 
d="M138 559q35 0 59.5 -24.5t24.5 -59.5t-24.5 -59.5t-59.5 -24.5t-59.5 24.5t-24.5 59.5t25 59.5t59 24.5zM52 -180q0 43 16.5 112t33.5 169.5t18 215.5h38q1 -115 18 -215.5t33 -169.5t16 -112q0 -47 -24 -72.5t-63 -25.5t-62.5 25.5t-23.5 72.5z" />
    <glyph glyph-name="cent" unicode="&#xa2;" horiz-adv-x="533" 
d="M456 234h29q-10 -127 -67.5 -188.5t-150.5 -61.5q-11 0 -29 2l-56 -206h-42l58 213q-76 23 -118 92t-42 172q0 133 69 217t184 84q33 0 58 -7l68 249h41l-71 -261q83 -38 83 -124q0 -41 -20.5 -65t-58.5 -24q-35 0 -56 21l-59 -218q27 -22 65 -22q90 0 115 127zM218 328
q0 -103 28 -159l79 292q-1 39 -37 39q-70 0 -70 -172z" />
    <glyph glyph-name="sterling" unicode="&#xa3;" horiz-adv-x="739" 
d="M663 294h30q-1 -4 -5 -26t-7 -35t-9 -38t-12 -42t-15.5 -41.5t-19.5 -40.5t-24 -34t-29.5 -29t-35.5 -18t-42 -7q-72 0 -183 85q-74 -85 -156 -85q-44 0 -74.5 28t-30.5 80t34 84.5t106 32.5q25 0 45 -4v24q0 70 -19 146h-120v39h109q-2 7 -7.5 26.5t-8 27.5t-6.5 25
t-6 27.5t-4.5 25t-3.5 27.5t-1 26q0 106 65 164t172 58q99 0 153 -45t54 -107q0 -35 -20.5 -58t-63.5 -23q-83 0 -83 94q0 24 -1.5 38.5t-12 29.5t-30.5 15q-60 0 -60 -104q0 -50 27 -131.5t33 -115.5h134v-39h-129q2 -22 2 -36q0 -89 -35 -170q58 -13 100 -13
q73 0 116.5 32.5t73.5 106.5zM152 40q52 0 73 89q-38 23 -64 23q-25 0 -38.5 -17t-13.5 -43q0 -23 11.5 -37.5t31.5 -14.5z" />
    <glyph glyph-name="currency" unicode="&#xa4;" horiz-adv-x="704" 
d="M604 364q0 -69 -37 -132l87 -87l-84 -83l-86 87q-63 -37 -132 -37q-71 0 -132 37l-87 -87l-83 83l87 87q-37 61 -37 132q0 73 37 132l-87 87l83 83l87 -87q59 37 132 37q72 0 132 -37l86 87l84 -83l-87 -87q37 -61 37 -132zM352 230q60 0 97 39t37 95q0 57 -37 95.5
t-97 38.5t-97 -38.5t-37 -95.5q0 -56 37 -95t97 -39z" />
    <glyph glyph-name="yen" unicode="&#xa5;" horiz-adv-x="858" 
d="M817 800v-29q-43 0 -69 -16.5t-48 -61.5l-127 -270h211v-39h-229l-12 -26v-72h241v-38h-241v-130q0 -48 23.5 -68.5t87.5 -20.5v-29h-438v29q64 0 88 20.5t24 68.5v130h-255v38h255v66l-16 32h-239v39h219l-138 272q-23 44 -48.5 60t-64.5 16v29h422v-29
q-75 0 -90.5 -18.5t8.5 -59.5l127 -263h2l127 263q24 41 13 59.5t-73 18.5v29h240z" />
    <glyph glyph-name="brokenbar" unicode="&#xa6;" horiz-adv-x="219" 
d="M50 420v400h119v-400h-119zM50 -160v400h119v-400h-119z" />
    <glyph glyph-name="section" unicode="&#xa7;" horiz-adv-x="517" 
d="M467 327q0 -91 -96 -167q48 -58 48 -120q0 -79 -51 -123.5t-121 -44.5q-79 0 -127 35t-48 81q0 26 15.5 44.5t44.5 18.5q62 0 62 -72q0 -71 72 -71q35 0 56.5 21t21.5 58q0 39 -30 72.5t-105 91.5q-90 71 -124.5 113t-34.5 98q0 93 96 167q-47 57 -47 120q0 78 50.5 123
t120.5 45q79 0 127 -35t48 -82q0 -25 -15.5 -43.5t-44.5 -18.5q-62 0 -62 72q0 71 -71 71q-35 0 -57 -21.5t-22 -58.5q0 -39 29.5 -71.5t105.5 -91.5q90 -71 124.5 -113t34.5 -98zM133 420q0 -42 27.5 -72.5t120.5 -104.5q48 -38 68 -59q35 40 35 85q0 42 -27.5 72.5
t-119.5 103.5q-50 40 -69 60q-35 -40 -35 -85z" />
    <glyph glyph-name="dieresis" unicode="&#xa8;" horiz-adv-x="515" 
d="M143 607q-34 0 -59 24.5t-25 58.5q0 35 24.5 59.5t59.5 24.5t59 -24.5t24 -59.5q0 -34 -24.5 -58.5t-58.5 -24.5zM373 607q-34 0 -59 24.5t-25 58.5q0 35 24.5 59.5t59.5 24.5t59 -24.5t24 -59.5q0 -34 -24.5 -58.5t-58.5 -24.5z" />
    <glyph glyph-name="copyright" unicode="&#xa9;" horiz-adv-x="920" 
d="M461 829q177 0 297.5 -124t120.5 -306q0 -178 -121 -303t-297 -125q-178 0 -299 125t-121 303q0 182 120.5 306t299.5 124zM461 790q-163 0 -272 -113.5t-109 -277.5t108.5 -276.5t272.5 -112.5q160 0 269.5 113t109.5 276t-109.5 277t-269.5 114zM203 401
q0 113 74 186.5t188 73.5q45 0 80 -12.5t53.5 -25.5t24.5 -13q10 0 10 31h29l15 -185h-29q-10 75 -52 112t-104 37q-71 0 -112 -52.5t-41 -151.5t42.5 -151t120.5 -52q62 0 108 38.5t69 110.5h29q-60 -206 -246 -206q-115 0 -187 73t-72 187z" />
    <glyph glyph-name="guillemotleft" unicode="&#xab;" horiz-adv-x="537" 
d="M278 534l-83 -241l83 -244h-29l-208 244l208 241h29zM496 534l-83 -241l83 -244h-29l-207 244l207 241h29z" />
    <glyph glyph-name="logicalnot" unicode="&#xac;" horiz-adv-x="614" 
d="M50 363v121h514v-364h-119v243h-395z" />
    <glyph glyph-name="registered" unicode="&#xae;" horiz-adv-x="920" 
d="M461 829q177 0 297.5 -124t120.5 -305q0 -179 -121 -304t-297 -125q-178 0 -299 125t-121 304q0 181 120.5 305t299.5 124zM461 10q160 0 269.5 113t109.5 276t-109.5 277t-269.5 114q-163 0 -272 -113.5t-109 -277.5t108.5 -276.5t272.5 -112.5zM589 303l24 -44
q27 -51 49.5 -70t56.5 -19v-29h-107q-44 0 -68 16t-42 53l-74 158h-41v-109q0 -48 12 -68.5t45 -20.5v-29h-231v29q32 0 44 20.5t12 68.5v284q0 48 -12 68.5t-44 20.5v29h218q218 0 218 -148q0 -111 -133 -138q43 -13 73 -72zM387 618v-211h24q43 0 74 28t31 77q0 57 -28 84
t-64 27q-17 0 -37 -5z" />
    <glyph glyph-name="macron" unicode="&#xaf;" horiz-adv-x="495" 
d="M76 651v71h343v-71h-343z" />
    <glyph glyph-name="degree" unicode="&#xb0;" horiz-adv-x="431" 
d="M215 476q-82 0 -133.5 49t-51.5 128t51.5 128t133.5 49q83 0 134.5 -49t51.5 -128t-51.5 -128t-134.5 -49zM215 563q38 0 61.5 25t23.5 65t-23.5 65t-61.5 25t-61.5 -25t-23.5 -65t23.5 -65t61.5 -25z" />
    <glyph glyph-name="plusminus" unicode="&#xb1;" horiz-adv-x="550" 
d="M500 438v-119h-165v-116h165v-128h-450v128h167v116h-167v119h167v166h118v-166h165z" />
    <glyph glyph-name="acute" unicode="&#xb4;" horiz-adv-x="280" 
d="M89 621h-46l76 193h139z" />
    <glyph glyph-name="paragraph" unicode="&#xb6;" horiz-adv-x="706" 
d="M656 800v-29q-64 0 -88 -20.5t-24 -68.5v-902h-57v964h-134v-964h-57v608q-114 0 -180 51.5t-66 154.5t66 154.5t180 51.5h360z" />
    <glyph glyph-name="periodcentered" unicode="&#xb7;" horiz-adv-x="268" 
d="M134 315q-35 0 -59.5 24.5t-24.5 59.5t24.5 59.5t59.5 24.5t59.5 -24.5t24.5 -59.5t-25 -59.5t-59 -24.5z" />
    <glyph glyph-name="cedilla" unicode="&#xb8;" horiz-adv-x="380" 
d="M93 -87l76 97h56l-35 -63q131 -9 131 -99q0 -53 -45.5 -83.5t-108 -33t-126.5 5.5l6 28q156 -17 156 70q0 38 -30 57.5t-80 20.5z" />
    <glyph glyph-name="guillemotright" unicode="&#xbb;" horiz-adv-x="537" 
d="M41 49l83 244l-83 241h29l208 -241l-208 -244h-29zM260 49l82 244l-82 241h28l208 -241l-208 -244h-28z" />
    <glyph glyph-name="onequarter" unicode="&#xbc;" horiz-adv-x="892" 
d="M266 804v-405q0 -32 10.5 -43t41.5 -11v-17h-241v17q34 0 45.5 11t11.5 43v286q0 36 -10 41.5t-53 -11.5l-8 17l192 84zM168 0l497 800h58l-497 -800h-58zM631 118h-170v95l202 273h84v-273h66v-95h-66v-47q0 -32 10 -43t41 -11v-17h-223v17q34 0 45 11t11 43v47z
M502 215v-2h129v176z" />
    <glyph glyph-name="onehalf" unicode="&#xbd;" horiz-adv-x="941" 
d="M266 804v-405q0 -32 10.5 -43t41.5 -11v-17h-241v17q34 0 45.5 11t11.5 43v286q0 36 -10 41.5t-53 -11.5l-8 17l192 84zM170 0l497 800h58l-497 -800h-58zM665 97h143q31 0 47 14.5t30 51.5l16 -6l-25 -67l-33 -90h-295v17q115 117 159 174t44 111q0 88 -81 88
q-80 0 -93 -91h-19q0 84 51.5 136.5t133.5 52.5q64 0 99.5 -29.5t35.5 -84.5q0 -32 -16 -65t-50.5 -70t-65 -64.5t-81.5 -70.5v-7z" />
    <glyph glyph-name="threequarters" unicode="&#xbe;" horiz-adv-x="947" 
d="M77 384q0 18 12.5 29.5t31.5 11.5t28.5 -8.5t20.5 -27.5q18 -29 40 -29q24 0 41 22.5t17 73.5q0 56 -30 84.5t-77 28.5v18q104 17 104 91q0 29 -16 46.5t-50 17.5q-30 0 -50.5 -15.5t-27.5 -43.5h-18q8 60 47 96.5t105 36.5q57 0 95 -29t38 -81q0 -47 -37 -79t-93 -42v-2
q59 -1 102 -30.5t43 -86.5q0 -71 -57 -109t-141 -38q-53 0 -90.5 16.5t-37.5 48.5zM240 0l497 800h58l-497 -800h-58zM686 118h-170v95l203 273h83v-273h66v-95h-66v-47q0 -32 10 -43t41 -11v-17h-223v17q34 0 45 11t11 43v47zM558 215v-2h128v176z" />
    <glyph glyph-name="questiondown" unicode="&#xbf;" horiz-adv-x="465" 
d="M267 559q35 0 59.5 -24.5t24.5 -59.5t-24.5 -59.5t-59.5 -24.5t-59.5 24.5t-24.5 59.5t24.5 59.5t59.5 24.5zM252 318h45q54 -71 74.5 -109.5t20.5 -72.5q0 -36 -24.5 -66.5t-95.5 -89.5q-67 -54 -92 -81.5t-25 -50.5q0 -48 62 -48q50 0 91 41t52 114h41l15 -181
q-25 -23 -75 -39t-103 -16q-88 0 -152.5 52.5t-64.5 143.5q0 50 31.5 94.5t105.5 99.5q63 47 90.5 78.5t27.5 65.5q0 30 -24 65z" />
    <glyph glyph-name="Agrave" unicode="&#xc0;" horiz-adv-x="786" 
d="M365 1055l77 -193h-46l-170 193h139zM439 807l250 -696q18 -48 44.5 -65t77.5 -17v-29h-423v29q68 0 84 18.5t2 65.5l-35 110h-246l-37 -111q-18 -44 -2.5 -63.5t81.5 -19.5v-29h-259v29q51 0 77 17.5t43 65.5l242 695h101zM318 593l-107 -318h212l-101 318h-4z" />
    <glyph glyph-name="Aacute" unicode="&#xc1;" horiz-adv-x="786" 
d="M420 1055h139l-169 -193h-46zM439 807l250 -696q18 -48 44.5 -65t77.5 -17v-29h-423v29q68 0 84 18.5t2 65.5l-35 110h-246l-37 -111q-18 -44 -2.5 -63.5t81.5 -19.5v-29h-259v29q51 0 77 17.5t43 65.5l242 695h101zM318 593l-107 -318h212l-101 318h-4z" />
    <glyph glyph-name="Acircumflex" unicode="&#xc2;" horiz-adv-x="786" 
d="M526 862l-132 129l-132 -129h-47l105 193h147l105 -193h-46zM439 807l250 -696q18 -48 44.5 -65t77.5 -17v-29h-423v29q68 0 84 18.5t2 65.5l-35 110h-246l-37 -111q-18 -44 -2.5 -63.5t81.5 -19.5v-29h-259v29q51 0 77 17.5t43 65.5l242 695h101zM318 593l-107 -318h212
l-101 318h-4z" />
    <glyph glyph-name="Atilde" unicode="&#xc3;" horiz-adv-x="786" 
d="M302 937q-31 0 -44 -18t-23 -56h-29q4 27 6.5 37.5t8.5 38t13.5 41.5t19 32t27.5 26t36 8q35 0 86.5 -37t82.5 -37t44 18t22 56h29q-4 -27 -6.5 -37.5t-8.5 -38t-13.5 -41.5t-19 -32t-27.5 -26t-36 -8q-35 0 -86.5 37t-81.5 37zM439 807l250 -696q18 -48 44.5 -65
t77.5 -17v-29h-423v29q68 0 84 18.5t2 65.5l-35 110h-246l-37 -111q-18 -44 -2.5 -63.5t81.5 -19.5v-29h-259v29q51 0 77 17.5t43 65.5l242 695h101zM318 593l-107 -318h212l-101 318h-4z" />
    <glyph glyph-name="Adieresis" unicode="&#xc4;" horiz-adv-x="786" 
d="M279 848q-34 0 -59 24.5t-25 58.5q0 35 24.5 59.5t59.5 24.5t59 -24.5t24 -59.5q0 -34 -24.5 -58.5t-58.5 -24.5zM509 848q-34 0 -59 24.5t-25 58.5q0 35 24.5 59.5t59.5 24.5t59 -24.5t24 -59.5q0 -34 -24.5 -58.5t-58.5 -24.5zM439 807l250 -696q18 -48 44.5 -65
t77.5 -17v-29h-423v29q68 0 84 18.5t2 65.5l-35 110h-246l-37 -111q-18 -44 -2.5 -63.5t81.5 -19.5v-29h-259v29q51 0 77 17.5t43 65.5l242 695h101zM318 593l-107 -318h212l-101 318h-4z" />
    <glyph glyph-name="Aring" unicode="&#xc5;" horiz-adv-x="786" 
d="M394 866q-49 0 -81 31.5t-32 78.5q0 46 32 77t81 31q47 0 79 -31t32 -77q0 -47 -32 -78.5t-79 -31.5zM394 1037q-28 0 -46.5 -17t-18.5 -44q0 -28 18.5 -45.5t46.5 -17.5q27 0 45.5 18t18.5 45t-18.5 44t-45.5 17zM439 807l250 -696q18 -48 44.5 -65t77.5 -17v-29h-423
v29q68 0 84 18.5t2 65.5l-35 110h-246l-37 -111q-18 -44 -2.5 -63.5t81.5 -19.5v-29h-259v29q51 0 77 17.5t43 65.5l242 695h101zM318 593l-107 -318h212l-101 318h-4z" />
    <glyph glyph-name="AE" unicode="&#xc6;" horiz-adv-x="997" 
d="M944 262l34 -8l-48 -206l-11 -48h-595v29q64 0 88 20.5t24 68.5v135h-214l-60 -144q-21 -42 -9 -61t75 -19v-29h-252v29q51 0 78.5 16.5t47.5 63.5l242 582q21 42 8.5 61t-74.5 19v29h639l5 -51l20 -174l-32 -3q-10 92 -37.5 127.5t-80.5 35.5h-102q-40 0 -40 -40v-263
h67q44 0 63 26.5t19 96.5h26v-293h-26q0 70 -19 96.5t-63 26.5h-67v-263q0 -35 9 -46t38 -11h94q57 0 92 44t61 153zM433 756l-189 -451h192v451h-3z" />
    <glyph glyph-name="Ccedilla" unicode="&#xc7;" horiz-adv-x="719" 
d="M642 328h34q-26 -332 -282 -344l-21 -37q132 -9 132 -100q0 -53 -46 -83.5t-108 -33t-126 5.5l6 29q155 -18 155 69q0 38 -30 58t-79 21l57 73q-145 15 -225.5 125t-80.5 274q0 189 104 310t265 121q106 0 182 -64q10 -9 17 -6t9 15l7 47h29l15 -294h-29q-22 114 -70 177
t-117 63q-85 0 -133 -93t-48 -249q0 -155 48.5 -242.5t137.5 -87.5q78 0 129 68t68 178z" />
    <glyph glyph-name="Egrave" unicode="&#xc8;" horiz-adv-x="691" 
d="M328 1055l77 -193h-46l-170 193h139zM612 800l5 -51l20 -176l-31 -3q-11 92 -38.5 128.5t-79.5 36.5h-88q-57 0 -57 -57v-246h69q44 0 63 26.5t19 96.5h26v-293h-26q0 70 -19 96.5t-63 26.5h-69v-263q0 -35 9 -46t38 -11h96q56 0 91.5 44t61.5 153l33 -8l-48 -206
l-11 -48h-596v29q64 0 87.5 20.5t23.5 68.5v564q0 48 -23.5 68.5t-87.5 20.5v29h595z" />
    <glyph glyph-name="Eacute" unicode="&#xc9;" horiz-adv-x="691" 
d="M353 862h-46l76 193h139zM612 800l5 -51l20 -176l-31 -3q-11 92 -38.5 128.5t-79.5 36.5h-88q-57 0 -57 -57v-246h69q44 0 63 26.5t19 96.5h26v-293h-26q0 70 -19 96.5t-63 26.5h-69v-263q0 -35 9 -46t38 -11h96q56 0 91.5 44t61.5 153l33 -8l-48 -206l-11 -48h-596v29
q64 0 87.5 20.5t23.5 68.5v564q0 48 -23.5 68.5t-87.5 20.5v29h595z" />
    <glyph glyph-name="Ecircumflex" unicode="&#xca;" horiz-adv-x="691" 
d="M489 862l-132 129l-132 -129h-47l105 193h147l105 -193h-46zM639 262l33 -8l-48 -206l-11 -48h-596v29q64 0 87.5 20.5t23.5 68.5v564q0 48 -23.5 68.5t-87.5 20.5v29h595l5 -51l20 -176l-31 -3q-11 92 -38.5 128.5t-79.5 36.5h-88q-57 0 -57 -57v-246h69q44 0 63 26.5
t19 96.5h26v-293h-26q0 70 -19 96.5t-63 26.5h-69v-263q0 -35 9 -46t38 -11h96q56 0 91.5 44t61.5 153z" />
    <glyph glyph-name="Edieresis" unicode="&#xcb;" horiz-adv-x="691" 
d="M242 848q-34 0 -59 24.5t-25 58.5q0 35 24.5 59.5t59.5 24.5t59 -24.5t24 -59.5q0 -34 -24.5 -58.5t-58.5 -24.5zM472 848q-34 0 -59 24.5t-25 58.5q0 35 24.5 59.5t59.5 24.5t59 -24.5t24 -59.5q0 -34 -24.5 -58.5t-58.5 -24.5zM612 800l5 -51l20 -176l-31 -3
q-11 92 -38.5 128.5t-79.5 36.5h-88q-57 0 -57 -57v-246h69q44 0 63 26.5t19 96.5h26v-293h-26q0 70 -19 96.5t-63 26.5h-69v-263q0 -35 9 -46t38 -11h96q56 0 91.5 44t61.5 153l33 -8l-48 -206l-11 -48h-596v29q64 0 87.5 20.5t23.5 68.5v564q0 48 -23.5 68.5t-87.5 20.5
v29h595z" />
    <glyph glyph-name="Igrave" unicode="&#xcc;" horiz-adv-x="471" 
d="M207 1055l77 -193h-46l-170 193h139zM128 118v564q0 48 -23.5 68.5t-87.5 20.5v29h438v-29q-64 0 -88 -20.5t-24 -68.5v-564q0 -48 24 -68.5t88 -20.5v-29h-438v29q64 0 87.5 20.5t23.5 68.5z" />
    <glyph glyph-name="Iacute" unicode="&#xcd;" horiz-adv-x="471" 
d="M232 862h-46l76 193h139zM128 118v564q0 48 -23.5 68.5t-87.5 20.5v29h438v-29q-64 0 -88 -20.5t-24 -68.5v-564q0 -48 24 -68.5t88 -20.5v-29h-438v29q64 0 87.5 20.5t23.5 68.5z" />
    <glyph glyph-name="Icircumflex" unicode="&#xce;" horiz-adv-x="471" 
d="M368 862l-132 129l-132 -129h-47l105 193h147l105 -193h-46zM455 800v-29q-64 0 -88 -20.5t-24 -68.5v-564q0 -48 24 -68.5t88 -20.5v-29h-438v29q64 0 87.5 20.5t23.5 68.5v564q0 48 -23.5 68.5t-87.5 20.5v29h438z" />
    <glyph glyph-name="Idieresis" unicode="&#xcf;" horiz-adv-x="471" 
d="M121 848q-34 0 -59 24.5t-25 58.5q0 35 24.5 59.5t59.5 24.5t59 -24.5t24 -59.5q0 -34 -24.5 -58.5t-58.5 -24.5zM351 848q-34 0 -59 24.5t-25 58.5q0 35 24.5 59.5t59.5 24.5t59 -24.5t24 -59.5q0 -34 -24.5 -58.5t-58.5 -24.5zM128 118v564q0 48 -23.5 68.5t-87.5 20.5
v29h438v-29q-64 0 -88 -20.5t-24 -68.5v-564q0 -48 24 -68.5t88 -20.5v-29h-438v29q64 0 87.5 20.5t23.5 68.5z" />
    <glyph glyph-name="Eth" unicode="&#xd0;" horiz-adv-x="848" 
d="M413 800q62 0 117.5 -11t111 -39t95 -72t64 -115t24.5 -162q0 -92 -25 -163.5t-64.5 -115.5t-95 -72t-110 -39t-115.5 -11h-398v29q64 0 87.5 20.5t23.5 68.5v272h-88v38h88v254q0 48 -23.5 68.5t-87.5 20.5v29h396zM397 56q96 0 150.5 89t54.5 244q0 168 -61.5 261.5
t-148.5 93.5q-24 0 -36 -6q-13 -7 -13 -24v-286h139v-38h-139v-292q0 -42 54 -42z" />
    <glyph glyph-name="Ntilde" unicode="&#xd1;" horiz-adv-x="807" 
d="M323 937q-31 0 -44 -18t-23 -56h-29q4 27 6.5 37.5t8.5 38t13.5 41.5t19 32t27.5 26t36 8q35 0 86.5 -37t82.5 -37t44 18t22 56h29q-4 -27 -6.5 -37.5t-8.5 -38t-13.5 -41.5t-19 -32t-27.5 -26t-36 -8q-35 0 -86.5 37t-81.5 37zM798 800v-29q-64 0 -88 -20.5t-24 -68.5
v-684h-102l-399 615v-495q0 -48 25.5 -68.5t95.5 -20.5v-29h-289v29q64 0 87.5 20.5t23.5 68.5v583q-46 70 -105 70v29h294l313 -485v367q0 48 -24 68.5t-88 20.5v29h280z" />
    <glyph glyph-name="Ograve" unicode="&#xd2;" horiz-adv-x="767" 
d="M356 1055l77 -193h-46l-170 193h139zM387 -16q-164 0 -261.5 116.5t-97.5 298.5q0 180 99.5 297t252.5 117q164 0 262 -117t98 -299q0 -180 -100 -296.5t-253 -116.5zM412 43q56 0 82.5 63.5t26.5 150.5q0 86 -10 170.5t-29 159t-52 121t-75 46.5q-56 0 -82.5 -63.5
t-26.5 -150.5q0 -86 10 -170.5t29 -159t52 -121t75 -46.5z" />
    <glyph glyph-name="Oacute" unicode="&#xd3;" horiz-adv-x="767" 
d="M380 862h-46l76 193h139zM387 -16q-164 0 -261.5 116.5t-97.5 298.5q0 180 99.5 297t252.5 117q164 0 262 -117t98 -299q0 -180 -100 -296.5t-253 -116.5zM412 43q56 0 82.5 63.5t26.5 150.5q0 86 -10 170.5t-29 159t-52 121t-75 46.5q-56 0 -82.5 -63.5t-26.5 -150.5
q0 -86 10 -170.5t29 -159t52 -121t75 -46.5z" />
    <glyph glyph-name="Ocircumflex" unicode="&#xd4;" horiz-adv-x="767" 
d="M516 862l-132 129l-132 -129h-47l105 193h147l105 -193h-46zM380 813q164 0 262 -117t98 -299q0 -180 -100 -296.5t-253 -116.5q-164 0 -261.5 116.5t-97.5 298.5q0 180 99.5 297t252.5 117zM412 43q56 0 82.5 63.5t26.5 150.5q0 86 -10 170.5t-29 159t-52 121t-75 46.5
q-56 0 -82.5 -63.5t-26.5 -150.5q0 -86 10 -170.5t29 -159t52 -121t75 -46.5z" />
    <glyph glyph-name="Otilde" unicode="&#xd5;" horiz-adv-x="767" 
d="M460 863q-35 0 -86.5 37t-81.5 37q-31 0 -44 -18t-23 -56h-29q4 27 6.5 37.5t8.5 38t13.5 41.5t19 32t27.5 26t36 8q35 0 86.5 -37t82.5 -37t44 18t22 56h29q-4 -27 -6.5 -37.5t-8.5 -38t-13.5 -41.5t-19 -32t-27.5 -26t-36 -8zM387 -16q-164 0 -261.5 116.5t-97.5 298.5
q0 180 99.5 297t252.5 117q164 0 262 -117t98 -299q0 -180 -100 -296.5t-253 -116.5zM412 43q56 0 82.5 63.5t26.5 150.5q0 86 -10 170.5t-29 159t-52 121t-75 46.5q-56 0 -82.5 -63.5t-26.5 -150.5q0 -86 10 -170.5t29 -159t52 -121t75 -46.5z" />
    <glyph glyph-name="Odieresis" unicode="&#xd6;" horiz-adv-x="767" 
d="M269 848q-34 0 -59 24.5t-25 58.5q0 35 24.5 59.5t59.5 24.5t59 -24.5t24 -59.5q0 -34 -24.5 -58.5t-58.5 -24.5zM499 848q-34 0 -59 24.5t-25 58.5q0 35 24.5 59.5t59.5 24.5t59 -24.5t24 -59.5q0 -34 -24.5 -58.5t-58.5 -24.5zM387 -16q-164 0 -261.5 116.5
t-97.5 298.5q0 180 99.5 297t252.5 117q164 0 262 -117t98 -299q0 -180 -100 -296.5t-253 -116.5zM412 43q56 0 82.5 63.5t26.5 150.5q0 86 -10 170.5t-29 159t-52 121t-75 46.5q-56 0 -82.5 -63.5t-26.5 -150.5q0 -86 10 -170.5t29 -159t52 -121t75 -46.5z" />
    <glyph glyph-name="multiply" unicode="&#xd7;" horiz-adv-x="502" 
d="M168 284l-118 119l83 84l119 -119l117 118l83 -84l-116 -118l116 -116l-84 -83l-116 116l-118 -117l-84 84z" />
    <glyph glyph-name="Oslash" unicode="&#xd8;" horiz-adv-x="767" 
d="M689 886l-87 -150q66 -56 102 -144t36 -195q0 -180 -100 -296.5t-253 -116.5q-105 0 -187 52l-88 -152l-33 17l90 157q-68 55 -104.5 143.5t-36.5 197.5q0 180 99.5 297t252.5 117q111 0 193 -56l84 145zM246 540q0 -163 31 -297l203 352q-46 159 -125 159
q-56 0 -82.5 -63.5t-26.5 -150.5zM412 43q56 0 82.5 63.5t26.5 150.5q0 157 -29 288l-202 -352q46 -150 122 -150z" />
    <glyph glyph-name="Ugrave" unicode="&#xd9;" horiz-adv-x="818" 
d="M445 1055l77 -193h-46l-170 193h139zM415 -16q-146 0 -223.5 80t-77.5 240v378q0 48 -23.5 68.5t-87.5 20.5v29h438v-29q-64 0 -88 -20.5t-24 -68.5v-378q0 -126 36.5 -179t111.5 -53q164 0 164 239v371q0 48 -24 68.5t-88 20.5v29h286v-29q-64 0 -87.5 -20.5
t-23.5 -68.5v-371q0 -73 -14 -129.5t-46 -102.5t-90 -70.5t-139 -24.5z" />
    <glyph glyph-name="Uacute" unicode="&#xda;" horiz-adv-x="818" 
d="M469 862h-46l76 193h139zM415 -16q-146 0 -223.5 80t-77.5 240v378q0 48 -23.5 68.5t-87.5 20.5v29h438v-29q-64 0 -88 -20.5t-24 -68.5v-378q0 -126 36.5 -179t111.5 -53q164 0 164 239v371q0 48 -24 68.5t-88 20.5v29h286v-29q-64 0 -87.5 -20.5t-23.5 -68.5v-371
q0 -73 -14 -129.5t-46 -102.5t-90 -70.5t-139 -24.5z" />
    <glyph glyph-name="Ucircumflex" unicode="&#xdb;" horiz-adv-x="818" 
d="M605 862l-132 129l-132 -129h-47l105 193h147l105 -193h-46zM815 800v-29q-64 0 -87.5 -20.5t-23.5 -68.5v-371q0 -73 -14 -129.5t-46 -102.5t-90 -70.5t-139 -24.5q-146 0 -223.5 80t-77.5 240v378q0 48 -23.5 68.5t-87.5 20.5v29h438v-29q-64 0 -88 -20.5t-24 -68.5
v-378q0 -126 36.5 -179t111.5 -53q164 0 164 239v371q0 48 -24 68.5t-88 20.5v29h286z" />
    <glyph glyph-name="Udieresis" unicode="&#xdc;" horiz-adv-x="818" 
d="M358 848q-34 0 -59 24.5t-25 58.5q0 35 24.5 59.5t59.5 24.5t59 -24.5t24 -59.5q0 -34 -24.5 -58.5t-58.5 -24.5zM588 848q-34 0 -59 24.5t-25 58.5q0 35 24.5 59.5t59.5 24.5t59 -24.5t24 -59.5q0 -34 -24.5 -58.5t-58.5 -24.5zM415 -16q-146 0 -223.5 80t-77.5 240v378
q0 48 -23.5 68.5t-87.5 20.5v29h438v-29q-64 0 -88 -20.5t-24 -68.5v-378q0 -126 36.5 -179t111.5 -53q164 0 164 239v371q0 48 -24 68.5t-88 20.5v29h286v-29q-64 0 -87.5 -20.5t-23.5 -68.5v-371q0 -73 -14 -129.5t-46 -102.5t-90 -70.5t-139 -24.5z" />
    <glyph glyph-name="Yacute" unicode="&#xdd;" horiz-adv-x="760" 
d="M438 862h-46l76 193h139zM494 358v-240q0 -48 24 -68.5t88 -20.5v-29h-438v29q64 0 87.5 20.5t23.5 68.5v234l-174 343q-23 44 -48.5 60t-64.5 16v29h422v-29q-75 0 -90 -18.5t9 -59.5l126 -263h3l127 263q23 41 12 59.5t-73 18.5v29h240v-29q-43 0 -69 -16.5t-48 -61.5z
" />
    <glyph glyph-name="Thorn" unicode="&#xde;" horiz-adv-x="742" 
d="M337 200v-82q0 -48 23.5 -68.5t87.5 -20.5v-29h-431v29q64 0 87.5 20.5t23.5 68.5v564q0 48 -23.5 68.5t-87.5 20.5v29h438v-29q-64 0 -88 -20.5t-24 -68.5v-15h46q329 0 329 -236q0 -123 -79 -185.5t-198 -62.5q-68 0 -104 17zM397 246q59 0 86 53t27 137t-30 129.5
t-87 45.5q-55 0 -55 -32v-319q28 -14 59 -14z" />
    <glyph glyph-name="germandbls" unicode="&#xdf;" horiz-adv-x="693" 
d="M517 400q36 -24 54 -37.5t46.5 -41.5t42 -61t13.5 -73q0 -82 -57 -140.5t-155 -58.5q-42 0 -80 10t-54 20v196h31q0 -73 27 -119t80 -43q33 1 51 21t18 53q0 24 -10 45.5t-34.5 44t-38 32.5t-47.5 34q-47 34 -69 61.5t-22 61.5q0 23 12 43t48 62q34 40 47.5 70.5
t13.5 65.5q0 55 -21.5 86.5t-58.5 31.5q-39 0 -63 -34.5t-24 -105.5v-624h-252v29q49 0 65 18.5t16 70.5v364h-68v49l68 4v33q0 129 75.5 190.5t184.5 61.5q108 0 178.5 -48t70.5 -113q0 -98 -114 -141q-5 -2 -13.5 -5.5t-12.5 -5.5l-10 -5l-9 -4.5t-7 -4t-6 -4.5t-4 -4.5
t-2.5 -5t-0.5 -5.5q0 -10 13.5 -21.5t52.5 -36.5q16 -10 25 -16z" />
    <glyph glyph-name="agrave" unicode="&#xe0;" horiz-adv-x="566" 
d="M241 814l77 -193h-46l-170 193h139zM543 126h29q-7 -71 -38.5 -106t-97.5 -35q-58 0 -91 31.5t-39 105.5h-4q-10 -60 -50.5 -99t-104.5 -39q-59 0 -94 34.5t-35 88.5q0 21 5 40t18 36t23.5 30t33.5 27.5t36 23t43 21l42 17.5t45 18t41 16v58q0 62 -14.5 87.5t-45.5 25.5
q-23 0 -36 -12t-13 -31q0 -10 6.5 -32.5t6.5 -36.5q0 -30 -20.5 -49.5t-58.5 -19.5q-39 0 -60.5 21t-21.5 56q0 64 63 110t162 46q103 0 156.5 -50.5t53.5 -137.5v-271q0 -28 4 -38t16 -10q35 0 40 74zM230 110q23 0 43.5 18t31.5 50v117q-115 -57 -115 -136q0 -49 40 -49z
" />
    <glyph glyph-name="aacute" unicode="&#xe1;" horiz-adv-x="566" 
d="M296 814h139l-169 -193h-46zM543 126h29q-7 -71 -38.5 -106t-97.5 -35q-58 0 -91 31.5t-39 105.5h-4q-10 -60 -50.5 -99t-104.5 -39q-59 0 -94 34.5t-35 88.5q0 21 5 40t18 36t23.5 30t33.5 27.5t36 23t43 21l42 17.5t45 18t41 16v58q0 62 -14.5 87.5t-45.5 25.5
q-23 0 -36 -12t-13 -31q0 -10 6.5 -32.5t6.5 -36.5q0 -30 -20.5 -49.5t-58.5 -19.5q-39 0 -60.5 21t-21.5 56q0 64 63 110t162 46q103 0 156.5 -50.5t53.5 -137.5v-271q0 -28 4 -38t16 -10q35 0 40 74zM230 110q23 0 43.5 18t31.5 50v117q-115 -57 -115 -136q0 -49 40 -49z
" />
    <glyph glyph-name="acircumflex" unicode="&#xe2;" horiz-adv-x="566" 
d="M402 621l-132 129l-132 -129h-47l105 193h147l105 -193h-46zM543 126h29q-7 -71 -38.5 -106t-97.5 -35q-58 0 -91 31.5t-39 105.5h-4q-10 -60 -50.5 -99t-104.5 -39q-59 0 -94 34.5t-35 88.5q0 21 5 40t18 36t23.5 30t33.5 27.5t36 23t43 21l42 17.5t45 18t41 16v58
q0 62 -14.5 87.5t-45.5 25.5q-23 0 -36 -12t-13 -31q0 -10 6.5 -32.5t6.5 -36.5q0 -30 -20.5 -49.5t-58.5 -19.5q-39 0 -60.5 21t-21.5 56q0 64 63 110t162 46q103 0 156.5 -50.5t53.5 -137.5v-271q0 -28 4 -38t16 -10q35 0 40 74zM230 110q23 0 43.5 18t31.5 50v117
q-115 -57 -115 -136q0 -49 40 -49z" />
    <glyph glyph-name="atilde" unicode="&#xe3;" horiz-adv-x="566" 
d="M178 696q-31 0 -44 -18t-23 -56h-29q4 27 6.5 37.5t8.5 38t13.5 41.5t19 32t27.5 26t36 8q35 0 86.5 -37t82.5 -37t44 18t22 56h29q-4 -27 -6.5 -37.5t-8.5 -38t-13.5 -41.5t-19 -32t-27.5 -26t-36 -8q-35 0 -86.5 37t-81.5 37zM543 126h29q-7 -71 -38.5 -106t-97.5 -35
q-58 0 -91 31.5t-39 105.5h-4q-10 -60 -50.5 -99t-104.5 -39q-59 0 -94 34.5t-35 88.5q0 21 5 40t18 36t23.5 30t33.5 27.5t36 23t43 21l42 17.5t45 18t41 16v58q0 62 -14.5 87.5t-45.5 25.5q-23 0 -36 -12t-13 -31q0 -10 6.5 -32.5t6.5 -36.5q0 -30 -20.5 -49.5
t-58.5 -19.5q-39 0 -60.5 21t-21.5 56q0 64 63 110t162 46q103 0 156.5 -50.5t53.5 -137.5v-271q0 -28 4 -38t16 -10q35 0 40 74zM230 110q23 0 43.5 18t31.5 50v117q-115 -57 -115 -136q0 -49 40 -49z" />
    <glyph glyph-name="adieresis" unicode="&#xe4;" horiz-adv-x="566" 
d="M155 607q-34 0 -59 24.5t-25 58.5q0 35 24.5 59.5t59.5 24.5t59 -24.5t24 -59.5q0 -34 -24.5 -58.5t-58.5 -24.5zM385 607q-34 0 -59 24.5t-25 58.5q0 35 24.5 59.5t59.5 24.5t59 -24.5t24 -59.5q0 -34 -24.5 -58.5t-58.5 -24.5zM543 126h29q-7 -71 -38.5 -106t-97.5 -35
q-58 0 -91 31.5t-39 105.5h-4q-10 -60 -50.5 -99t-104.5 -39q-59 0 -94 34.5t-35 88.5q0 21 5 40t18 36t23.5 30t33.5 27.5t36 23t43 21l42 17.5t45 18t41 16v58q0 62 -14.5 87.5t-45.5 25.5q-23 0 -36 -12t-13 -31q0 -10 6.5 -32.5t6.5 -36.5q0 -30 -20.5 -49.5
t-58.5 -19.5q-39 0 -60.5 21t-21.5 56q0 64 63 110t162 46q103 0 156.5 -50.5t53.5 -137.5v-271q0 -28 4 -38t16 -10q35 0 40 74zM230 110q23 0 43.5 18t31.5 50v117q-115 -57 -115 -136q0 -49 40 -49z" />
    <glyph glyph-name="aring" unicode="&#xe5;" horiz-adv-x="566" 
d="M270 625q-49 0 -81 31.5t-32 78.5q0 46 32 77t81 31q47 0 79 -31t32 -77q0 -47 -32 -78.5t-79 -31.5zM270 796q-28 0 -46.5 -17t-18.5 -44q0 -28 18.5 -45.5t46.5 -17.5q27 0 45.5 18t18.5 45t-18.5 44t-45.5 17zM543 126h29q-7 -71 -38.5 -106t-97.5 -35q-58 0 -91 31.5
t-39 105.5h-4q-10 -60 -50.5 -99t-104.5 -39q-59 0 -94 34.5t-35 88.5q0 21 5 40t18 36t23.5 30t33.5 27.5t36 23t43 21l42 17.5t45 18t41 16v58q0 62 -14.5 87.5t-45.5 25.5q-23 0 -36 -12t-13 -31q0 -10 6.5 -32.5t6.5 -36.5q0 -30 -20.5 -49.5t-58.5 -19.5
q-39 0 -60.5 21t-21.5 56q0 64 63 110t162 46q103 0 156.5 -50.5t53.5 -137.5v-271q0 -28 4 -38t16 -10q35 0 40 74zM230 110q23 0 43.5 18t31.5 50v117q-115 -57 -115 -136q0 -49 40 -49z" />
    <glyph glyph-name="ae" unicode="&#xe6;" horiz-adv-x="771" 
d="M717 220h28q-21 -122 -77 -179t-149 -57q-71 0 -123.5 35t-79.5 102h-2q-31 -137 -170 -137q-55 0 -90.5 34.5t-35.5 93.5q0 33 18 62.5t37 48t64.5 42t65 31.5t74.5 29q13 5 20 8v62q0 112 -55 112q-23 0 -36.5 -11.5t-13.5 -28.5q0 -14 6.5 -35.5t6.5 -38.5
q0 -29 -21 -48t-59 -19q-39 0 -60 20.5t-21 56.5q0 64 62.5 110t167.5 46q82 0 133 -40q53 39 121 39q110 0 162 -75.5t52 -192.5h-270v-34q15 -153 124 -153q37 0 70.5 28t50.5 89zM524 501q-28 0 -39.5 -23.5t-14.5 -77.5q2 -18 2 -28v-26h99q0 87 -8.5 121t-38.5 34z
M230 110q44 0 73 56q-10 40 -10 93v20q-103 -54 -103 -119q0 -50 40 -50z" />
    <glyph glyph-name="ccedilla" unicode="&#xe7;" horiz-adv-x="489" 
d="M284 -14l-12 -21q132 -9 132 -100q0 -53 -46 -83.5t-108 -33t-126 5.5l6 29q155 -18 155 69q0 38 -30 58t-79 21l43 55q-92 12 -144 84t-52 187q0 133 69 217t184 84q77 0 128 -38.5t51 -104.5q0 -41 -20.5 -65t-58.5 -24q-33 0 -53.5 19.5t-20.5 49.5q0 11 4 32t4 31
q0 42 -36 42q-70 0 -70 -172q0 -221 122 -221q90 0 115 127h29q-19 -228 -186 -248z" />
    <glyph glyph-name="egrave" unicode="&#xe8;" horiz-adv-x="501" 
d="M231 814l77 -193h-46l-170 193h139zM447 220h29q-21 -122 -77 -179t-149 -57q-103 0 -165 71.5t-62 203.5q0 123 64 211t171 88q75 0 125 -38.5t69.5 -96.5t19.5 -133h-272q4 -94 34.5 -140.5t92.5 -46.5q37 0 70 28t50 89zM255 501q-34 0 -44.5 -34t-11.5 -121h102
q0 88 -8 121.5t-38 33.5z" />
    <glyph glyph-name="eacute" unicode="&#xe9;" horiz-adv-x="501" 
d="M285 814h139l-169 -193h-46zM447 220h29q-21 -122 -77 -179t-149 -57q-103 0 -165 71.5t-62 203.5q0 123 64 211t171 88q75 0 125 -38.5t69.5 -96.5t19.5 -133h-272q4 -94 34.5 -140.5t92.5 -46.5q37 0 70 28t50 89zM255 501q-34 0 -44.5 -34t-11.5 -121h102
q0 88 -8 121.5t-38 33.5z" />
    <glyph glyph-name="ecircumflex" unicode="&#xea;" horiz-adv-x="501" 
d="M391 621l-132 129l-132 -129h-47l105 193h147l105 -193h-46zM447 220h29q-21 -122 -77 -179t-149 -57q-103 0 -165 71.5t-62 203.5q0 123 64 211t171 88q75 0 125 -38.5t69.5 -96.5t19.5 -133h-272q4 -94 34.5 -140.5t92.5 -46.5q37 0 70 28t50 89zM255 501
q-34 0 -44.5 -34t-11.5 -121h102q0 88 -8 121.5t-38 33.5z" />
    <glyph glyph-name="edieresis" unicode="&#xeb;" horiz-adv-x="501" 
d="M144 607q-34 0 -59 24.5t-25 58.5q0 35 24.5 59.5t59.5 24.5t59 -24.5t24 -59.5q0 -34 -24.5 -58.5t-58.5 -24.5zM374 607q-34 0 -59 24.5t-25 58.5q0 35 24.5 59.5t59.5 24.5t59 -24.5t24 -59.5q0 -34 -24.5 -58.5t-58.5 -24.5zM447 220h29q-21 -122 -77 -179t-149 -57
q-103 0 -165 71.5t-62 203.5q0 123 64 211t171 88q75 0 125 -38.5t69.5 -96.5t19.5 -133h-272q4 -94 34.5 -140.5t92.5 -46.5q37 0 70 28t50 89zM255 501q-34 0 -44.5 -34t-11.5 -121h102q0 88 -8 121.5t-38 33.5z" />
    <glyph glyph-name="igrave" unicode="&#xec;" horiz-adv-x="371" 
d="M153 814l77 -193h-46l-170 193h139zM23 0v29q49 0 65 18.5t16 70.5l-1 255q0 33 -1 47t-7.5 24.5t-19 9t-35.5 -10.5l-12 29l229 92l26 -23v-423q0 -52 16 -70.5t64 -18.5v-29h-340z" />
    <glyph glyph-name="iacute" unicode="&#xed;" horiz-adv-x="371" 
d="M177 621h-46l76 193h139zM23 0v29q49 0 65 18.5t16 70.5l-1 255q0 33 -1 47t-7.5 24.5t-19 9t-35.5 -10.5l-12 29l229 92l26 -23v-423q0 -52 16 -70.5t64 -18.5v-29h-340z" />
    <glyph glyph-name="icircumflex" unicode="&#xee;" horiz-adv-x="371" 
d="M314 621l-132 129l-132 -129h-47l105 193h147l105 -193h-46zM283 541v-423q0 -52 16 -70.5t64 -18.5v-29h-340v29q49 0 65 18.5t16 70.5l-1 255q0 33 -1 47t-7.5 24.5t-19 9t-35.5 -10.5l-12 29l229 92z" />
    <glyph glyph-name="idieresis" unicode="&#xef;" horiz-adv-x="371" 
d="M67 607q-34 0 -59 24.5t-25 58.5q0 35 24.5 59.5t59.5 24.5t59 -24.5t24 -59.5q0 -34 -24.5 -58.5t-58.5 -24.5zM297 607q-34 0 -59 24.5t-25 58.5q0 35 24.5 59.5t59.5 24.5t59 -24.5t24 -59.5q0 -34 -24.5 -58.5t-58.5 -24.5zM23 0v29q49 0 65 18.5t16 70.5l-1 255
q0 33 -1 47t-7.5 24.5t-19 9t-35.5 -10.5l-12 29l229 92l26 -23v-423q0 -52 16 -70.5t64 -18.5v-29h-340z" />
    <glyph glyph-name="eth" unicode="&#xf0;" horiz-adv-x="578" 
d="M462 758l-109 -63q202 -151 202 -382q0 -159 -80 -244t-199 -85t-186 79t-67 201q0 120 60.5 198t156.5 78q69 0 107 -51q-23 89 -72 160l-107 -62l-14 25l104 61q-48 62 -125 118v29q115 -52 194 -106l120 70zM291 45q26 0 42.5 16t24 51t9.5 71.5t2 97.5q0 90 -10 153
q-24 50 -66 50q-27 0 -45 -15.5t-26.5 -46t-11.5 -62t-3 -77.5q0 -238 84 -238z" />
    <glyph glyph-name="ntilde" unicode="&#xf1;" horiz-adv-x="682" 
d="M448 623q-35 0 -86.5 37t-81.5 37q-31 0 -44 -18t-23 -56h-29q4 27 6.5 37.5t8.5 38t13.5 41.5t19 32t27.5 26t36 8q35 0 86.5 -37t82.5 -37t44 18t22 56h29q-4 -27 -6.5 -37.5t-8.5 -38t-13.5 -41.5t-19 -32t-27.5 -26t-36 -8zM25 0v29q44 0 58.5 18t14.5 71v256
q0 33 -1 47t-7.5 24.5t-19 9t-35.5 -11.5l-12 29l225 92l30 -23v-107h3q41 60 85.5 92.5t103.5 32.5q58 0 93 -40.5t35 -126.5v-274q0 -53 13.5 -71t55.5 -18v-29h-305v29q34 0 45 18t11 71v263q0 68 -45 68q-49 0 -95 -73v-258q0 -53 11 -71t45 -18v-29h-309z" />
    <glyph glyph-name="ograve" unicode="&#xf2;" horiz-adv-x="586" 
d="M254 814l77 -193h-46l-170 193h139zM293 -16q-127 0 -198.5 75.5t-71.5 208.5q0 131 72.5 210.5t197.5 79.5q126 0 198 -75t72 -208q0 -131 -72.5 -211t-197.5 -80zM312 47q34 0 49.5 40.5t15.5 95.5q0 118 -26.5 215t-76.5 97q-34 0 -49.5 -40.5t-15.5 -95.5
q0 -118 26.5 -215t76.5 -97z" />
    <glyph glyph-name="oacute" unicode="&#xf3;" horiz-adv-x="586" 
d="M278 621h-46l76 193h139zM293 -16q-127 0 -198.5 75.5t-71.5 208.5q0 131 72.5 210.5t197.5 79.5q126 0 198 -75t72 -208q0 -131 -72.5 -211t-197.5 -80zM312 47q34 0 49.5 40.5t15.5 95.5q0 118 -26.5 215t-76.5 97q-34 0 -49.5 -40.5t-15.5 -95.5q0 -118 26.5 -215
t76.5 -97z" />
    <glyph glyph-name="ocircumflex" unicode="&#xf4;" horiz-adv-x="586" 
d="M415 621l-132 129l-132 -129h-47l105 193h147l105 -193h-46zM293 558q126 0 198 -75t72 -208q0 -131 -72.5 -211t-197.5 -80q-127 0 -198.5 75.5t-71.5 208.5q0 131 72.5 210.5t197.5 79.5zM312 47q34 0 49.5 40.5t15.5 95.5q0 118 -26.5 215t-76.5 97q-34 0 -49.5 -40.5
t-15.5 -95.5q0 -118 26.5 -215t76.5 -97z" />
    <glyph glyph-name="otilde" unicode="&#xf5;" horiz-adv-x="586" 
d="M359 622q-35 0 -86.5 37t-81.5 37q-31 0 -44 -18t-23 -56h-29q4 27 6.5 37.5t8.5 38t13.5 41.5t19 32t27.5 26t36 8q35 0 86.5 -37t82.5 -37t44 18t22 56h29q-4 -27 -6.5 -37.5t-8.5 -38t-13.5 -41.5t-19 -32t-27.5 -26t-36 -8zM293 -16q-127 0 -198.5 75.5t-71.5 208.5
q0 131 72.5 210.5t197.5 79.5q126 0 198 -75t72 -208q0 -131 -72.5 -211t-197.5 -80zM312 47q34 0 49.5 40.5t15.5 95.5q0 118 -26.5 215t-76.5 97q-34 0 -49.5 -40.5t-15.5 -95.5q0 -118 26.5 -215t76.5 -97z" />
    <glyph glyph-name="odieresis" unicode="&#xf6;" horiz-adv-x="586" 
d="M168 607q-34 0 -59 24.5t-25 58.5q0 35 24.5 59.5t59.5 24.5t59 -24.5t24 -59.5q0 -34 -24.5 -58.5t-58.5 -24.5zM398 607q-34 0 -59 24.5t-25 58.5q0 35 24.5 59.5t59.5 24.5t59 -24.5t24 -59.5q0 -34 -24.5 -58.5t-58.5 -24.5zM293 -16q-127 0 -198.5 75.5t-71.5 208.5
q0 131 72.5 210.5t197.5 79.5q126 0 198 -75t72 -208q0 -131 -72.5 -211t-197.5 -80zM312 47q34 0 49.5 40.5t15.5 95.5q0 118 -26.5 215t-76.5 97q-34 0 -49.5 -40.5t-15.5 -95.5q0 -118 26.5 -215t76.5 -97z" />
    <glyph glyph-name="divide" unicode="&#xf7;" horiz-adv-x="528" 
d="M264 445q-25 0 -43 18.5t-18 44.5q0 25 18 44t43 19t43 -19t18 -44q0 -26 -18 -44.5t-43 -18.5zM478 241h-428v118h428v-118zM264 30q-25 0 -43 18.5t-18 44.5q0 25 18 44t43 19t43 -19t18 -44q0 -26 -18 -44.5t-43 -18.5z" />
    <glyph glyph-name="oslash" unicode="&#xf8;" horiz-adv-x="587" 
d="M504 601l-50 -86q110 -74 110 -240q0 -131 -72.5 -211t-197.5 -80q-76 0 -131 27l-52 -91l-27 18l51 88q-111 73 -111 242q0 131 72.5 210.5t197.5 79.5q76 0 132 -27l51 88zM210 359q0 -95 16 -174l125 215q-29 95 -76 95q-34 0 -49.5 -40.5t-15.5 -95.5zM312 47
q35 0 50.5 40.5t15.5 95.5q0 93 -16 172l-124 -216q27 -92 74 -92z" />
    <glyph glyph-name="ugrave" unicode="&#xf9;" horiz-adv-x="646" 
d="M286 814l77 -193h-46l-170 193h139zM426 -17l-36 27v97h-3q-19 -30 -32 -47t-34 -37t-47 -29.5t-59 -9.5q-60 0 -98.5 43.5t-38.5 120.5v238q0 55 -12 68t-58 -1l-8 28l238 72l19 -17v-372q0 -41 10.5 -58.5t34.5 -17.5q39 0 88 75v223q0 55 -12 68t-58 -1l-8 28l239 72
l18 -17v-375q0 -32 1.5 -47t8.5 -25.5t20.5 -9.5t37.5 9l10 -30z" />
    <glyph glyph-name="uacute" unicode="&#xfa;" horiz-adv-x="646" 
d="M311 621h-46l76 193h139zM426 -17l-36 27v97h-3q-19 -30 -32 -47t-34 -37t-47 -29.5t-59 -9.5q-60 0 -98.5 43.5t-38.5 120.5v238q0 55 -12 68t-58 -1l-8 28l238 72l19 -17v-372q0 -41 10.5 -58.5t34.5 -17.5q39 0 88 75v223q0 55 -12 68t-58 -1l-8 28l239 72l18 -17
v-375q0 -32 1.5 -47t8.5 -25.5t20.5 -9.5t37.5 9l10 -30z" />
    <glyph glyph-name="ucircumflex" unicode="&#xfb;" horiz-adv-x="646" 
d="M447 621l-132 129l-132 -129h-47l105 193h147l105 -193h-46zM637 88l10 -30l-221 -75l-36 27v97h-3q-19 -30 -32 -47t-34 -37t-47 -29.5t-59 -9.5q-60 0 -98.5 43.5t-38.5 120.5v238q0 55 -12 68t-58 -1l-8 28l238 72l19 -17v-372q0 -41 10.5 -58.5t34.5 -17.5
q39 0 88 75v223q0 55 -12 68t-58 -1l-8 28l239 72l18 -17v-375q0 -32 1.5 -47t8.5 -25.5t20.5 -9.5t37.5 9z" />
    <glyph glyph-name="udieresis" unicode="&#xfc;" horiz-adv-x="646" 
d="M200 607q-34 0 -59 24.5t-25 58.5q0 35 24.5 59.5t59.5 24.5t59 -24.5t24 -59.5q0 -34 -24.5 -58.5t-58.5 -24.5zM430 607q-34 0 -59 24.5t-25 58.5q0 35 24.5 59.5t59.5 24.5t59 -24.5t24 -59.5q0 -34 -24.5 -58.5t-58.5 -24.5zM426 -17l-36 27v97h-3q-19 -30 -32 -47
t-34 -37t-47 -29.5t-59 -9.5q-60 0 -98.5 43.5t-38.5 120.5v238q0 55 -12 68t-58 -1l-8 28l238 72l19 -17v-372q0 -41 10.5 -58.5t34.5 -17.5q39 0 88 75v223q0 55 -12 68t-58 -1l-8 28l239 72l18 -17v-375q0 -32 1.5 -47t8.5 -25.5t20.5 -9.5t37.5 9l10 -30z" />
    <glyph glyph-name="yacute" unicode="&#xfd;" horiz-adv-x="568" 
d="M293 621h-46l76 193h139zM126 -236q-42 0 -70 25t-28 66q0 40 23 62t58 22t69 -36q21 -24 44 -24q27 0 33 47q0 26 -38 140l-123 360q-16 48 -36 65.5t-52 17.5v29h320v-29q-45 0 -52 -17.5t10 -67.5l61 -209h7l66 210q18 50 12 67t-48 17v29h179v-29q-31 0 -50.5 -17.5
t-35.5 -65.5l-144 -436q-38 -116 -83 -169t-122 -57z" />
    <glyph glyph-name="thorn" unicode="&#xfe;" horiz-adv-x="636" 
d="M436 558q83 0 130 -70t47 -195q0 -148 -62 -225.5t-148 -77.5q-40 0 -77 16.5t-57 48.5h-2v-157q0 -53 15.5 -71t64.5 -18v-29h-340v29q49 0 64.5 18t15.5 71v724q0 31 -1 43t-7.5 20.5t-19 5t-37.5 -16.5l-14 26l236 120l23 -19v-348h4q76 105 165 105zM340 62
q71 0 71 205q0 100 -17 141.5t-50 41.5q-43 0 -77 -62v-170q0 -78 21 -117t52 -39z" />
    <glyph glyph-name="ydieresis" unicode="&#xff;" horiz-adv-x="568" 
d="M183 607q-34 0 -59 24.5t-25 58.5q0 35 24.5 59.5t59.5 24.5t59 -24.5t24 -59.5q0 -34 -24.5 -58.5t-58.5 -24.5zM413 607q-34 0 -59 24.5t-25 58.5q0 35 24.5 59.5t59.5 24.5t59 -24.5t24 -59.5q0 -34 -24.5 -58.5t-58.5 -24.5zM126 -236q-42 0 -70 25t-28 66
q0 40 23 62t58 22t69 -36q21 -24 44 -24q27 0 33 47q0 26 -38 140l-123 360q-16 48 -36 65.5t-52 17.5v29h320v-29q-45 0 -52 -17.5t10 -67.5l61 -209h7l66 210q18 50 12 67t-48 17v29h179v-29q-31 0 -50.5 -17.5t-35.5 -65.5l-144 -436q-38 -116 -83 -169t-122 -57z" />
    <glyph glyph-name="Amacron" unicode="&#x100;" horiz-adv-x="786" 
d="M222 963h343v-71h-343v71zM439 807l250 -696q18 -48 44.5 -65t77.5 -17v-29h-423v29q68 0 84 18.5t2 65.5l-35 110h-246l-37 -111q-18 -44 -2.5 -63.5t81.5 -19.5v-29h-259v29q51 0 77 17.5t43 65.5l242 695h101zM318 593l-107 -318h212l-101 318h-4z" />
    <glyph glyph-name="amacron" unicode="&#x101;" horiz-adv-x="566" 
d="M98 722h343v-71h-343v71zM543 126h29q-7 -71 -38.5 -106t-97.5 -35q-58 0 -91 31.5t-39 105.5h-4q-10 -60 -50.5 -99t-104.5 -39q-59 0 -94 34.5t-35 88.5q0 21 5 40t18 36t23.5 30t33.5 27.5t36 23t43 21l42 17.5t45 18t41 16v58q0 62 -14.5 87.5t-45.5 25.5
q-23 0 -36 -12t-13 -31q0 -10 6.5 -32.5t6.5 -36.5q0 -30 -20.5 -49.5t-58.5 -19.5q-39 0 -60.5 21t-21.5 56q0 64 63 110t162 46q103 0 156.5 -50.5t53.5 -137.5v-271q0 -28 4 -38t16 -10q35 0 40 74zM230 110q23 0 43.5 18t31.5 50v117q-115 -57 -115 -136q0 -49 40 -49z
" />
    <glyph glyph-name="Abreve" unicode="&#x102;" horiz-adv-x="786" 
d="M394 867q-68 0 -113.5 46.5t-54.5 145.5h29q12 -42 50.5 -63.5t88.5 -21.5t88 21.5t50 63.5h29q-9 -99 -54.5 -145.5t-112.5 -46.5zM439 807l250 -696q18 -48 44.5 -65t77.5 -17v-29h-423v29q68 0 84 18.5t2 65.5l-35 110h-246l-37 -111q-18 -44 -2.5 -63.5t81.5 -19.5
v-29h-259v29q51 0 77 17.5t43 65.5l242 695h101zM318 593l-107 -318h212l-101 318h-4z" />
    <glyph glyph-name="abreve" unicode="&#x103;" horiz-adv-x="566" 
d="M270 626q-68 0 -113.5 46.5t-54.5 145.5h29q12 -42 50.5 -63.5t88.5 -21.5t88 21.5t50 63.5h29q-9 -99 -54.5 -145.5t-112.5 -46.5zM543 126h29q-7 -71 -38.5 -106t-97.5 -35q-58 0 -91 31.5t-39 105.5h-4q-10 -60 -50.5 -99t-104.5 -39q-59 0 -94 34.5t-35 88.5
q0 21 5 40t18 36t23.5 30t33.5 27.5t36 23t43 21l42 17.5t45 18t41 16v58q0 62 -14.5 87.5t-45.5 25.5q-23 0 -36 -12t-13 -31q0 -10 6.5 -32.5t6.5 -36.5q0 -30 -20.5 -49.5t-58.5 -19.5q-39 0 -60.5 21t-21.5 56q0 64 63 110t162 46q103 0 156.5 -50.5t53.5 -137.5v-271
q0 -28 4 -38t16 -10q35 0 40 74zM230 110q23 0 43.5 18t31.5 50v117q-115 -57 -115 -136q0 -49 40 -49z" />
    <glyph glyph-name="Aogonek" unicode="&#x104;" horiz-adv-x="786" 
d="M811 0h-118q-37 -45 -51.5 -71.5t-14.5 -57.5q0 -62 58 -62q30 0 87 23l6 -29q-67 -59 -147 -59q-50 0 -86.5 25.5t-36.5 76.5q0 32 19 58t42.5 39.5t52.5 30t40 26.5h-274v29q68 0 84 18.5t2 65.5l-35 110h-246l-37 -111q-18 -44 -2.5 -63.5t81.5 -19.5v-29h-259v29
q51 0 77 17.5t43 65.5l242 695h101l250 -696q18 -48 44.5 -65t77.5 -17v-29zM318 593l-107 -318h212l-101 318h-4z" />
    <glyph glyph-name="aogonek" unicode="&#x105;" horiz-adv-x="566" 
d="M475 -199q30 0 87 23l6 -29q-67 -59 -147 -59q-50 0 -86.5 25.5t-36.5 76.5q0 39 23 65.5t70 52t53 29.5h-8q-58 0 -91 31.5t-39 105.5h-4q-10 -60 -50.5 -99t-104.5 -39q-59 0 -94 34.5t-35 88.5q0 21 5 40t18 36t23.5 30t33.5 27.5t36 23t43 21l42 17.5t45 18t41 16v58
q0 62 -14.5 87.5t-45.5 25.5q-23 0 -36 -12t-13 -31q0 -10 6.5 -32.5t6.5 -36.5q0 -30 -20.5 -49.5t-58.5 -19.5q-39 0 -60.5 21t-21.5 56q0 64 63 110t162 46q103 0 156.5 -50.5t53.5 -137.5v-271q0 -28 4 -38t16 -10q35 0 40 74h29q-11 -115 -90 -136q-36 -43 -50.5 -69.5
t-14.5 -57.5q0 -62 58 -62zM230 110q23 0 43.5 18t31.5 50v117q-115 -57 -115 -136q0 -49 40 -49z" />
    <glyph glyph-name="Cacute" unicode="&#x106;" horiz-adv-x="719" 
d="M394 862h-46l76 193h139zM28 385q0 189 104 310t265 121q106 0 182 -64q10 -9 17 -6t9 15l7 47h29l15 -294h-29q-22 114 -70 177t-117 63q-85 0 -133 -93t-48 -249q0 -155 48.5 -242.5t137.5 -87.5q78 0 129 68t68 178h34q-28 -344 -301 -344q-164 0 -255.5 112.5
t-91.5 288.5z" />
    <glyph glyph-name="cacute" unicode="&#x107;" horiz-adv-x="489" 
d="M269 621h-46l76 193h139zM252 -16q-106 0 -167.5 73.5t-61.5 199.5q0 133 69 217t184 84q77 0 128 -38.5t51 -104.5q0 -41 -20.5 -65t-58.5 -24q-33 0 -53.5 19.5t-20.5 49.5q0 11 4 32t4 31q0 42 -36 42q-70 0 -70 -172q0 -221 122 -221q90 0 115 127h29
q-10 -127 -67.5 -188.5t-150.5 -61.5z" />
    <glyph glyph-name="Cdotaccent" unicode="&#x10a;" horiz-adv-x="719" 
d="M398 848q-34 0 -59 24.5t-25 58.5q0 35 24.5 59.5t59.5 24.5t59.5 -24.5t24.5 -59.5q0 -34 -25 -58.5t-59 -24.5zM28 385q0 189 104 310t265 121q106 0 182 -64q10 -9 17 -6t9 15l7 47h29l15 -294h-29q-22 114 -70 177t-117 63q-85 0 -133 -93t-48 -249
q0 -155 48.5 -242.5t137.5 -87.5q78 0 129 68t68 178h34q-28 -344 -301 -344q-164 0 -255.5 112.5t-91.5 288.5z" />
    <glyph glyph-name="cdotaccent" unicode="&#x10b;" horiz-adv-x="489" 
d="M273 607q-34 0 -59 24.5t-25 58.5q0 35 24.5 59.5t59.5 24.5t59.5 -24.5t24.5 -59.5q0 -34 -25 -58.5t-59 -24.5zM252 -16q-106 0 -167.5 73.5t-61.5 199.5q0 133 69 217t184 84q77 0 128 -38.5t51 -104.5q0 -41 -20.5 -65t-58.5 -24q-33 0 -53.5 19.5t-20.5 49.5
q0 11 4 32t4 31q0 42 -36 42q-70 0 -70 -172q0 -221 122 -221q90 0 115 127h29q-10 -127 -67.5 -188.5t-150.5 -61.5z" />
    <glyph glyph-name="Ccaron" unicode="&#x10c;" horiz-adv-x="719" 
d="M325 864l-105 194h46l132 -130l132 130h47l-105 -194h-147zM642 328h34q-28 -344 -301 -344q-164 0 -255.5 112.5t-91.5 288.5q0 189 104 310t265 121q106 0 182 -64q10 -9 17 -6t9 15l7 47h29l15 -294h-29q-22 114 -70 177t-117 63q-85 0 -133 -93t-48 -249
q0 -155 48.5 -242.5t137.5 -87.5q78 0 129 68t68 178z" />
    <glyph glyph-name="ccaron" unicode="&#x10d;" horiz-adv-x="489" 
d="M199 623l-105 194h46l132 -130l132 130h47l-105 -194h-147zM441 234h29q-10 -127 -67.5 -188.5t-150.5 -61.5q-106 0 -167.5 73.5t-61.5 199.5q0 133 69 217t184 84q77 0 128 -38.5t51 -104.5q0 -41 -20.5 -65t-58.5 -24q-33 0 -53.5 19.5t-20.5 49.5q0 11 4 32t4 31
q0 42 -36 42q-70 0 -70 -172q0 -221 122 -221q90 0 115 127z" />
    <glyph glyph-name="Dcaron" unicode="&#x10e;" horiz-adv-x="848" 
d="M344 864l-105 194h46l132 -130l132 130h47l-105 -194h-147zM413 800q62 0 117.5 -11t111 -39t95 -72t64 -115t24.5 -162q0 -92 -25 -163.5t-64.5 -115.5t-95 -72t-110 -39t-115.5 -11h-398v29q64 0 87.5 20.5t23.5 68.5v564q0 48 -23.5 68.5t-87.5 20.5v29h396zM397 56
q96 0 150.5 89t54.5 244q0 168 -61.5 261.5t-148.5 93.5q-24 0 -36 -6q-13 -7 -13 -24v-616q0 -42 54 -42z" />
    <glyph glyph-name="dcaron" unicode="&#x10f;" horiz-adv-x="621" 
d="M540 810v-649q0 -32 1.5 -46.5t8.5 -25t20 -9.5t37 9l11 -29l-222 -77l-36 27v86h-3q-23 -52 -63.5 -82t-93.5 -30q-78 0 -127.5 68.5t-49.5 195.5q0 149 62 229.5t153 80.5q82 0 122 -53v122q0 32 -1 43.5t-6.5 21t-17.5 6t-35 -15.5l-13 25l234 122zM590 613v206h129
l-83 -206h-46zM287 93q41 0 73 61v158q0 67 -18 117t-54 50q-75 0 -75 -199q0 -187 74 -187z" />
    <glyph glyph-name="Dcroat" unicode="&#x110;" horiz-adv-x="848" 
d="M413 800q62 0 117.5 -11t111 -39t95 -72t64 -115t24.5 -162q0 -92 -25 -163.5t-64.5 -115.5t-95 -72t-110 -39t-115.5 -11h-398v29q64 0 87.5 20.5t23.5 68.5v272h-88v38h88v254q0 48 -23.5 68.5t-87.5 20.5v29h396zM397 56q96 0 150.5 89t54.5 244q0 168 -61.5 261.5
t-148.5 93.5q-24 0 -36 -6q-13 -7 -13 -24v-286h139v-38h-139v-292q0 -42 54 -42z" />
    <glyph glyph-name="dcroat" unicode="&#x111;" horiz-adv-x="645" 
d="M629 625v-29h-89v-435q0 -32 1.5 -46.5t8.5 -25t20 -9.5t37 9l11 -29l-222 -77l-36 27v86h-3q-23 -52 -63.5 -82t-93.5 -30q-78 0 -127.5 68.5t-49.5 195.5q0 149 62 229.5t153 80.5q82 0 122 -53v91h-182v29h182v2q0 32 -1 43.5t-6.5 21t-17.5 6t-35 -15.5l-13 25
l234 122l19 -19v-185h89zM287 93q41 0 73 61v158q0 67 -18 117t-54 50q-75 0 -75 -199q0 -187 74 -187z" />
    <glyph glyph-name="Emacron" unicode="&#x112;" horiz-adv-x="691" 
d="M185 892v71h343v-71h-343zM612 800l5 -51l20 -176l-31 -3q-11 92 -38.5 128.5t-79.5 36.5h-88q-57 0 -57 -57v-246h69q44 0 63 26.5t19 96.5h26v-293h-26q0 70 -19 96.5t-63 26.5h-69v-263q0 -35 9 -46t38 -11h96q56 0 91.5 44t61.5 153l33 -8l-48 -206l-11 -48h-596v29
q64 0 87.5 20.5t23.5 68.5v564q0 48 -23.5 68.5t-87.5 20.5v29h595z" />
    <glyph glyph-name="emacron" unicode="&#x113;" horiz-adv-x="501" 
d="M87 722h343v-71h-343v71zM447 220h29q-21 -122 -77 -179t-149 -57q-103 0 -165 71.5t-62 203.5q0 123 64 211t171 88q75 0 125 -38.5t69.5 -96.5t19.5 -133h-272q4 -94 34.5 -140.5t92.5 -46.5q37 0 70 28t50 89zM255 501q-34 0 -44.5 -34t-11.5 -121h102q0 88 -8 121.5
t-38 33.5z" />
    <glyph glyph-name="Edotaccent" unicode="&#x116;" horiz-adv-x="691" 
d="M357 848q-34 0 -59 24.5t-25 58.5q0 35 24.5 59.5t59.5 24.5t59.5 -24.5t24.5 -59.5q0 -34 -25 -58.5t-59 -24.5zM612 800l5 -51l20 -176l-31 -3q-11 92 -38.5 128.5t-79.5 36.5h-88q-57 0 -57 -57v-246h69q44 0 63 26.5t19 96.5h26v-293h-26q0 70 -19 96.5t-63 26.5h-69
v-263q0 -35 9 -46t38 -11h96q56 0 91.5 44t61.5 153l33 -8l-48 -206l-11 -48h-596v29q64 0 87.5 20.5t23.5 68.5v564q0 48 -23.5 68.5t-87.5 20.5v29h595z" />
    <glyph glyph-name="edotaccent" unicode="&#x117;" horiz-adv-x="501" 
d="M259 607q-34 0 -59 24.5t-25 58.5q0 35 24.5 59.5t59.5 24.5t59.5 -24.5t24.5 -59.5q0 -34 -25 -58.5t-59 -24.5zM447 220h29q-21 -122 -77 -179t-149 -57q-103 0 -165 71.5t-62 203.5q0 123 64 211t171 88q75 0 125 -38.5t69.5 -96.5t19.5 -133h-272q4 -94 34.5 -140.5
t92.5 -46.5q37 0 70 28t50 89zM255 501q-34 0 -44.5 -34t-11.5 -121h102q0 88 -8 121.5t-38 33.5z" />
    <glyph glyph-name="Eogonek" unicode="&#x118;" horiz-adv-x="691" 
d="M693 -168l6 -29q-67 -59 -147 -59q-50 0 -86.5 25.5t-36.5 76.5q0 32 19 58t42.5 39.5t52.5 30t40 26.5h-566v29q64 0 87.5 20.5t23.5 68.5v564q0 48 -23.5 68.5t-87.5 20.5v29h595l5 -51l20 -176l-31 -3q-11 92 -38.5 128.5t-79.5 36.5h-88q-57 0 -57 -57v-246h69
q44 0 63 26.5t19 96.5h26v-293h-26q0 70 -19 96.5t-63 26.5h-69v-263q0 -35 9 -46t38 -11h96q56 0 91.5 44t61.5 153l33 -8l-48 -206l-11 -48h1q-37 -45 -51.5 -71.5t-14.5 -57.5q0 -62 58 -62q30 0 87 23z" />
    <glyph glyph-name="eogonek" unicode="&#x119;" horiz-adv-x="501" 
d="M326 -192q30 0 87 23l6 -29q-67 -59 -147 -59q-50 0 -86.5 25.5t-36.5 76.5q0 23 9 42.5t26 34t32 24.5t38 22t32 18q-22 -2 -36 -2q-103 0 -165 71.5t-62 203.5q0 123 64 211t171 88q75 0 125 -38.5t69.5 -96.5t19.5 -133h-272q4 -94 34.5 -140.5t92.5 -46.5q37 0 70 28
t50 89h29q-32 -180 -143 -222q-26 -33 -36 -47.5t-19.5 -36.5t-9.5 -44q0 -62 58 -62zM255 501q-34 0 -44.5 -34t-11.5 -121h102q0 88 -8 121.5t-38 33.5z" />
    <glyph glyph-name="Ecaron" unicode="&#x11a;" horiz-adv-x="691" 
d="M283 864l-105 194h46l132 -130l132 130h47l-105 -194h-147zM639 262l33 -8l-48 -206l-11 -48h-596v29q64 0 87.5 20.5t23.5 68.5v564q0 48 -23.5 68.5t-87.5 20.5v29h595l5 -51l20 -176l-31 -3q-11 92 -38.5 128.5t-79.5 36.5h-88q-57 0 -57 -57v-246h69q44 0 63 26.5
t19 96.5h26v-293h-26q0 70 -19 96.5t-63 26.5h-69v-263q0 -35 9 -46t38 -11h96q56 0 91.5 44t61.5 153z" />
    <glyph glyph-name="ecaron" unicode="&#x11b;" horiz-adv-x="501" 
d="M186 623l-105 194h46l132 -130l132 130h47l-105 -194h-147zM447 220h29q-21 -122 -77 -179t-149 -57q-103 0 -165 71.5t-62 203.5q0 123 64 211t171 88q75 0 125 -38.5t69.5 -96.5t19.5 -133h-272q4 -94 34.5 -140.5t92.5 -46.5q37 0 70 28t50 89zM255 501
q-34 0 -44.5 -34t-11.5 -121h102q0 88 -8 121.5t-38 33.5z" />
    <glyph glyph-name="Gbreve" unicode="&#x11e;" horiz-adv-x="796" 
d="M568 1059h29q-9 -99 -54.5 -145.5t-112.5 -46.5q-68 0 -113.5 46.5t-54.5 145.5h29q12 -42 50.5 -63.5t88.5 -21.5t88 21.5t50 63.5zM407 -16q-185 0 -282 112t-97 292q0 193 105 310.5t273 117.5q118 0 204 -70q9 -9 16.5 -6t9.5 15l9 53h28l12 -294h-29
q-24 116 -77 178t-124 62q-88 0 -142 -91.5t-54 -246.5q0 -162 46 -261.5t131 -99.5q65 0 96 45v204q0 48 -30.5 68.5t-111.5 20.5v29h401v-29q-36 0 -47.5 -18t-11.5 -71v-181q-49 -59 -132 -99t-193 -40z" />
    <glyph glyph-name="gbreve" unicode="&#x11f;" horiz-adv-x="584" 
d="M271 629q-68 0 -113.5 46.5t-54.5 145.5h29q12 -42 50.5 -63.5t88.5 -21.5t88 21.5t50 63.5h29q-9 -99 -54.5 -145.5t-112.5 -46.5zM280 115h141q164 0 164 -120q0 -100 -97 -165.5t-246 -65.5q-102 0 -170.5 32.5t-68.5 88.5q0 71 114 101q-70 33 -70 90q0 79 102 124
q-105 50 -105 161q0 85 64.5 141t174.5 56q70 0 125 -25q59 38 125 38q55 0 55 -44q0 -21 -11.5 -36t-30.5 -15q-22 0 -58.5 22t-53.5 20q78 -51 78 -150q0 -88 -63 -141t-170 -53q-46 0 -87 11q-25 -14 -25 -34q0 -19 22 -27.5t91 -8.5zM264 506q-44 0 -44 -88
q0 -74 18.5 -132.5t53.5 -58.5q44 0 44 86q0 75 -18.5 134t-53.5 59zM287 -150q87 0 147.5 27.5t60.5 57.5q0 15 -17.5 20t-63.5 5h-158q-48 0 -93 10q-16 -25 -16 -46q0 -30 31 -52t109 -22z" />
    <glyph glyph-name="Gdotaccent" unicode="&#x120;" horiz-adv-x="796" 
d="M429 848q-34 0 -59 24.5t-25 58.5q0 35 24.5 59.5t59.5 24.5t59.5 -24.5t24.5 -59.5q0 -34 -25 -58.5t-59 -24.5zM407 -16q-185 0 -282 112t-97 292q0 193 105 310.5t273 117.5q118 0 204 -70q9 -9 16.5 -6t9.5 15l9 53h28l12 -294h-29q-24 116 -77 178t-124 62
q-88 0 -142 -91.5t-54 -246.5q0 -162 46 -261.5t131 -99.5q65 0 96 45v204q0 48 -30.5 68.5t-111.5 20.5v29h401v-29q-36 0 -47.5 -18t-11.5 -71v-181q-49 -59 -132 -99t-193 -40z" />
    <glyph glyph-name="gdotaccent" unicode="&#x121;" horiz-adv-x="584" 
d="M270 610q-34 0 -59 24.5t-25 58.5q0 35 24.5 59.5t59.5 24.5t59.5 -24.5t24.5 -59.5q0 -34 -25 -58.5t-59 -24.5zM280 115h141q164 0 164 -120q0 -100 -97 -165.5t-246 -65.5q-102 0 -170.5 32.5t-68.5 88.5q0 71 114 101q-70 33 -70 90q0 79 102 124q-105 50 -105 161
q0 85 64.5 141t174.5 56q70 0 125 -25q59 38 125 38q55 0 55 -44q0 -21 -11.5 -36t-30.5 -15q-22 0 -58.5 22t-53.5 20q78 -51 78 -150q0 -88 -63 -141t-170 -53q-46 0 -87 11q-25 -14 -25 -34q0 -19 22 -27.5t91 -8.5zM264 506q-44 0 -44 -88q0 -74 18.5 -132.5t53.5 -58.5
q44 0 44 86q0 75 -18.5 134t-53.5 59zM287 -150q87 0 147.5 27.5t60.5 57.5q0 15 -17.5 20t-63.5 5h-158q-48 0 -93 10q-16 -25 -16 -46q0 -30 31 -52t109 -22z" />
    <glyph glyph-name="uni0122" unicode="&#x122;" horiz-adv-x="796" 
d="M407 -16q-185 0 -282 112t-97 292q0 193 105 310.5t273 117.5q118 0 204 -70q9 -9 16.5 -6t9.5 15l9 53h28l12 -294h-29q-24 116 -77 178t-124 62q-88 0 -142 -91.5t-54 -246.5q0 -162 46 -261.5t131 -99.5q65 0 96 45v204q0 48 -30.5 68.5t-111.5 20.5v29h401v-29
q-36 0 -47.5 -18t-11.5 -71v-181q-49 -59 -132 -99t-193 -40zM396 -174q-18 0 -31.5 14.5t-13.5 40.5q0 31 19.5 48t54.5 17t56 -22t21 -58q0 -47 -31 -82t-87 -49v29q26 8 45 24.5t19 32.5q0 15 -12 15q-6 0 -17.5 -5t-22.5 -5z" />
    <glyph glyph-name="uni0123" unicode="&#x123;" horiz-adv-x="584" 
d="M280 624q-36 0 -57 22t-21 58q0 47 31 82t87 49v-29q-26 -8 -45 -24.5t-19 -32.5q0 -15 12 -15q6 0 18 5t23 5q18 0 31 -14.5t13 -40.5q0 -31 -19 -48t-54 -17zM280 115h141q164 0 164 -120q0 -100 -97 -165.5t-246 -65.5q-102 0 -170.5 32.5t-68.5 88.5q0 71 114 101
q-70 33 -70 90q0 79 102 124q-105 50 -105 161q0 85 64.5 141t174.5 56q70 0 125 -25q59 38 125 38q55 0 55 -44q0 -21 -11.5 -36t-30.5 -15q-22 0 -58.5 22t-53.5 20q78 -51 78 -150q0 -88 -63 -141t-170 -53q-46 0 -87 11q-25 -14 -25 -34q0 -19 22 -27.5t91 -8.5z
M264 506q-44 0 -44 -88q0 -74 18.5 -132.5t53.5 -58.5q44 0 44 86q0 75 -18.5 134t-53.5 59zM287 -150q87 0 147.5 27.5t60.5 57.5q0 15 -17.5 20t-63.5 5h-158q-48 0 -93 10q-16 -25 -16 -46q0 -30 31 -52t109 -22z" />
    <glyph glyph-name="Hbar" unicode="&#x126;" horiz-adv-x="937" 
d="M919 629v-38h-115v-473q0 -48 24 -68.5t88 -20.5v-29h-423v29q55 0 76 20.5t21 68.5v269h-243v-269q0 -48 21 -68.5t76 -20.5v-29h-423v29q64 0 88 20.5t24 68.5v473h-115v38h115v53q0 48 -24 68.5t-88 20.5v29h423v-29q-55 0 -76 -20.5t-21 -68.5v-53h243v53
q0 48 -21 68.5t-76 20.5v29h423v-29q-64 0 -88 -20.5t-24 -68.5v-53h115zM347 446h243v145h-243v-145z" />
    <glyph glyph-name="hbar" unicode="&#x127;" horiz-adv-x="680" 
d="M591 392v-274q0 -53 13.5 -71t56.5 -18v-29h-305v29q33 0 44 18t11 71v266q0 65 -46 65q-48 0 -94 -73v-258q0 -53 11 -71t45 -18v-29h-309v29q44 0 59 18.5t15 70.5l-1 473h-70v30h70v3q0 31 -1 42.5t-7 20.5t-18.5 4.5t-37.5 -17.5l-13 26l238 129l19 -20v-188h200v-30
h-200v-157h3q41 60 85.5 92.5t103.5 32.5q58 0 93 -40.5t35 -126.5z" />
    <glyph glyph-name="Imacron" unicode="&#x12a;" horiz-adv-x="471" 
d="M64 892v71h343v-71h-343zM128 118v564q0 48 -23.5 68.5t-87.5 20.5v29h438v-29q-64 0 -88 -20.5t-24 -68.5v-564q0 -48 24 -68.5t88 -20.5v-29h-438v29q64 0 87.5 20.5t23.5 68.5z" />
    <glyph glyph-name="imacron" unicode="&#x12b;" horiz-adv-x="371" 
d="M10 651v71h343v-71h-343zM23 0v29q49 0 65 18.5t16 70.5l-1 255q0 33 -1 47t-7.5 24.5t-19 9t-35.5 -10.5l-12 29l229 92l26 -23v-423q0 -52 16 -70.5t64 -18.5v-29h-340z" />
    <glyph glyph-name="Iogonek" unicode="&#x12e;" horiz-adv-x="471" 
d="M455 800v-29q-64 0 -88 -20.5t-24 -68.5v-564q0 -48 24 -68.5t88 -20.5v-29h-124q-37 -45 -51.5 -71.5t-14.5 -57.5q0 -62 58 -62q30 0 87 23l6 -29q-67 -59 -147 -59q-50 0 -86.5 25.5t-36.5 76.5q0 32 19 58t42.5 39.5t52.5 30t40 26.5h-283v29q64 0 87.5 20.5
t23.5 68.5v564q0 48 -23.5 68.5t-87.5 20.5v29h438z" />
    <glyph glyph-name="iogonek" unicode="&#x12f;" horiz-adv-x="371" 
d="M181 607q-34 0 -59 24.5t-25 58.5q0 35 24.5 59.5t59.5 24.5t59.5 -24.5t24.5 -59.5q0 -34 -25 -58.5t-59 -24.5zM363 0h-105q-37 -45 -51.5 -71.5t-14.5 -57.5q0 -62 58 -62q30 0 87 23l6 -29q-67 -59 -147 -59q-50 0 -86.5 25.5t-36.5 76.5q0 32 19 58t42.5 39.5
t52.5 30t40 26.5h-204v29q49 0 65 18.5t16 70.5l-1 255q0 33 -1 47t-7.5 24.5t-19 9t-35.5 -10.5l-12 29l229 92l26 -23v-423q0 -52 16 -70.5t64 -18.5v-29z" />
    <glyph glyph-name="Idotaccent" unicode="&#x130;" horiz-adv-x="471" 
d="M236 848q-34 0 -59 24.5t-25 58.5q0 35 24.5 59.5t59.5 24.5t59.5 -24.5t24.5 -59.5q0 -34 -25 -58.5t-59 -24.5zM128 118v564q0 48 -23.5 68.5t-87.5 20.5v29h438v-29q-64 0 -88 -20.5t-24 -68.5v-564q0 -48 24 -68.5t88 -20.5v-29h-438v29q64 0 87.5 20.5t23.5 68.5z
" />
    <glyph glyph-name="dotlessi" unicode="&#x131;" horiz-adv-x="371" 
d="M23 0v29q49 0 65 18.5t16 70.5l-1 255q0 33 -1 47t-7.5 24.5t-19 9t-35.5 -10.5l-12 29l229 92l26 -23v-423q0 -52 16 -70.5t64 -18.5v-29h-340z" />
    <glyph glyph-name="uni0136" unicode="&#x136;" horiz-adv-x="914" 
d="M128 118v564q0 48 -23.5 68.5t-87.5 20.5v29h438v-29q-64 0 -88 -20.5t-24 -68.5v-564q0 -48 24 -68.5t88 -20.5v-29h-438v29q64 0 87.5 20.5t23.5 68.5zM544 540l244 -428q45 -81 109 -81v-31h-394v29q60 0 67 15t-21 62l-181 324l197 237q31 38 31 63q0 41 -78 41v29
h346v-29q-56 0 -92 -11.5t-69 -46.5zM443 -174q-18 0 -31.5 14.5t-13.5 40.5q0 31 19.5 48t54.5 17t56 -22t21 -58q0 -47 -31 -82t-87 -49v29q26 8 45 24.5t19 32.5q0 15 -12 15q-6 0 -17.5 -5t-22.5 -5z" />
    <glyph glyph-name="uni0137" unicode="&#x137;" horiz-adv-x="701" 
d="M274 810v-692q0 -53 11.5 -71t47.5 -18v-29h-319v29q48 0 64 18.5t16 70.5v513q0 31 -1 43t-7.5 20.5t-19.5 5t-38 -16.5l-13 25l236 121zM450 378l151 -274q23 -43 49.5 -59t63.5 -16v-29h-341v29q48 0 50.5 14.5t-24.5 60.5l-105 193l114 134q36 42 27 60t-65 18v29
h303v-29q-50 0 -84.5 -11t-67.5 -45zM347 -174q-18 0 -31.5 14.5t-13.5 40.5q0 31 19.5 48t54.5 17t56 -22t21 -58q0 -47 -31 -82t-87 -49v29q26 8 45 24.5t19 32.5q0 15 -12 15q-6 0 -17.5 -5t-22.5 -5z" />
    <glyph glyph-name="Lacute" unicode="&#x139;" horiz-adv-x="687" 
d="M271 862h-47l77 193h139zM455 800v-29q-64 0 -88 -20.5t-24 -68.5v-538q0 -50 16 -64.5t66 -14.5h63q56 0 91.5 45t61.5 158l34 -8l-49 -212l-10 -48h-599v29q64 0 87.5 20.5t23.5 68.5v564q0 48 -23.5 68.5t-87.5 20.5v29h438z" />
    <glyph glyph-name="lacute" unicode="&#x13a;" horiz-adv-x="362" 
d="M167 856h-46l76 193h139zM274 810v-692q0 -53 15.5 -71t64.5 -18v-29h-340v29q48 0 64 18.5t16 70.5v513q0 31 -1 43t-7.5 20.5t-19.5 5t-38 -16.5l-13 25l236 121z" />
    <glyph glyph-name="uni013B" unicode="&#x13b;" horiz-adv-x="687" 
d="M455 800v-29q-64 0 -88 -20.5t-24 -68.5v-538q0 -50 16 -64.5t66 -14.5h63q56 0 91.5 45t61.5 158l34 -8l-49 -212l-10 -48h-599v29q64 0 87.5 20.5t23.5 68.5v564q0 48 -23.5 68.5t-87.5 20.5v29h438zM313 -174q-18 0 -31.5 14.5t-13.5 40.5q0 31 19.5 48t54.5 17
t56 -22t21 -58q0 -47 -31 -82t-87 -49v29q26 8 45 24.5t19 32.5q0 15 -12 15q-6 0 -17.5 -5t-22.5 -5z" />
    <glyph glyph-name="uni013C" unicode="&#x13c;" horiz-adv-x="362" 
d="M274 810v-692q0 -53 15.5 -71t64.5 -18v-29h-340v29q48 0 64 18.5t16 70.5v513q0 31 -1 43t-7.5 20.5t-19.5 5t-38 -16.5l-13 25l236 121zM146 -174q-18 0 -31.5 14.5t-13.5 40.5q0 31 19.5 48t54.5 17t56 -22t21 -58q0 -47 -31 -82t-87 -49v29q26 8 45 24.5t19 32.5
q0 15 -12 15q-6 0 -17.5 -5t-22.5 -5z" />
    <glyph glyph-name="Lcaron" unicode="&#x13d;" horiz-adv-x="687" 
d="M578 614h-46v206h129zM455 800v-29q-64 0 -88 -20.5t-24 -68.5v-538q0 -50 16 -64.5t66 -14.5h63q56 0 91.5 45t61.5 158l34 -8l-49 -212l-10 -48h-599v29q64 0 87.5 20.5t23.5 68.5v564q0 48 -23.5 68.5t-87.5 20.5v29h438z" />
    <glyph glyph-name="lcaron" unicode="&#x13e;" horiz-adv-x="362" 
d="M274 810v-692q0 -53 15.5 -71t64.5 -18v-29h-340v29q48 0 64 18.5t16 70.5v513q0 31 -1 43t-7.5 20.5t-19.5 5t-38 -16.5l-13 25l236 121zM369 613h-46v206h129z" />
    <glyph glyph-name="Lslash" unicode="&#x141;" horiz-adv-x="687" 
d="M641 268l34 -8l-49 -212l-10 -48h-599v29q64 0 87.5 20.5t23.5 68.5v189l-90 -41l-17 33l107 49v334q0 48 -23.5 68.5t-87.5 20.5v29h438v-29q-64 0 -88 -20.5t-24 -68.5v-234l246 113l16 -34l-262 -121v-262q0 -50 16 -64.5t66 -14.5h63q56 0 91.5 45t61.5 158z" />
    <glyph glyph-name="lslash" unicode="&#x142;" horiz-adv-x="373" 
d="M274 449v-331q0 -53 15.5 -71t64.5 -18v-29h-340v29q48 0 64 18.5t16 70.5v226l-80 -46l-15 29l95 55v249q0 31 -1 43t-7.5 20.5t-19.5 5t-38 -16.5l-13 25l236 121l23 -19v-324l77 44l14 -28z" />
    <glyph glyph-name="Nacute" unicode="&#x143;" horiz-adv-x="807" 
d="M440 1055h139l-169 -193h-46zM798 800v-29q-64 0 -88 -20.5t-24 -68.5v-684h-102l-399 615v-495q0 -48 25.5 -68.5t95.5 -20.5v-29h-289v29q64 0 87.5 20.5t23.5 68.5v583q-46 70 -105 70v29h294l313 -485v367q0 48 -24 68.5t-88 20.5v29h280z" />
    <glyph glyph-name="nacute" unicode="&#x144;" horiz-adv-x="682" 
d="M368 622h-46l76 193h139zM25 0v29q44 0 58.5 18t14.5 71v256q0 33 -1 47t-7.5 24.5t-19 9t-35.5 -11.5l-12 29l225 92l30 -23v-107h3q41 60 85.5 92.5t103.5 32.5q58 0 93 -40.5t35 -126.5v-274q0 -53 13.5 -71t55.5 -18v-29h-305v29q34 0 45 18t11 71v263q0 68 -45 68
q-49 0 -95 -73v-258q0 -53 11 -71t45 -18v-29h-309z" />
    <glyph glyph-name="uni0145" unicode="&#x145;" horiz-adv-x="807" 
d="M798 800v-29q-64 0 -88 -20.5t-24 -68.5v-684h-102l-399 615v-495q0 -48 25.5 -68.5t95.5 -20.5v-29h-289v29q64 0 87.5 20.5t23.5 68.5v583q-46 70 -105 70v29h294l313 -485v367q0 48 -24 68.5t-88 20.5v29h280zM414 -54q35 0 56 -22t21 -58q0 -47 -31 -82t-87 -49v29
q26 8 45 24.5t19 32.5q0 15 -12 15q-6 0 -17.5 -5t-22.5 -5q-18 0 -31.5 14.5t-13.5 40.5q0 31 19.5 48t54.5 17z" />
    <glyph glyph-name="uni0146" unicode="&#x146;" horiz-adv-x="682" 
d="M25 0v29q44 0 58.5 18t14.5 71v256q0 33 -1 47t-7.5 24.5t-19 9t-35.5 -11.5l-12 29l225 92l30 -23v-107h3q41 60 85.5 92.5t103.5 32.5q58 0 93 -40.5t35 -126.5v-274q0 -53 13.5 -71t55.5 -18v-29h-305v29q34 0 45 18t11 71v263q0 68 -45 68q-49 0 -95 -73v-258
q0 -53 11 -71t45 -18v-29h-309zM311 -174q-18 0 -31.5 14.5t-13.5 40.5q0 31 19.5 48t54.5 17t56 -22t21 -58q0 -47 -31 -82t-87 -49v29q26 8 45 24.5t19 32.5q0 15 -12 15q-6 0 -17.5 -5t-22.5 -5z" />
    <glyph glyph-name="Ncaron" unicode="&#x147;" horiz-adv-x="807" 
d="M341 864l-105 194h46l132 -130l132 130h47l-105 -194h-147zM798 800v-29q-64 0 -88 -20.5t-24 -68.5v-684h-102l-399 615v-495q0 -48 25.5 -68.5t95.5 -20.5v-29h-289v29q64 0 87.5 20.5t23.5 68.5v583q-46 70 -105 70v29h294l313 -485v367q0 48 -24 68.5t-88 20.5v29
h280z" />
    <glyph glyph-name="ncaron" unicode="&#x148;" horiz-adv-x="682" 
d="M298 624l-105 194h46l132 -130l132 130h47l-105 -194h-147zM598 392v-274q0 -53 13.5 -71t55.5 -18v-29h-305v29q34 0 45 18t11 71v263q0 68 -45 68q-49 0 -95 -73v-258q0 -53 11 -71t45 -18v-29h-309v29q44 0 58.5 18t14.5 71v256q0 33 -1 47t-7.5 24.5t-19 9
t-35.5 -11.5l-12 29l225 92l30 -23v-107h3q41 60 85.5 92.5t103.5 32.5q58 0 93 -40.5t35 -126.5z" />
    <glyph glyph-name="Eng" unicode="&#x14a;" horiz-adv-x="807" 
d="M516 -235q-77 0 -121.5 31t-44.5 83q0 36 23.5 54.5t58.5 18.5t59 -17t24 -52q0 -62 46 -62q69 0 69 156v23l-50 4l-395 610v-496q0 -48 25.5 -68.5t95.5 -20.5v-29h-289v29q64 0 87.5 20.5t23.5 68.5v583q-46 70 -105 70v29h294l313 -484v366q0 48 -24 68.5t-88 20.5v29
h280v-29q-64 0 -88 -20.5t-24 -68.5v-704q0 -104 -39.5 -158.5t-130.5 -54.5z" />
    <glyph glyph-name="eng" unicode="&#x14b;" horiz-adv-x="658" 
d="M474 559q57 0 92 -40.5t35 -126.5v-410q0 -60 -17.5 -104t-47.5 -68t-64.5 -35t-74.5 -11q-83 0 -136 28t-53 77q0 31 20.5 48.5t56.5 17.5q34 0 52.5 -16t27.5 -53q8 -28 14.5 -39t16.5 -11q16 0 21 22t5 86v457q0 69 -46 69q-48 0 -95 -74v-258q0 -53 11 -71t45 -18
v-29h-309v29q44 0 59 18.5t15 70.5v246q0 31 -1 43t-7.5 20.5t-19.5 5t-38 -16.5l-13 25l237 123l21 -21v-109h3q85 125 190 125z" />
    <glyph glyph-name="Omacron" unicode="&#x14c;" horiz-adv-x="767" 
d="M212 892v71h343v-71h-343zM387 -16q-164 0 -261.5 116.5t-97.5 298.5q0 180 99.5 297t252.5 117q164 0 262 -117t98 -299q0 -180 -100 -296.5t-253 -116.5zM412 43q56 0 82.5 63.5t26.5 150.5q0 86 -10 170.5t-29 159t-52 121t-75 46.5q-56 0 -82.5 -63.5t-26.5 -150.5
q0 -86 10 -170.5t29 -159t52 -121t75 -46.5z" />
    <glyph glyph-name="omacron" unicode="&#x14d;" horiz-adv-x="586" 
d="M111 651v71h343v-71h-343zM293 -16q-127 0 -198.5 75.5t-71.5 208.5q0 131 72.5 210.5t197.5 79.5q126 0 198 -75t72 -208q0 -131 -72.5 -211t-197.5 -80zM312 47q34 0 49.5 40.5t15.5 95.5q0 118 -26.5 215t-76.5 97q-34 0 -49.5 -40.5t-15.5 -95.5q0 -118 26.5 -215
t76.5 -97z" />
    <glyph glyph-name="Ohungarumlaut" unicode="&#x150;" horiz-adv-x="767" 
d="M285 862h-29l48 193h87zM394 862h-29l66 193h86zM387 -16q-164 0 -261.5 116.5t-97.5 298.5q0 180 99.5 297t252.5 117q164 0 262 -117t98 -299q0 -180 -100 -296.5t-253 -116.5zM412 43q56 0 82.5 63.5t26.5 150.5q0 86 -10 170.5t-29 159t-52 121t-75 46.5
q-56 0 -82.5 -63.5t-26.5 -150.5q0 -86 10 -170.5t29 -159t52 -121t75 -46.5z" />
    <glyph glyph-name="ohungarumlaut" unicode="&#x151;" horiz-adv-x="586" 
d="M183 621h-29l48 193h87zM292 621h-29l66 193h86zM293 -16q-127 0 -198.5 75.5t-71.5 208.5q0 131 72.5 210.5t197.5 79.5q126 0 198 -75t72 -208q0 -131 -72.5 -211t-197.5 -80zM312 47q34 0 49.5 40.5t15.5 95.5q0 118 -26.5 215t-76.5 97q-34 0 -49.5 -40.5
t-15.5 -95.5q0 -118 26.5 -215t76.5 -97z" />
    <glyph glyph-name="OE" unicode="&#x152;" horiz-adv-x="1065" 
d="M1012 262l34 -8l-48 -206l-11 -48h-351q-39 0 -107.5 -5t-115.5 -5q-179 0 -282 115.5t-103 294.5t103 294.5t282 115.5q47 0 115.5 -5t107.5 -5h349l5 -51l20 -174l-32 -3q-10 92 -37.5 127.5t-80.5 35.5h-103q-41 0 -41 -41v-262h69q44 0 63 26.5t19 96.5h26v-293h-26
q0 70 -19 96.5t-63 26.5h-69v-263q0 -35 9 -46t38 -11h96q57 0 92 44t61 153zM411 46q37 0 63.5 22t26.5 54v578q0 26 -21 41.5t-59 15.5q-49 0 -82 -29t-49.5 -82.5t-23 -111.5t-6.5 -134q0 -354 151 -354z" />
    <glyph glyph-name="oe" unicode="&#x153;" horiz-adv-x="962" 
d="M909 220h28q-21 -122 -77 -179t-149 -57q-135 0 -193 116q-72 -116 -225 -116q-127 0 -198.5 75.5t-71.5 208.5q0 131 72.5 210.5t197.5 79.5q166 0 233 -124q67 124 193 124q75 0 125 -38.5t70 -96.5t20 -133h-272q4 -94 34.5 -140.5t91.5 -46.5q37 0 70.5 28t50.5 89z
M716 501q-33 0 -43.5 -34t-11.5 -121h102q0 87 -8.5 121t-38.5 34zM312 47q34 0 49.5 40.5t15.5 95.5q0 118 -26.5 215t-76.5 97q-34 0 -49.5 -40.5t-15.5 -95.5q0 -118 26.5 -215t76.5 -97z" />
    <glyph glyph-name="Racute" unicode="&#x154;" horiz-adv-x="824" 
d="M391 1055h139l-169 -193h-46zM686 203l43 -93q21 -47 42.5 -64t69.5 -17v-29h-96q-61 0 -93.5 2.5t-61.5 9t-45.5 24.5t-30.5 40.5t-33 66.5l-103 232h-11h-25v-257q0 -48 24 -68.5t88 -20.5v-29h-437v29q64 0 87.5 20.5t23.5 68.5v564q0 48 -23.5 68.5t-87.5 20.5v29
h396q162 0 236 -54t74 -157q0 -55 -19.5 -95t-56 -63t-77.5 -35t-94 -17v-1q77 -11 122 -44t88 -131zM342 709v-286h26q62 0 101 40t39 130q0 151 -105 151q-22 0 -46 -10q-15 -6 -15 -25z" />
    <glyph glyph-name="racute" unicode="&#x155;" horiz-adv-x="518" 
d="M284 814h139l-169 -193h-46zM437 558q70 0 70 -81q0 -45 -20.5 -74t-53.5 -29q-18 0 -29 6.5t-28 24.5q-23 25 -38 25q-19 0 -36 -25t-24 -61v-210q0 -60 23.5 -80.5t96.5 -20.5v-33h-373v29q44 0 58.5 18t14.5 71v256q0 33 -1 47t-7.5 24.5t-19 9t-35.5 -11.5l-12 29
l225 92l30 -23v-111h3q28 48 69.5 88t86.5 40z" />
    <glyph glyph-name="uni0156" unicode="&#x156;" horiz-adv-x="824" 
d="M686 203l43 -93q21 -47 42.5 -64t69.5 -17v-29h-96q-61 0 -93.5 2.5t-61.5 9t-45.5 24.5t-30.5 40.5t-33 66.5l-103 232h-11h-25v-257q0 -48 24 -68.5t88 -20.5v-29h-437v29q64 0 87.5 20.5t23.5 68.5v564q0 48 -23.5 68.5t-87.5 20.5v29h396q162 0 236 -54t74 -157
q0 -55 -19.5 -95t-56 -63t-77.5 -35t-94 -17v-1q77 -11 122 -44t88 -131zM342 709v-286h26q62 0 101 40t39 130q0 151 -105 151q-22 0 -46 -10q-15 -6 -15 -25zM489 -54q35 0 56 -22t21 -58q0 -47 -31 -82t-87 -49v29q26 8 45 24.5t19 32.5q0 15 -12 15q-6 0 -17.5 -5
t-22.5 -5q-18 0 -31.5 14.5t-13.5 40.5q0 31 19.5 48t54.5 17z" />
    <glyph glyph-name="uni0157" unicode="&#x157;" horiz-adv-x="518" 
d="M437 558q70 0 70 -81q0 -45 -20.5 -74t-53.5 -29q-18 0 -29 6.5t-28 24.5q-23 25 -38 25q-19 0 -36 -25t-24 -61v-210q0 -60 23.5 -80.5t96.5 -20.5v-33h-373v29q44 0 58.5 18t14.5 71v256q0 33 -1 47t-7.5 24.5t-19 9t-35.5 -11.5l-12 29l225 92l30 -23v-111h3
q28 48 69.5 88t86.5 40zM188 -54q35 0 56 -22t21 -58q0 -47 -31 -82t-87 -49v29q26 8 45 24.5t19 32.5q0 15 -12 15q-6 0 -17.5 -5t-22.5 -5q-18 0 -31.5 14.5t-13.5 40.5q0 31 19.5 48t54.5 17z" />
    <glyph glyph-name="Rcaron" unicode="&#x158;" horiz-adv-x="824" 
d="M292 864l-105 194h46l132 -130l132 130h47l-105 -194h-147zM686 203l43 -93q21 -47 42.5 -64t69.5 -17v-29h-96q-61 0 -93.5 2.5t-61.5 9t-45.5 24.5t-30.5 40.5t-33 66.5l-103 232h-11h-25v-257q0 -48 24 -68.5t88 -20.5v-29h-437v29q64 0 87.5 20.5t23.5 68.5v564
q0 48 -23.5 68.5t-87.5 20.5v29h396q162 0 236 -54t74 -157q0 -55 -19.5 -95t-56 -63t-77.5 -35t-94 -17v-1q77 -11 122 -44t88 -131zM342 709v-286h26q62 0 101 40t39 130q0 151 -105 151q-22 0 -46 -10q-15 -6 -15 -25z" />
    <glyph glyph-name="rcaron" unicode="&#x159;" horiz-adv-x="518" 
d="M185 623l-105 194h46l132 -130l132 130h47l-105 -194h-147zM437 558q70 0 70 -81q0 -45 -20.5 -74t-53.5 -29q-18 0 -29 6.5t-28 24.5q-23 25 -38 25q-19 0 -36 -25t-24 -61v-210q0 -60 23.5 -80.5t96.5 -20.5v-33h-373v29q44 0 58.5 18t14.5 71v256q0 33 -1 47
t-7.5 24.5t-19 9t-35.5 -11.5l-12 29l225 92l30 -23v-111h3q28 48 69.5 88t86.5 40z" />
    <glyph glyph-name="Sacute" unicode="&#x15a;" horiz-adv-x="577" 
d="M279 862h-46l76 193h139zM289 -15q-102 0 -175 61q-10 9 -19.5 6.5t-12.5 -15.5l-10 -43h-31l4 318h34q6 -96 63 -183.5t141 -87.5q47 0 72 27.5t25 68.5q0 50 -32 92.5t-97 91.5q-104 78 -135 111q-66 70 -66 162q0 105 68 163.5t167 58.5q89 0 148 -51q14 -11 24 -8
t14 20l6 29h29l11 -269h-32q-5 82 -56 152.5t-124 70.5q-43 0 -66.5 -25t-23.5 -62q0 -41 29 -73t116 -96q100 -74 143 -133t43 -143q0 -114 -74.5 -178.5t-182.5 -64.5z" />
    <glyph glyph-name="sacute" unicode="&#x15b;" horiz-adv-x="437" 
d="M207 623h-46l76 193h139zM232 -16q-74 0 -131 39q-19 13 -28 -6l-10 -21h-28l-10 229h29q13 -81 55.5 -132t101.5 -51q62 0 62 61q0 25 -19.5 44t-93.5 69q-70 47 -98.5 86.5t-28.5 88.5q0 77 51.5 122t126.5 45q61 0 109 -37q20 -15 30 6l10 24h28l9 -188h-28
q-15 59 -54 98.5t-87 39.5q-25 0 -38.5 -13.5t-13.5 -34.5q0 -24 17.5 -41t80.5 -61q53 -36 80 -60t45.5 -59t18.5 -79q0 -84 -53 -126.5t-133 -42.5z" />
    <glyph glyph-name="Scedilla" unicode="&#x15e;" horiz-adv-x="577" 
d="M546 228q0 -103 -61.5 -166t-156.5 -75l-12 -22q132 -9 132 -100q0 -53 -46 -83.5t-108 -33t-126 5.5l6 29q155 -18 155 69q0 38 -30 58t-79 21l43 55q-88 9 -149 60q-10 9 -19.5 6.5t-12.5 -15.5l-10 -43h-31l4 318h34q6 -96 63 -183.5t141 -87.5q47 0 72 27.5t25 68.5
q0 50 -32 92.5t-97 91.5q-104 78 -135 111q-66 70 -66 162q0 105 68 163.5t167 58.5q89 0 148 -51q14 -11 24 -8t14 20l6 29h29l11 -269h-32q-5 82 -56 152.5t-124 70.5q-43 0 -66.5 -25t-23.5 -62q0 -41 29 -73t116 -96q100 -74 143 -133t43 -143z" />
    <glyph glyph-name="scedilla" unicode="&#x15f;" horiz-adv-x="437" 
d="M253 -15l-11 -20q132 -9 132 -100q0 -53 -46 -83.5t-108 -33t-126 5.5l6 29q155 -18 155 69q0 38 -30 58t-79 21l44 56q-48 8 -89 36q-19 13 -28 -6l-10 -21h-28l-10 229h29q13 -81 55.5 -132t101.5 -51q62 0 62 61q0 25 -19.5 44t-93.5 69q-70 47 -98.5 86.5t-28.5 88.5
q0 77 51.5 122t126.5 45q61 0 109 -37q20 -15 30 6l10 24h28l9 -188h-28q-15 59 -54 98.5t-87 39.5q-25 0 -38.5 -13.5t-13.5 -34.5q0 -24 17.5 -41t80.5 -61q53 -36 80 -60t45.5 -59t18.5 -79q0 -77 -46.5 -119.5t-118.5 -48.5z" />
    <glyph glyph-name="Scaron" unicode="&#x160;" horiz-adv-x="577" 
d="M210 864l-105 194h46l132 -130l132 130h47l-105 -194h-147zM360 504q100 -74 143 -133t43 -143q0 -114 -74.5 -178.5t-182.5 -64.5q-102 0 -175 61q-10 9 -19.5 6.5t-12.5 -15.5l-10 -43h-31l4 318h34q6 -96 63 -183.5t141 -87.5q47 0 72 27.5t25 68.5q0 50 -32 92.5
t-97 91.5q-104 78 -135 111q-66 70 -66 162q0 105 68 163.5t167 58.5q89 0 148 -51q14 -11 24 -8t14 20l6 29h29l11 -269h-32q-5 82 -56 152.5t-124 70.5q-43 0 -66.5 -25t-23.5 -62q0 -41 29 -73t116 -96z" />
    <glyph glyph-name="scaron" unicode="&#x161;" horiz-adv-x="437" 
d="M137 625l-105 194h46l132 -130l132 130h47l-105 -194h-147zM274 351q53 -36 80 -60t45.5 -59t18.5 -79q0 -84 -53 -126.5t-133 -42.5q-74 0 -131 39q-19 13 -28 -6l-10 -21h-28l-10 229h29q13 -81 55.5 -132t101.5 -51q62 0 62 61q0 25 -19.5 44t-93.5 69
q-70 47 -98.5 86.5t-28.5 88.5q0 77 51.5 122t126.5 45q61 0 109 -37q20 -15 30 6l10 24h28l9 -188h-28q-15 59 -54 98.5t-87 39.5q-25 0 -38.5 -13.5t-13.5 -34.5q0 -24 17.5 -41t80.5 -61z" />
    <glyph glyph-name="uni0162" unicode="&#x162;" horiz-adv-x="711" 
d="M676 800l3 -50l11 -177l-35 -3q-6 94 -33 129.5t-84 35.5h-37q-38 0 -38 -39v-578q0 -48 23.5 -68.5t87.5 -20.5v-29h-181l-19 -35q132 -9 132 -100q0 -53 -46 -83.5t-108 -33t-126 5.5l6 29q155 -18 155 69q0 38 -30 58t-80 21l54 69h-195v29q64 0 88 20.5t24 68.5v578
q0 39 -39 39h-36q-58 0 -85 -35.5t-33 -129.5l-34 3l10 177l4 50h641z" />
    <glyph glyph-name="uni0163" unicode="&#x163;" horiz-adv-x="406" 
d="M250 -15l-11 -20q132 -9 132 -100q0 -53 -46 -83.5t-108 -33t-126 5.5l6 29q155 -18 155 69q0 38 -30 58t-79 21l44 57q-57 11 -85.5 58.5t-28.5 142.5v293h-65v53q64 4 115 43.5t67 114.5h58v-155h117v-56h-113v-285q0 -112 49 -112q57 0 57 161h38q0 -126 -34 -189.5
t-112 -71.5z" />
    <glyph glyph-name="Tcaron" unicode="&#x164;" horiz-adv-x="711" 
d="M278 864l-105 194h46l132 -130l132 130h47l-105 -194h-147zM676 800l3 -50l11 -177l-35 -3q-6 94 -33 129.5t-84 35.5h-37q-38 0 -38 -39v-578q0 -48 23.5 -68.5t87.5 -20.5v-29h-438v29q64 0 88 20.5t24 68.5v578q0 39 -39 39h-36q-58 0 -85 -35.5t-33 -129.5l-34 3
l10 177l4 50h641z" />
    <glyph glyph-name="tcaron" unicode="&#x165;" horiz-adv-x="406" 
d="M346 590h-46v206h129zM358 246h38q0 -135 -39 -198.5t-130 -63.5q-76 0 -115 47.5t-39 157.5v293h-65v53q64 4 115 43.5t67 114.5h58v-155h117v-56h-113v-285q0 -112 49 -112q57 0 57 161z" />
    <glyph glyph-name="Tbar" unicode="&#x166;" horiz-adv-x="711" 
d="M538 735h-37q-38 0 -38 -39v-278h167v-39h-167v-261q0 -48 23.5 -68.5t87.5 -20.5v-29h-438v29q64 0 88 20.5t24 68.5v261h-168v39h168v278q0 39 -39 39h-36q-58 0 -85 -35.5t-33 -129.5l-34 3l10 177l4 50h641l3 -50l11 -177l-35 -3q-6 94 -33 129.5t-84 35.5z" />
    <glyph glyph-name="tbar" unicode="&#x167;" horiz-adv-x="406" 
d="M358 246h38q0 -135 -39 -198.5t-130 -63.5q-76 0 -115 47.5t-39 157.5v154h-66v43h66v96h-65v53q64 4 115 43.5t67 114.5h58v-155h117v-56h-113v-96h104v-43h-104v-146q0 -112 49 -112q57 0 57 161z" />
    <glyph glyph-name="Umacron" unicode="&#x16a;" horiz-adv-x="818" 
d="M301 892v71h343v-71h-343zM415 -16q-146 0 -223.5 80t-77.5 240v378q0 48 -23.5 68.5t-87.5 20.5v29h438v-29q-64 0 -88 -20.5t-24 -68.5v-378q0 -126 36.5 -179t111.5 -53q164 0 164 239v371q0 48 -24 68.5t-88 20.5v29h286v-29q-64 0 -87.5 -20.5t-23.5 -68.5v-371
q0 -73 -14 -129.5t-46 -102.5t-90 -70.5t-139 -24.5z" />
    <glyph glyph-name="umacron" unicode="&#x16b;" horiz-adv-x="646" 
d="M143 651v71h343v-71h-343zM426 -17l-36 27v97h-3q-19 -30 -32 -47t-34 -37t-47 -29.5t-59 -9.5q-60 0 -98.5 43.5t-38.5 120.5v238q0 55 -12 68t-58 -1l-8 28l238 72l19 -17v-372q0 -41 10.5 -58.5t34.5 -17.5q39 0 88 75v223q0 55 -12 68t-58 -1l-8 28l239 72l18 -17
v-375q0 -32 1.5 -47t8.5 -25.5t20.5 -9.5t37.5 9l10 -30z" />
    <glyph glyph-name="Uring" unicode="&#x16e;" horiz-adv-x="818" 
d="M473 866q-49 0 -81 31.5t-32 78.5q0 46 32 77t81 31q47 0 79 -31t32 -77q0 -47 -32 -78.5t-79 -31.5zM473 913q27 0 45.5 18t18.5 45t-18.5 44t-45.5 17q-28 0 -46.5 -17t-18.5 -44q0 -28 18.5 -45.5t46.5 -17.5zM415 -16q-146 0 -223.5 80t-77.5 240v378
q0 48 -23.5 68.5t-87.5 20.5v29h438v-29q-64 0 -88 -20.5t-24 -68.5v-378q0 -126 36.5 -179t111.5 -53q164 0 164 239v371q0 48 -24 68.5t-88 20.5v29h286v-29q-64 0 -87.5 -20.5t-23.5 -68.5v-371q0 -73 -14 -129.5t-46 -102.5t-90 -70.5t-139 -24.5z" />
    <glyph glyph-name="uring" unicode="&#x16f;" horiz-adv-x="646" 
d="M315 625q-49 0 -81 31.5t-32 78.5q0 46 32 77t81 31q47 0 79 -31t32 -77q0 -47 -32 -78.5t-79 -31.5zM315 672q27 0 45.5 18t18.5 45t-18.5 44t-45.5 17q-28 0 -46.5 -17t-18.5 -44q0 -28 18.5 -45.5t46.5 -17.5zM426 -17l-36 27v97h-3q-19 -30 -32 -47t-34 -37
t-47 -29.5t-59 -9.5q-60 0 -98.5 43.5t-38.5 120.5v238q0 55 -12 68t-58 -1l-8 28l238 72l19 -17v-372q0 -41 10.5 -58.5t34.5 -17.5q39 0 88 75v223q0 55 -12 68t-58 -1l-8 28l239 72l18 -17v-375q0 -32 1.5 -47t8.5 -25.5t20.5 -9.5t37.5 9l10 -30z" />
    <glyph glyph-name="Uhungarumlaut" unicode="&#x170;" horiz-adv-x="818" 
d="M374 862h-29l48 193h87zM483 862h-29l66 193h86zM415 -16q-146 0 -223.5 80t-77.5 240v378q0 48 -23.5 68.5t-87.5 20.5v29h438v-29q-64 0 -88 -20.5t-24 -68.5v-378q0 -126 36.5 -179t111.5 -53q164 0 164 239v371q0 48 -24 68.5t-88 20.5v29h286v-29q-64 0 -87.5 -20.5
t-23.5 -68.5v-371q0 -73 -14 -129.5t-46 -102.5t-90 -70.5t-139 -24.5z" />
    <glyph glyph-name="uhungarumlaut" unicode="&#x171;" horiz-adv-x="646" 
d="M216 621h-29l48 193h87zM325 621h-29l66 193h86zM426 -17l-36 27v97h-3q-19 -30 -32 -47t-34 -37t-47 -29.5t-59 -9.5q-60 0 -98.5 43.5t-38.5 120.5v238q0 55 -12 68t-58 -1l-8 28l238 72l19 -17v-372q0 -41 10.5 -58.5t34.5 -17.5q39 0 88 75v223q0 55 -12 68t-58 -1
l-8 28l239 72l18 -17v-375q0 -32 1.5 -47t8.5 -25.5t20.5 -9.5t37.5 9l10 -30z" />
    <glyph glyph-name="Uogonek" unicode="&#x172;" horiz-adv-x="818" 
d="M815 800v-29q-64 0 -87.5 -20.5t-23.5 -68.5v-371q0 -282 -213 -321q-31 -39 -44.5 -64t-13.5 -55q0 -62 58 -62q30 0 87 23l6 -29q-67 -59 -147 -59q-50 0 -86.5 25.5t-36.5 76.5q0 23 8.5 42t25.5 33.5t30.5 24t37.5 22t32 17.5q-11 -1 -33 -1q-146 0 -223.5 80
t-77.5 240v378q0 48 -23.5 68.5t-87.5 20.5v29h438v-29q-64 0 -88 -20.5t-24 -68.5v-378q0 -126 36.5 -179t111.5 -53q164 0 164 239v371q0 48 -24 68.5t-88 20.5v29h286z" />
    <glyph glyph-name="uogonek" unicode="&#x173;" horiz-adv-x="646" 
d="M647 58l-87 -29l-133 -46q-48 -61 -48 -106q0 -62 58 -62q30 0 87 23l6 -29q-67 -59 -147 -59q-50 0 -86.5 25.5t-36.5 76.5q0 39 23 65.5t69 51t53 30.5l-15 11v97h-3q-19 -30 -32 -47t-34 -37t-47 -29.5t-59 -9.5q-60 0 -98.5 43.5t-38.5 120.5v238q0 55 -12 68t-58 -1
l-8 28l238 72l19 -17v-372q0 -41 10.5 -58.5t34.5 -17.5q39 0 88 75v223q0 55 -12 68t-58 -1l-8 28l239 72l18 -17v-375q0 -32 1.5 -47t8.5 -25.5t20.5 -9.5t37.5 9z" />
    <glyph glyph-name="Wcircumflex" unicode="&#x174;" horiz-adv-x="1126" 
d="M761 864l-132 129l-132 -129h-47l105 193h147l105 -193h-46zM1121 800v-29q-46 0 -69 -18t-37 -67l-200 -702h-98l-141 518l-151 -518h-97l-215 703q-15 49 -38 66.5t-69 17.5v29h376v-29q-46 0 -56 -20.5t5 -64.5l115 -411h4l98 331l-22 80q-13 49 -30.5 67t-46.5 18v29
h368v-29q-57 0 -71.5 -19.5t-3.5 -66.5l96 -410h5l112 411q15 44 0.5 64.5t-71.5 20.5v29h237z" />
    <glyph glyph-name="wcircumflex" unicode="&#x175;" horiz-adv-x="872" 
d="M599 623l-132 129l-132 -129h-47l105 193h147l105 -193h-46zM865 538v-29q-31 0 -50.5 -18t-33.5 -66l-132 -433h-116l-89 322l-91 -322h-119l-144 434q-16 48 -35 65.5t-49 17.5v29h290v-29q-30 0 -31 -16.5t17 -66.5l71 -217h5l58 205l-3 10q-14 48 -29.5 66.5
t-37.5 18.5v29h286v-29q-35 0 -40 -17.5t8 -68.5l50 -214h5l69 216q18 50 12.5 67t-45.5 17v29h174z" />
    <glyph glyph-name="Ycircumflex" unicode="&#x176;" horiz-adv-x="760" 
d="M574 862l-132 129l-132 -129h-47l105 193h147l105 -193h-46zM768 800v-29q-43 0 -69 -16.5t-48 -61.5l-157 -335v-240q0 -48 24 -68.5t88 -20.5v-29h-438v29q64 0 87.5 20.5t23.5 68.5v234l-174 343q-23 44 -48.5 60t-64.5 16v29h422v-29q-75 0 -90 -18.5t9 -59.5
l126 -263h3l127 263q23 41 12 59.5t-73 18.5v29h240z" />
    <glyph glyph-name="ycircumflex" unicode="&#x177;" horiz-adv-x="568" 
d="M430 621l-132 129l-132 -129h-47l105 193h147l105 -193h-46zM561 538v-29q-31 0 -50.5 -17.5t-35.5 -65.5l-144 -436q-38 -116 -83 -169t-122 -57q-42 0 -70 25t-28 66q0 40 23 62t58 22t69 -36q21 -24 44 -24q27 0 33 47q0 26 -38 140l-123 360q-16 48 -36 65.5
t-52 17.5v29h320v-29q-45 0 -52 -17.5t10 -67.5l61 -209h7l66 210q18 50 12 67t-48 17v29h179z" />
    <glyph glyph-name="Ydieresis" unicode="&#x178;" horiz-adv-x="760" 
d="M327 848q-34 0 -59 24.5t-25 58.5q0 35 24.5 59.5t59.5 24.5t59 -24.5t24 -59.5q0 -34 -24.5 -58.5t-58.5 -24.5zM557 848q-34 0 -59 24.5t-25 58.5q0 35 24.5 59.5t59.5 24.5t59 -24.5t24 -59.5q0 -34 -24.5 -58.5t-58.5 -24.5zM494 358v-240q0 -48 24 -68.5t88 -20.5
v-29h-438v29q64 0 87.5 20.5t23.5 68.5v234l-174 343q-23 44 -48.5 60t-64.5 16v29h422v-29q-75 0 -90 -18.5t9 -59.5l126 -263h3l127 263q23 41 12 59.5t-73 18.5v29h240v-29q-43 0 -69 -16.5t-48 -61.5z" />
    <glyph glyph-name="Zacute" unicode="&#x179;" horiz-adv-x="647" 
d="M357 862h-46l76 193h139zM77 800h539l-340 -735h171q57 0 87 44t42 158l34 -4l-22 -216l-5 -47h-557v29l339 706h-149q-57 0 -84 -37.5t-31 -136.5l-34 2l8 187z" />
    <glyph glyph-name="zacute" unicode="&#x17a;" horiz-adv-x="472" 
d="M263 621h-46l76 193h139zM235 56h74q58 0 78 32t20 129h32v-217h-418v29l214 453h-68q-59 0 -79 -27t-20 -110h-31v193h412v-29z" />
    <glyph glyph-name="Zdotaccent" unicode="&#x17b;" horiz-adv-x="647" 
d="M361 848q-34 0 -59 24.5t-25 58.5q0 35 24.5 59.5t59.5 24.5t59.5 -24.5t24.5 -59.5q0 -34 -25 -58.5t-59 -24.5zM77 800h539l-340 -735h171q57 0 87 44t42 158l34 -4l-22 -216l-5 -47h-557v29l339 706h-149q-57 0 -84 -37.5t-31 -136.5l-34 2l8 187z" />
    <glyph glyph-name="zdotaccent" unicode="&#x17c;" horiz-adv-x="472" 
d="M267 607q-34 0 -59 24.5t-25 58.5q0 35 24.5 59.5t59.5 24.5t59.5 -24.5t24.5 -59.5q0 -34 -25 -58.5t-59 -24.5zM235 56h74q58 0 78 32t20 129h32v-217h-418v29l214 453h-68q-59 0 -79 -27t-20 -110h-31v193h412v-29z" />
    <glyph glyph-name="Zcaron" unicode="&#x17d;" horiz-adv-x="647" 
d="M287 864l-105 194h46l132 -130l132 130h47l-105 -194h-147zM276 65h171q57 0 87 44t42 158l34 -4l-22 -216l-5 -47h-557v29l339 706h-149q-57 0 -84 -37.5t-31 -136.5l-34 2l8 187l2 50h539z" />
    <glyph glyph-name="zcaron" unicode="&#x17e;" horiz-adv-x="472" 
d="M194 623l-105 194h46l132 -130l132 130h47l-105 -194h-147zM37 538h412v-29l-214 -453h74q58 0 78 32t20 129h32v-217h-418v29l214 453h-68q-59 0 -79 -27t-20 -110h-31v193z" />
    <glyph glyph-name="uni0218" unicode="&#x218;" horiz-adv-x="577" 
d="M289 -15q-102 0 -175 61q-10 9 -19.5 6.5t-12.5 -15.5l-10 -43h-31l4 318h34q6 -96 63 -183.5t141 -87.5q47 0 72 27.5t25 68.5q0 50 -32 92.5t-97 91.5q-104 78 -135 111q-66 70 -66 162q0 105 68 163.5t167 58.5q89 0 148 -51q14 -11 24 -8t14 20l6 29h29l11 -269h-32
q-5 82 -56 152.5t-124 70.5q-43 0 -66.5 -25t-23.5 -62q0 -41 29 -73t116 -96q100 -74 143 -133t43 -143q0 -114 -74.5 -178.5t-182.5 -64.5zM255 -174q-18 0 -31.5 14.5t-13.5 40.5q0 31 19.5 48t54.5 17t56 -22t21 -58q0 -47 -31 -82t-87 -49v29q26 8 45 24.5t19 32.5
q0 15 -12 15q-6 0 -17.5 -5t-22.5 -5z" />
    <glyph glyph-name="uni0219" unicode="&#x219;" horiz-adv-x="437" 
d="M232 -16q-74 0 -131 39q-19 13 -28 -6l-10 -21h-28l-10 229h29q13 -81 55.5 -132t101.5 -51q62 0 62 61q0 25 -19.5 44t-93.5 69q-70 47 -98.5 86.5t-28.5 88.5q0 77 51.5 122t126.5 45q61 0 109 -37q20 -15 30 6l10 24h28l9 -188h-28q-15 59 -54 98.5t-87 39.5
q-25 0 -38.5 -13.5t-13.5 -34.5q0 -24 17.5 -41t80.5 -61q53 -36 80 -60t45.5 -59t18.5 -79q0 -84 -53 -126.5t-133 -42.5zM181 -174q-18 0 -31.5 14.5t-13.5 40.5q0 31 19.5 48t54.5 17t56 -22t21 -58q0 -47 -31 -82t-87 -49v29q26 8 45 24.5t19 32.5q0 15 -12 15
q-6 0 -17.5 -5t-22.5 -5z" />
    <glyph glyph-name="uni021A" unicode="&#x21a;" horiz-adv-x="711" 
d="M209 735h-36q-58 0 -85 -35.5t-33 -129.5l-34 3l10 177l4 50h641l3 -50l11 -177l-35 -3q-6 94 -33 129.5t-84 35.5h-37q-38 0 -38 -39v-578q0 -48 23.5 -68.5t87.5 -20.5v-29h-438v29q64 0 88 20.5t24 68.5v578q0 39 -39 39zM319 -174q-18 0 -31.5 14.5t-13.5 40.5
q0 31 19.5 48t54.5 17t56 -22t21 -58q0 -47 -31 -82t-87 -49v29q26 8 45 24.5t19 32.5q0 15 -12 15q-6 0 -17.5 -5t-22.5 -5z" />
    <glyph glyph-name="uni021B" unicode="&#x21b;" horiz-adv-x="406" 
d="M358 246h38q0 -135 -39 -198.5t-130 -63.5q-76 0 -115 47.5t-39 157.5v293h-65v53q64 4 115 43.5t67 114.5h58v-155h117v-56h-113v-285q0 -112 49 -112q57 0 57 161zM206 -174q-18 0 -31.5 14.5t-13.5 40.5q0 31 19.5 48t54.5 17t56.5 -22.5t21.5 -57.5q0 -47 -31.5 -82
t-87.5 -49v29q26 8 45 24.5t19 32.5q0 15 -11 15q-6 0 -18 -5t-23 -5z" />
    <glyph glyph-name="circumflex" unicode="&#x2c6;" horiz-adv-x="437" 
d="M292 814l105 -193h-47l-132 129l-132 -129h-46l105 193h147z" />
    <glyph glyph-name="caron" unicode="&#x2c7;" horiz-adv-x="437" 
d="M218 687l132 130h47l-105 -194h-147l-105 194h46z" />
    <glyph glyph-name="breve" unicode="&#x2d8;" horiz-adv-x="435" 
d="M356 818h29q-9 -99 -54.5 -145.5t-112.5 -46.5q-68 0 -113.5 46.5t-54.5 145.5h29q12 -42 50.5 -63.5t88.5 -21.5t88 21.5t50 63.5z" />
    <glyph glyph-name="dotaccent" unicode="&#x2d9;" horiz-adv-x="268" 
d="M134 607q-34 0 -59 24.5t-25 58.5q0 35 24.5 59.5t59.5 24.5t59.5 -24.5t24.5 -59.5q0 -34 -25 -58.5t-59 -24.5z" />
    <glyph glyph-name="ring" unicode="&#x2da;" horiz-adv-x="324" 
d="M163 625q-49 0 -81 31.5t-32 78.5q0 46 32 77t81 31q47 0 79 -31t32 -77q0 -47 -32 -78.5t-79 -31.5zM163 672q27 0 45.5 18t18.5 45t-18.5 44t-45.5 17q-28 0 -46.5 -17t-18.5 -44q0 -28 18.5 -45.5t46.5 -17.5z" />
    <glyph glyph-name="ogonek" unicode="&#x2db;" horiz-adv-x="371" 
d="M207 -10h31q-37 -45 -51.5 -71.5t-14.5 -57.5q0 -62 58 -62q30 0 87 23l6 -29q-67 -59 -147 -59q-50 0 -86.5 25.5t-36.5 76.5q0 32 19 58t42.5 39.5t52.5 30t40 26.5z" />
    <glyph glyph-name="tilde" unicode="&#x2dc;" horiz-adv-x="475" 
d="M314 622q-35 0 -86.5 37t-81.5 37q-31 0 -44 -18t-23 -56h-29q4 27 6.5 37.5t8.5 38t13.5 41.5t19 32t27.5 26t36 8q35 0 86.5 -37t82.5 -37t44 18t22 56h29q-4 -27 -6.5 -37.5t-8.5 -38t-13.5 -41.5t-19 -32t-27.5 -26t-36 -8z" />
    <glyph glyph-name="hungarumlaut" unicode="&#x2dd;" horiz-adv-x="361" 
d="M79 621h-29l48 193h87zM188 621h-29l66 193h86z" />
    <glyph glyph-name="gravecomb" unicode="&#x300;" horiz-adv-x="0" 
d="M-138 814l77 -193h-46l-170 193h139z" />
    <glyph glyph-name="acutecomb" unicode="&#x301;" horiz-adv-x="0" 
d="M-191 621h-46l76 193h139z" />
    <glyph glyph-name="uni0302" unicode="&#x302;" horiz-adv-x="0" 
d="M-146 814l105 -193h-46l-132 129l-132 -129h-47l105 193h147z" />
    <glyph glyph-name="tildecomb" unicode="&#x303;" horiz-adv-x="0" 
d="M-161 622q-35 0 -86.5 37t-81.5 37q-31 0 -44 -18t-23 -56h-29q4 27 6.5 37.5t8.5 38t13.5 41.5t19 32t27.5 26t36 8q35 0 86.5 -37t82.5 -37t44 18t22 56h29q-4 -27 -6.5 -37.5t-8.5 -38t-13.5 -41.5t-19 -32t-27.5 -26t-36 -8z" />
    <glyph glyph-name="uni0304" unicode="&#x304;" horiz-adv-x="0" 
d="M-419 651v71h343v-71h-343z" />
    <glyph glyph-name="uni0306" unicode="&#x306;" horiz-adv-x="0" 
d="M-79 818h29q-9 -99 -54.5 -145.5t-112.5 -46.5q-68 0 -113.5 46.5t-54.5 145.5h29q12 -42 50.5 -63.5t88.5 -21.5t88 21.5t50 63.5z" />
    <glyph glyph-name="uni0307" unicode="&#x307;" horiz-adv-x="0" 
d="M-134 607q-34 0 -59 24.5t-25 58.5q0 35 24.5 59.5t59.5 24.5t59.5 -24.5t24.5 -59.5q0 -34 -25 -58.5t-59 -24.5z" />
    <glyph glyph-name="uni0308" unicode="&#x308;" horiz-adv-x="0" 
d="M-372 607q-34 0 -59 24.5t-25 58.5q0 35 24.5 59.5t59.5 24.5t59 -24.5t24 -59.5q0 -34 -24.5 -58.5t-58.5 -24.5zM-142 607q-34 0 -59 24.5t-25 58.5q0 35 24.5 59.5t59.5 24.5t59 -24.5t24 -59.5q0 -34 -24.5 -58.5t-58.5 -24.5z" />
    <glyph glyph-name="uni030A" unicode="&#x30a;" horiz-adv-x="0" 
d="M-161 625q-49 0 -81 31.5t-32 78.5q0 46 32 77t81 31q47 0 79 -31t32 -77q0 -47 -32 -78.5t-79 -31.5zM-161 672q27 0 45.5 18t18.5 45t-18.5 44t-45.5 17q-28 0 -46.5 -17t-18.5 -44q0 -28 18.5 -45.5t46.5 -17.5z" />
    <glyph glyph-name="uni030B" unicode="&#x30b;" horiz-adv-x="0" 
d="M-278 621h-29l48 193h87zM-169 621h-29l66 193h86z" />
    <glyph glyph-name="uni030C" unicode="&#x30c;" horiz-adv-x="0" 
d="M-219 687l132 130h47l-105 -194h-147l-105 194h46z" />
    <glyph glyph-name="uni0312" unicode="&#x312;" horiz-adv-x="0" 
d="M-79 763q18 0 31 -14.5t13 -40.5q0 -31 -19 -48t-54 -17q-36 0 -57 22t-21 58q0 47 31 82t87 49v-29q-26 -8 -45 -24.5t-19 -32.5q0 -15 12 -15q6 0 18 5t23 5z" />
    <glyph glyph-name="uni0326" unicode="&#x326;" horiz-adv-x="0" 
d="M-156 -174q-18 0 -31.5 14.5t-13.5 40.5q0 31 19.5 48t54.5 17t56 -22t21 -58q0 -47 -31 -82t-87 -49v29q26 8 45 24.5t19 32.5q0 15 -12 15q-6 0 -17.5 -5t-22.5 -5z" />
    <glyph glyph-name="uni0327" unicode="&#x327;" horiz-adv-x="0" 
d="M-304 -69l75 97h56l-35 -63q132 -9 132 -100q0 -53 -46 -83.5t-108 -33t-126 5.5l6 29q155 -18 155 69q0 38 -30 58t-79 21z" />
    <glyph glyph-name="uni0328" unicode="&#x328;" horiz-adv-x="0" 
d="M-164 -10h31q-37 -45 -51.5 -71.5t-14.5 -57.5q0 -62 58 -62q30 0 87 23l6 -29q-67 -59 -147 -59q-50 0 -86.5 25.5t-36.5 76.5q0 32 19 58t42.5 39.5t52.5 30t40 26.5z" />
    <glyph glyph-name="Wgrave" unicode="&#x1e80;" horiz-adv-x="1126" 
d="M601 1057l77 -193h-46l-170 193h139zM1121 800v-29q-46 0 -69 -18t-37 -67l-200 -702h-98l-141 518l-151 -518h-97l-215 703q-15 49 -38 66.5t-69 17.5v29h376v-29q-46 0 -56 -20.5t5 -64.5l115 -411h4l98 331l-22 80q-13 49 -30.5 67t-46.5 18v29h368v-29
q-57 0 -71.5 -19.5t-3.5 -66.5l96 -410h5l112 411q15 44 0.5 64.5t-71.5 20.5v29h237z" />
    <glyph glyph-name="wgrave" unicode="&#x1e81;" horiz-adv-x="872" 
d="M438 816l77 -193h-46l-170 193h139zM865 538v-29q-31 0 -50.5 -18t-33.5 -66l-132 -433h-116l-89 322l-91 -322h-119l-144 434q-16 48 -35 65.5t-49 17.5v29h290v-29q-30 0 -31 -16.5t17 -66.5l71 -217h5l58 205l-3 10q-14 48 -29.5 66.5t-37.5 18.5v29h286v-29
q-35 0 -40 -17.5t8 -68.5l50 -214h5l69 216q18 50 12.5 67t-45.5 17v29h174z" />
    <glyph glyph-name="Wacute" unicode="&#x1e82;" horiz-adv-x="1126" 
d="M655 1057h139l-169 -193h-46zM1121 800v-29q-46 0 -69 -18t-37 -67l-200 -702h-98l-141 518l-151 -518h-97l-215 703q-15 49 -38 66.5t-69 17.5v29h376v-29q-46 0 -56 -20.5t5 -64.5l115 -411h4l98 331l-22 80q-13 49 -30.5 67t-46.5 18v29h368v-29q-57 0 -71.5 -19.5
t-3.5 -66.5l96 -410h5l112 411q15 44 0.5 64.5t-71.5 20.5v29h237z" />
    <glyph glyph-name="wacute" unicode="&#x1e83;" horiz-adv-x="872" 
d="M493 816h139l-169 -193h-46zM865 538v-29q-31 0 -50.5 -18t-33.5 -66l-132 -433h-116l-89 322l-91 -322h-119l-144 434q-16 48 -35 65.5t-49 17.5v29h290v-29q-30 0 -31 -16.5t17 -66.5l71 -217h5l58 205l-3 10q-14 48 -29.5 66.5t-37.5 18.5v29h286v-29q-35 0 -40 -17.5
t8 -68.5l50 -214h5l69 216q18 50 12.5 67t-45.5 17v29h174z" />
    <glyph glyph-name="Wdieresis" unicode="&#x1e84;" horiz-adv-x="1126" 
d="M514 850q-34 0 -59 24.5t-25 58.5q0 35 24.5 59.5t59.5 24.5t59 -24.5t24 -59.5q0 -34 -24.5 -58.5t-58.5 -24.5zM744 850q-34 0 -59 24.5t-25 58.5q0 35 24.5 59.5t59.5 24.5t59 -24.5t24 -59.5q0 -34 -24.5 -58.5t-58.5 -24.5zM1121 800v-29q-46 0 -69 -18t-37 -67
l-200 -702h-98l-141 518l-151 -518h-97l-215 703q-15 49 -38 66.5t-69 17.5v29h376v-29q-46 0 -56 -20.5t5 -64.5l115 -411h4l98 331l-22 80q-13 49 -30.5 67t-46.5 18v29h368v-29q-57 0 -71.5 -19.5t-3.5 -66.5l96 -410h5l112 411q15 44 0.5 64.5t-71.5 20.5v29h237z" />
    <glyph glyph-name="wdieresis" unicode="&#x1e85;" horiz-adv-x="872" 
d="M352 609q-34 0 -59 24.5t-25 58.5q0 35 24.5 59.5t59.5 24.5t59 -24.5t24 -59.5q0 -34 -24.5 -58.5t-58.5 -24.5zM582 609q-34 0 -59 24.5t-25 58.5q0 35 24.5 59.5t59.5 24.5t59 -24.5t24 -59.5q0 -34 -24.5 -58.5t-58.5 -24.5zM865 538v-29q-31 0 -50.5 -18t-33.5 -66
l-132 -433h-116l-89 322l-91 -322h-119l-144 434q-16 48 -35 65.5t-49 17.5v29h290v-29q-30 0 -31 -16.5t17 -66.5l71 -217h5l58 205l-3 10q-14 48 -29.5 66.5t-37.5 18.5v29h286v-29q-35 0 -40 -17.5t8 -68.5l50 -214h5l69 216q18 50 12.5 67t-45.5 17v29h174z" />
    <glyph glyph-name="Ygrave" unicode="&#x1ef2;" horiz-adv-x="760" 
d="M413 1055l77 -193h-46l-170 193h139zM494 358v-240q0 -48 24 -68.5t88 -20.5v-29h-438v29q64 0 87.5 20.5t23.5 68.5v234l-174 343q-23 44 -48.5 60t-64.5 16v29h422v-29q-75 0 -90 -18.5t9 -59.5l126 -263h3l127 263q23 41 12 59.5t-73 18.5v29h240v-29q-43 0 -69 -16.5
t-48 -61.5z" />
    <glyph glyph-name="ygrave" unicode="&#x1ef3;" horiz-adv-x="568" 
d="M269 814l77 -193h-46l-170 193h139zM126 -236q-42 0 -70 25t-28 66q0 40 23 62t58 22t69 -36q21 -24 44 -24q27 0 33 47q0 26 -38 140l-123 360q-16 48 -36 65.5t-52 17.5v29h320v-29q-45 0 -52 -17.5t10 -67.5l61 -209h7l66 210q18 50 12 67t-48 17v29h179v-29
q-31 0 -50.5 -17.5t-35.5 -65.5l-144 -436q-38 -116 -83 -169t-122 -57z" />
    <glyph glyph-name="endash" unicode="&#x2013;" horiz-adv-x="600" 
d="M600 211h-600v118h600v-118z" />
    <glyph glyph-name="emdash" unicode="&#x2014;" horiz-adv-x="1200" 
d="M1200 211h-1200v118h1200v-118z" />
    <glyph glyph-name="quoteleft" unicode="&#x2018;" horiz-adv-x="287" 
d="M171 653q36 0 55.5 -22.5t19.5 -56.5q0 -38 -26 -64.5t-73 -26.5q-45 0 -75.5 34t-30.5 87q0 66 45.5 114.5t131.5 68.5v-34q-55 -9 -89.5 -38t-34.5 -61q0 -24 16 -24q4 0 21 11.5t40 11.5z" />
    <glyph glyph-name="quoteright" unicode="&#x2019;" horiz-adv-x="287" 
d="M116 657q-35 0 -55 23t-20 56q0 38 26 64.5t73 26.5q45 0 75.5 -34t30.5 -87q0 -66 -45 -114.5t-132 -68.5v34q56 9 90 38t34 61q0 24 -15 24q-4 0 -21.5 -11.5t-40.5 -11.5z" />
    <glyph glyph-name="quotesinglbase" unicode="&#x201a;" horiz-adv-x="287" 
d="M116 -16q-35 0 -55 23t-20 56q0 39 26 65t73 26q45 0 75.5 -33.5t30.5 -87.5q0 -66 -45 -114.5t-132 -68.5v34q56 10 90 39t34 61q0 24 -15 24q-4 0 -21.5 -12t-40.5 -12z" />
    <glyph glyph-name="quotedblleft" unicode="&#x201c;" horiz-adv-x="541" 
d="M171 653q36 0 55.5 -22.5t19.5 -56.5q0 -38 -26 -64.5t-73 -26.5q-45 0 -75.5 34t-30.5 87q0 66 45.5 114.5t131.5 68.5v-34q-55 -9 -89.5 -38t-34.5 -61q0 -24 16 -24q4 0 21 11.5t40 11.5zM425 653q35 0 55 -23t20 -56q0 -38 -26 -64.5t-73 -26.5q-45 0 -75.5 34
t-30.5 87q0 66 45 114.5t132 68.5v-34q-56 -9 -90 -38t-34 -61q0 -24 15 -24q5 0 22 11.5t40 11.5z" />
    <glyph glyph-name="quotedblright" unicode="&#x201d;" horiz-adv-x="541" 
d="M116 657q-35 0 -55 23t-20 56q0 38 26 64.5t73 26.5q45 0 75.5 -34t30.5 -87q0 -66 -45 -114.5t-132 -68.5v34q56 9 90 38t34 61q0 24 -15 24q-4 0 -21.5 -11.5t-40.5 -11.5zM370 657q-36 0 -55.5 23t-19.5 56q0 38 26 64.5t73 26.5q45 0 75.5 -34t30.5 -87
q0 -66 -45 -114.5t-132 -68.5v34q56 9 90 38t34 61q0 24 -16 24q-4 0 -21 -11.5t-40 -11.5z" />
    <glyph glyph-name="quotedblbase" unicode="&#x201e;" horiz-adv-x="541" 
d="M116 -16q-35 0 -55 23t-20 56q0 39 26 65t73 26q45 0 75.5 -33.5t30.5 -87.5q0 -66 -45 -114.5t-132 -68.5v34q56 10 90 39t34 61q0 24 -15 24q-4 0 -21.5 -12t-40.5 -12zM370 -16q-36 0 -55.5 23t-19.5 56q0 39 26 65t73 26q45 0 75.5 -33.5t30.5 -87.5
q0 -66 -45 -114.5t-132 -68.5v34q56 10 90 39t34 61q0 24 -16 24q-4 0 -21 -12t-40 -12z" />
    <glyph glyph-name="dagger" unicode="&#x2020;" horiz-adv-x="567" 
d="M448 634q28 0 48.5 -22t20.5 -58t-20 -57t-49 -21q-25 0 -69.5 30.5t-81.5 33.5q1 -39 11.5 -67.5t21.5 -42.5t34 -37q-33 -54 -48.5 -120.5t-18.5 -203.5v-289h-27v289q-2 137 -17.5 203.5t-49.5 120.5q23 23 34.5 37t22.5 42.5t12 67.5q-37 -3 -82.5 -33.5t-70.5 -30.5
q-29 0 -49 21t-20 57t20.5 58t48.5 22q25 0 70.5 -32t82.5 -35q-3 43 -35 94t-32 89q0 36 23 57.5t56 21.5t56 -21.5t23 -57.5q0 -38 -31.5 -89t-34.5 -94q37 4 81.5 35.5t69.5 31.5z" />
    <glyph glyph-name="daggerdbl" unicode="&#x2021;" horiz-adv-x="567" 
d="M50 -13q0 36 20.5 57.5t48.5 21.5q25 0 70 -30.5t82 -34.5q-4 56 -16.5 84t-49.5 63q2 2 20 24.5t23.5 31t13 28.5t7.5 39q0 15 -3.5 28.5t-12 27.5t-14 22t-18 23.5t-16.5 20.5q37 35 49.5 63.5t16.5 83.5q-37 -3 -82 -33.5t-70 -30.5q-29 0 -49 21t-20 57t20.5 58
t48.5 22q25 0 69.5 -32t82.5 -35q-5 48 -35.5 97t-30.5 86q0 36 23 57.5t56 21.5t56 -21.5t23 -57.5q0 -37 -31.5 -88.5t-34.5 -94.5q38 4 82.5 35.5t68.5 31.5q28 0 48.5 -22t20.5 -58t-20 -57t-49 -21q-24 0 -68.5 30t-82.5 34q1 -39 11.5 -67.5t21.5 -42.5t33 -37
q-3 -3 -17 -20t-19 -24t-13.5 -21.5t-12 -28t-3.5 -28.5q0 -16 3.5 -30t12 -28t14 -22t18.5 -23t17 -20q-22 -22 -33 -36t-21.5 -43t-11.5 -68q37 4 82 34.5t69 30.5q28 0 48.5 -21.5t20.5 -57.5t-20.5 -57.5t-48.5 -21.5q-24 0 -68.5 31.5t-82.5 35.5q3 -44 34.5 -95.5
t31.5 -88.5q0 -36 -23 -57.5t-56 -21.5t-56 21.5t-23 57.5q0 37 30.5 87t35.5 97q-37 -4 -82 -35.5t-70 -31.5q-28 0 -48.5 21.5t-20.5 57.5z" />
    <glyph glyph-name="bullet" unicode="&#x2022;" horiz-adv-x="377" 
d="M193 219q-59 0 -101 42t-42 101q0 60 42 102t101 42q60 0 102 -42t42 -102q0 -59 -42 -101t-102 -42z" />
    <glyph glyph-name="ellipsis" unicode="&#x2026;" horiz-adv-x="811" 
d="M134 -16q-35 0 -59.5 24.5t-24.5 59.5t24.5 59.5t59.5 24.5q34 0 59 -25t25 -59q0 -35 -24.5 -59.5t-59.5 -24.5zM406 -16q-35 0 -59.5 24.5t-24.5 59.5t24.5 59.5t59.5 24.5q34 0 59 -25t25 -59q0 -35 -24.5 -59.5t-59.5 -24.5zM677 -16q-35 0 -59.5 24.5t-24.5 59.5
q0 34 24.5 59t59.5 25t59.5 -24.5t24.5 -59.5t-24.5 -59.5t-59.5 -24.5z" />
    <glyph glyph-name="perthousand" unicode="&#x2030;" horiz-adv-x="1217" 
d="M216 400q-67 0 -116.5 60.5t-49.5 148.5q0 89 49.5 150t116.5 61t116 -61t49 -150q0 -88 -49.5 -148.5t-115.5 -60.5zM137 0l497 800h58l-497 -800h-58zM216 429q28 0 37.5 46.5t9.5 133.5q0 88 -9.5 135t-37.5 47q-48 0 -48 -182q0 -180 48 -180zM619 -16
q-67 0 -116.5 61t-49.5 149q0 89 49.5 150t116.5 61t116.5 -61t49.5 -150q0 -88 -49.5 -149t-116.5 -61zM1002 -16q-67 0 -116.5 60.5t-49.5 149.5t49.5 150t116.5 61q66 0 115.5 -61t49.5 -150q0 -88 -49.5 -149t-115.5 -61zM619 13q28 0 37.5 47t9.5 134q0 88 -9.5 134.5
t-37.5 46.5t-37.5 -46.5t-9.5 -134.5q0 -87 9.5 -134t37.5 -47zM1002 13q47 0 47 181t-47 181q-28 0 -38 -46.5t-10 -134.5q0 -87 10 -134t38 -47z" />
    <glyph glyph-name="guilsinglleft" unicode="&#x2039;" horiz-adv-x="319" 
d="M278 534l-83 -241l83 -244h-29l-208 244l208 241h29z" />
    <glyph glyph-name="guilsinglright" unicode="&#x203a;" horiz-adv-x="319" 
d="M41 49l83 244l-83 241h29l208 -241l-208 -244h-29z" />
    <glyph glyph-name="fraction" unicode="&#x2044;" horiz-adv-x="455" 
d="M-50 0l497 800h58l-497 -800h-58z" />
    <glyph glyph-name="Euro" unicode="&#x20ac;" horiz-adv-x="763" 
d="M685 322h28q-10 -65 -21.5 -111.5t-33 -92t-51 -73t-75 -44.5t-105.5 -17q-146 0 -230 93t-92 255h-85l14 39h70q0 39 4 68h-88l14 39h79q25 156 113 249t221 93q130 0 232 -78v-186h-29q-18 208 -158 208q-141 0 -154 -286h242l-15 -39h-229v-39v-29h211l-14 -39h-196
q6 -134 41 -204t106 -70t125.5 67t75.5 197z" />
    <glyph glyph-name="trademark" unicode="&#x2122;" horiz-adv-x="1263" 
d="M204 744h-28q-47 0 -72 -25.5t-36 -89.5l-28 5l20 120l7 46h444l8 -46l19 -120l-28 -5q-10 64 -35.5 89.5t-72.5 25.5h-32q-20 0 -20 -19v-247q0 -48 17 -68.5t61 -20.5v-29h-283v29q45 0 62 20.5t17 68.5v247q0 19 -20 19zM785 800l93 -239h3l102 239h240v-29
q-45 0 -61.5 -20.5t-16.5 -68.5v-204q0 -48 16.5 -68.5t61.5 -20.5v-29h-283v29q45 0 61.5 20.5t16.5 68.5v254h-3l-166 -392h-19l-156 392h-3v-254q0 -48 17 -68.5t61 -20.5v-29h-210v29q44 0 61 20.5t17 68.5v204q0 48 -17 68.5t-61 20.5v29h246z" />
    <glyph glyph-name="oneeighth" unicode="&#x215b;" 
d="M266 804v-405q0 -32 10.5 -43t41.5 -11v-17h-241v17q34 0 45.5 11t11.5 43v286q0 36 -10 41.5t-53 -11.5l-8 17l192 84zM169 0l497 800h58l-497 -800h-58zM560 108q0 37 22.5 62.5t66.5 55.5q-40 35 -58.5 64.5t-18.5 66.5q0 58 47.5 94t117.5 36q65 0 106.5 -30
t41.5 -77q0 -34 -21.5 -59t-63.5 -53q34 -27 51.5 -43t33.5 -43.5t16 -56.5q0 -61 -51 -97.5t-126 -36.5q-69 0 -116.5 32t-47.5 85zM691 398q0 -21 13 -39t47 -48q33 39 33 80q0 27 -13 43t-34 16q-19 0 -32.5 -14.5t-13.5 -37.5zM661 104q0 -32 16 -53.5t48 -21.5
q25 0 39 14.5t14 37.5q0 25 -17 45t-66 61q-34 -37 -34 -83z" />
    <glyph glyph-name="threeeighths" unicode="&#x215c;" horiz-adv-x="1011" 
d="M77 384q0 18 12.5 29.5t31.5 11.5t28.5 -8.5t20.5 -27.5q18 -29 40 -29q24 0 41 22.5t17 73.5q0 56 -30 84.5t-77 28.5v18q104 17 104 91q0 29 -16 46.5t-50 17.5q-30 0 -50.5 -15.5t-27.5 -43.5h-18q8 60 47 96.5t105 36.5q57 0 95 -29t38 -81q0 -47 -37 -79t-93 -42v-2
q59 -1 102 -30.5t43 -86.5q0 -71 -57 -109t-141 -38q-53 0 -90.5 16.5t-37.5 48.5zM240 0l497 800h58l-497 -800h-58zM632 108q0 37 22.5 63t66.5 55q-40 35 -59 64.5t-19 66.5q0 58 47.5 94t118.5 36q65 0 106 -30t41 -77q0 -34 -21.5 -59t-63.5 -53q34 -27 52 -43
t34 -43.5t16 -56.5q0 -61 -51 -97.5t-127 -36.5q-68 0 -115.5 32t-47.5 85zM762 398q0 -20 13 -38.5t47 -48.5q34 38 34 80q0 27 -13 43t-34 16q-20 0 -33.5 -14.5t-13.5 -37.5zM732 104q0 -32 16 -53.5t48 -21.5q25 0 39.5 14t14.5 38q0 25 -17 45t-66 61q-35 -38 -35 -83z
" />
    <glyph glyph-name="fiveeighths" unicode="&#x215d;" horiz-adv-x="985" 
d="M195 319q-51 0 -87.5 16.5t-36.5 48.5q0 19 12 30.5t32 11.5q29 0 50 -36q18 -30 35 -30q26 0 41.5 30t15.5 84q0 114 -68 114q-38 0 -66 -39l-26 17l60 234h235l-23 -98h-181l-20 -84l2 -2q43 25 78 25q57 0 101 -36.5t44 -115.5q0 -86 -58.5 -128t-139.5 -42zM214 0
l497 800h58l-497 -800h-58zM606 108q0 37 22 63t66 55q-40 35 -58.5 64.5t-18.5 66.5q0 58 47.5 94t118.5 36q65 0 106 -30t41 -77q0 -34 -21.5 -59t-63.5 -53q34 -26 52 -43t33.5 -44t15.5 -56q0 -61 -51 -97.5t-126 -36.5q-69 0 -116 32t-47 85zM736 398q0 -21 13 -39
t47 -48q33 39 33 80q0 27 -13 43t-33 16t-33.5 -14.5t-13.5 -37.5zM706 104q0 -32 16 -53.5t48 -21.5q25 0 39.5 14.5t14.5 37.5q0 25 -17 45t-66 61q-35 -37 -35 -83z" />
    <glyph glyph-name="seveneighths" unicode="&#x215e;" horiz-adv-x="918" 
d="M428 800l-173 -481l-89 32l142 349v3h-141q-28 0 -44 -16t-24 -55l-17 4l15 73l20 91h311zM147 0l497 800h58l-497 -800h-58zM538 108q0 37 22.5 62.5t66.5 55.5q-40 35 -58.5 64.5t-18.5 66.5q0 58 47.5 94t117.5 36q65 0 106.5 -30t41.5 -77q0 -34 -21.5 -59t-63.5 -53
q34 -27 51.5 -43t33.5 -43.5t16 -56.5q0 -61 -51 -97.5t-126 -36.5q-69 0 -116.5 32t-47.5 85zM669 398q0 -21 13 -39t47 -48q33 39 33 80q0 27 -13 43t-34 16q-19 0 -32.5 -14.5t-13.5 -37.5zM639 104q0 -32 16 -53.5t48 -21.5q25 0 39 14.5t14 37.5q0 25 -17 45t-66 61
q-34 -37 -34 -83z" />
    <glyph glyph-name="arrowleft" unicode="&#x2190;" horiz-adv-x="919" 
d="M869 312v-84h-497q-52 0 -114.5 16t-98.5 16v-3q70 -25 119 -56t71.5 -55.5t52.5 -67.5l-92 -74q-52 101 -108 151t-152 88v55q97 38 152.5 87.5t107.5 150.5l92 -73q-30 -43 -52.5 -68t-71.5 -56t-119 -56v-3q36 0 98.5 16t114.5 16h497z" />
    <glyph glyph-name="arrowup" unicode="&#x2191;" horiz-adv-x="650" 
d="M367 404v-497h-84v497q0 52 16 115t16 99h-3q-25 -71 -56 -120t-55.5 -71t-67.5 -52l-74 91q101 52 151 108t88 152h55q38 -97 87.5 -152.5t150.5 -107.5l-73 -91q-43 29 -68 51.5t-56 71.5t-56 120h-3q0 -36 16 -99.5t16 -114.5z" />
    <glyph glyph-name="arrowright" unicode="&#x2192;" horiz-adv-x="919" 
d="M547 228h-497v84h497q52 0 114.5 -16t98.5 -16v3q-54 19 -93 39t-67.5 45.5t-44 44t-38.5 51.5l92 73q52 -101 107.5 -150.5t152.5 -87.5v-55q-96 -38 -152 -88t-108 -151l-92 74q31 43 52.5 67t70.5 56t120 56v3q-36 0 -98.5 -16t-114.5 -16z" />
    <glyph glyph-name="arrowdown" unicode="&#x2193;" horiz-adv-x="650" 
d="M283 658h84v-497q0 -51 -16 -114t-16 -100h3q35 102 75 150.5t105 92.5l73 -91q-101 -52 -150.5 -107.5t-87.5 -152.5h-55q-38 96 -88 152t-151 108l74 91q43 -30 67.5 -52t55.5 -71t56 -120h3q0 36 -16 99t-16 115v497z" />
    <glyph glyph-name="arrowboth" unicode="&#x2194;" horiz-adv-x="1299" 
d="M897 463l92 73q52 -101 107.5 -150.5t152.5 -87.5v-55q-96 -38 -152 -88t-108 -151l-92 74q31 43 52.5 67t70.5 56t120 56v3q-36 0 -98.5 -16t-114.5 -16h-555q-52 0 -114.5 16t-98.5 16v-3q70 -25 119 -56t71.5 -55.5t52.5 -67.5l-92 -74q-52 101 -108 151t-152 88v55
q97 38 152.5 87.5t107.5 150.5l92 -73q-30 -43 -52.5 -68t-71.5 -56t-119 -56v-3q36 0 98.5 16t114.5 16h555q52 0 114.5 -16t98.5 -16v3q-54 19 -93 39t-67.5 45.5t-44 44t-38.5 51.5z" />
    <glyph glyph-name="arrowupdn" unicode="&#x2195;" horiz-adv-x="633" 
d="M326 -227h3q25 70 56 119t56 71.5t68 52.5l74 -92q-102 -52 -151 -107.5t-88 -152.5h-55q-38 96 -88 152t-151 108l74 92q43 -30 67.5 -52.5t55.5 -71.5t56 -119h3q0 36 -16 98.5t-16 114.5v555q0 52 16 114.5t16 98.5h-3q-24 -71 -56 -120t-56 -70.5t-67 -52.5l-74 92
q101 52 151 108t88 152h55q39 -97 88 -152.5t151 -107.5l-74 -92q-33 23 -51.5 38.5t-44 44t-45.5 67.5t-39 93h-3q0 -36 16 -98.5t16 -114.5v-555q0 -52 -16 -114.5t-16 -98.5z" />
    <glyph glyph-name="uni2196" unicode="&#x2196;" horiz-adv-x="738" 
d="M675 28l-59 -60l-351 351q-37 37 -70 93t-58 81l-3 -2q33 -68 45.5 -124.5t10.5 -89.5t-11 -85l-116 13q34 117 29.5 187t-45.5 166l39 38q96 -41 166 -45t187 30l12 -116q-52 -9 -84.5 -11t-89.5 10t-124 45l-2 -2q25 -26 80.5 -58.5t92.5 -69.5z" />
    <glyph glyph-name="uni2197" unicode="&#x2197;" horiz-adv-x="738" 
d="M473 319l-351 -351l-59 60l351 351q37 37 92.5 69.5t80.5 58.5l-2 2q-67 -33 -124 -45t-89.5 -10t-84.5 11l12 116q117 -34 187 -30t166 45l39 -38q-41 -95 -45 -166t30 -187l-117 -13q-9 52 -11 85t10.5 89.5t45.5 124.5l-2 2q-26 -26 -59 -81.5t-70 -92.5z" />
    <glyph glyph-name="uni2198" unicode="&#x2198;" horiz-adv-x="738" 
d="M63 512l59 60l351 -351q37 -37 70 -92.5t59 -81.5l2 2q-33 68 -45.5 124.5t-10.5 89.5t11 85l117 -13q-34 -116 -30 -187t45 -166l-39 -38q-96 41 -166 45t-187 -30l-12 116q52 9 84.5 11t89.5 -10t124 -45l2 2q-25 26 -80.5 58.5t-92.5 69.5z" />
    <glyph glyph-name="uni2199" unicode="&#x2199;" horiz-adv-x="738" 
d="M265 221l351 351l59 -60l-351 -351q-37 -37 -92.5 -69.5t-80.5 -58.5l2 -2q67 33 124 45t89.5 10t84.5 -11l-12 -116q-117 34 -187 30t-166 -45l-39 38q41 96 45.5 166t-29.5 187l116 13q9 -52 11 -85t-10.5 -89.5t-45.5 -124.5l3 -2q25 25 58 81t70 93z" />
    <glyph glyph-name="partialdiff" unicode="&#x2202;" horiz-adv-x="637" 
d="M353 810q115 0 175.5 -95.5t58.5 -274.5q-2 -128 -31.5 -226.5t-95.5 -161t-163 -62.5q-107 0 -177 75.5t-70 193.5q0 117 72 194.5t196 77.5q136 0 216 -109q-5 69 -25 118.5t-51.5 75.5t-65 37t-71.5 11q-110 0 -178 -79h-26q16 42 28 69t33 59.5t43.5 51.5t56.5 32
t75 13zM325 52q85 0 146.5 97t63.5 222q-48 99 -123 99q-54 0 -96 -47.5t-61.5 -111t-19.5 -124.5q0 -135 90 -135z" />
    <glyph glyph-name="emptyset" unicode="&#x2205;" horiz-adv-x="697" 
d="M607 606l40 -39l-96 -95q58 -73 58 -164q0 -108 -76.5 -184.5t-184.5 -76.5q-92 0 -164 58l-95 -95l-39 39l95 95q-58 73 -58 164q0 108 76.5 184.5t184.5 76.5q92 0 164 -58zM143 308q0 -69 42 -124l287 287q-55 42 -124 42q-85 0 -145 -60t-60 -145zM553 308
q0 67 -42 124l-287 -287q57 -42 124 -42q85 0 145 60t60 145z" />
    <glyph glyph-name="product" unicode="&#x220f;" horiz-adv-x="978" 
d="M928 800v-29q-64 0 -87.5 -20.5t-23.5 -68.5v-744q0 -48 23.5 -68.5t87.5 -20.5v-29h-412v29q64 0 88 20.5t24 68.5v806h-277v-806q0 -48 23.5 -68.5t87.5 -20.5v-29h-412v29q64 0 88 20.5t24 68.5v744q0 48 -24 68.5t-88 20.5v29h878z" />
    <glyph glyph-name="summation" unicode="&#x2211;" horiz-adv-x="788" 
d="M50 800h651l4 -43l16 -163l-28 -3q-9 86 -33.5 119.5t-71.5 33.5h-304l222 -311l-295 -442h386q47 0 73 40.5t38 146.5l29 -4l-24 -199l-18 -155h-645v29l319 479v3l-319 440v29z" />
    <glyph glyph-name="minus" unicode="&#x2212;" horiz-adv-x="528" 
d="M478 241h-428v118h428v-118z" />
    <glyph glyph-name="radical" unicode="&#x221a;" horiz-adv-x="828" 
d="M721 930h57l-223 -1047h-55l-306 487l-118 -61l-26 50l269 139l229 -376h3z" />
    <glyph glyph-name="infinity" unicode="&#x221e;" horiz-adv-x="1128" 
d="M836 652q105 0 173.5 -60.5t68.5 -164.5q0 -103 -66 -168.5t-174 -65.5q-83 0 -147.5 38.5t-126.5 106.5q-157 -125 -294 -125q-102 0 -161 55.5t-59 147.5q0 97 61 156.5t155 59.5q77 0 138 -39.5t120 -106.5q105 92 170 129t142 37zM842 251q82 0 130.5 53t48.5 129
q0 68 -39.5 106t-101.5 38q-27 0 -49 -7t-45.5 -25t-40 -34t-49.5 -50t-56 -56l-26 -25q54 -60 108.5 -94.5t119.5 -34.5zM228 288q50 0 97 31.5t147 121.5l1 1q-61 68 -108 100.5t-101 32.5q-69 0 -113.5 -48t-44.5 -116q0 -58 34 -90.5t88 -32.5z" />
    <glyph glyph-name="integral" unicode="&#x222b;" horiz-adv-x="594" 
d="M428 33q0 -111 -51 -162t-153 -51q-81 0 -127.5 29t-46.5 81q0 62 60 62q54 0 61 -60q2 -16 3.5 -22t5.5 -16t12 -14t21 -4q61 0 61 113q0 96 -54 321t-54 315q0 215 209 215q78 0 123.5 -29.5t45.5 -81.5q0 -61 -60 -61q-31 0 -44 16t-17 44q-2 16 -3.5 22t-5.5 16
t-12 14t-21 4q-61 0 -61 -119q0 -101 54 -318.5t54 -313.5z" />
    <glyph glyph-name="approxequal" unicode="&#x2248;" horiz-adv-x="748" 
d="M669 549h29q-7 -103 -47.5 -164t-117.5 -61q-52 0 -107.5 26t-111.5 52.5t-108 26.5q-103 0 -127 -104h-29q7 103 47.5 164t116.5 61q42 0 86.5 -16.5t77.5 -36t77.5 -36t85.5 -16.5q104 0 128 104zM669 319h29q-7 -103 -47.5 -164t-117.5 -61q-52 0 -107.5 26
t-111.5 52.5t-108 26.5q-103 0 -127 -104h-29q7 103 47.5 164t116.5 61q42 0 86.5 -16.5t77.5 -36t77.5 -36t85.5 -16.5q104 0 128 104z" />
    <glyph glyph-name="notequal" unicode="&#x2260;" horiz-adv-x="528" 
d="M478 466v-119h-180l-36 -94h216v-119h-262l-57 -149h-43l57 149h-123v119h169l37 94h-206v119h251l69 178h42l-68 -178h134z" />
    <glyph glyph-name="lessequal" unicode="&#x2264;" horiz-adv-x="558" 
d="M508 643v-125l-361 -94v-3l361 -94v-244h-458v125h434l-434 124v180z" />
    <glyph glyph-name="greaterequal" unicode="&#x2265;" horiz-adv-x="558" 
d="M50 643l458 -131v-180l-434 -124h434v-125h-458v244l360 94v3l-360 94v125z" />
    <glyph glyph-name="uni2460" unicode="&#x2460;" 
d="M471 820q175 0 297 -122t122 -299q0 -173 -122.5 -296t-296.5 -123q-176 0 -298.5 122.5t-122.5 296.5q0 177 122 299t299 122zM471 790q-164 0 -277.5 -114t-113.5 -277t113 -276t278 -113q161 0 275 113.5t114 275.5t-114 276.5t-275 114.5zM545 637v-405q0 -32 10 -43
t42 -11v-17h-242v17q35 0 46 11t11 43v286q0 36 -9.5 41.5t-52.5 -11.5l-8 17l191 84z" />
    <glyph glyph-name="uni2461" unicode="&#x2461;" 
d="M471 820q175 0 297 -122t122 -299q0 -173 -122.5 -296t-296.5 -123q-176 0 -298.5 122.5t-122.5 296.5q0 177 122 299t299 122zM471 790q-164 0 -277.5 -114t-113.5 -277t113 -276t278 -113q161 0 275 113.5t114 275.5t-114 276.5t-275 114.5zM421 258h143q31 0 47 14.5
t30 51.5l16 -6l-25 -67l-33 -90h-296v17q116 117 160 174t44 111q0 88 -82 88q-79 0 -92 -91h-19q0 84 51.5 136.5t133.5 52.5q64 0 99.5 -29.5t35.5 -84.5q0 -32 -16 -65t-50.5 -70t-65 -64.5t-81.5 -70.5v-7z" />
    <glyph glyph-name="uni2462" unicode="&#x2462;" 
d="M471 820q175 0 297 -122t122 -299q0 -173 -122.5 -296t-296.5 -123q-176 0 -298.5 122.5t-122.5 296.5q0 177 122 299t299 122zM471 790q-164 0 -277.5 -114t-113.5 -277t113 -276t278 -113q161 0 275 113.5t114 275.5t-114 276.5t-275 114.5zM313 217q0 18 12.5 29
t31.5 11t28.5 -8.5t20.5 -26.5q18 -29 40 -29q24 0 41 22.5t17 73.5q0 56 -30 84.5t-77 28.5v17q104 19 104 91q0 29 -16.5 47t-49.5 18q-64 0 -78 -59h-19q9 60 47.5 96.5t104.5 36.5q57 0 95.5 -29t38.5 -81q0 -47 -37 -79t-93 -42v-2q59 -1 102 -30.5t43 -86.5
q0 -71 -57.5 -109t-141.5 -38q-53 0 -90 16.5t-37 48.5z" />
    <glyph glyph-name="uni2463" unicode="&#x2463;" 
d="M471 820q175 0 297 -122t122 -299q0 -173 -122.5 -296t-296.5 -123q-176 0 -298.5 122.5t-122.5 296.5q0 177 122 299t299 122zM471 790q-164 0 -277.5 -114t-113.5 -277t113 -276t278 -113q161 0 275 113.5t114 275.5t-114 276.5t-275 114.5zM446 278h-170v95l203 273
h83v-273h66v-95h-66v-47q0 -32 10 -43t41 -11v-17h-222v17q33 0 44 11t11 43v47zM318 375v-2h128v176z" />
    <glyph glyph-name="uni2464" unicode="&#x2464;" 
d="M471 820q175 0 297 -122t122 -299q0 -173 -122.5 -296t-296.5 -123q-176 0 -298.5 122.5t-122.5 296.5q0 177 122 299t299 122zM471 790q-164 0 -277.5 -114t-113.5 -277t113 -276t278 -113q161 0 275 113.5t114 275.5t-114 276.5t-275 114.5zM431 153q-51 0 -87.5 16.5
t-36.5 48.5q0 19 12 30.5t32 11.5q30 0 50 -37q18 -30 35 -30q26 0 41.5 30t15.5 85q0 114 -68 114q-38 0 -66 -40l-26 18l60 234h235l-23 -98h-181l-20 -84l2 -2q43 25 78 25q57 0 101 -37t44 -116q0 -85 -58.5 -127t-139.5 -42z" />
    <glyph glyph-name="uni2465" unicode="&#x2465;" 
d="M471 820q175 0 297 -122t122 -299q0 -173 -122.5 -296t-296.5 -123q-176 0 -298.5 122.5t-122.5 296.5q0 177 122 299t299 122zM471 790q-164 0 -277.5 -114t-113.5 -277t113 -276t278 -113q161 0 275 113.5t114 275.5t-114 276.5t-275 114.5zM270 363q0 118 84.5 190.5
t240.5 94.5v-17q-132 -30 -172 -161q38 26 83 26q62 0 98 -43t36 -112q0 -79 -47 -134.5t-131 -55.5q-91 0 -141.5 56t-50.5 156zM407 332q0 -146 54 -146q25 0 35 27.5t10 105.5q0 70 -10.5 106.5t-39.5 36.5q-20 0 -40 -18q-9 -43 -9 -112z" />
    <glyph glyph-name="uni2466" unicode="&#x2466;" 
d="M471 820q175 0 297 -122t122 -299q0 -173 -122.5 -296t-296.5 -123q-176 0 -298.5 122.5t-122.5 296.5q0 177 122 299t299 122zM471 790q-164 0 -277.5 -114t-113.5 -277t113 -276t278 -113q161 0 275 113.5t114 275.5t-114 276.5t-275 114.5zM651 631l-173 -481l-89 32
l142 349v3h-141q-28 0 -44 -16t-25 -55l-17 4l16 73l20 91h311z" />
    <glyph glyph-name="uni2467" unicode="&#x2467;" 
d="M471 820q175 0 297 -122t122 -299q0 -173 -122.5 -296t-296.5 -123q-176 0 -298.5 122.5t-122.5 296.5q0 177 122 299t299 122zM471 790q-164 0 -277.5 -114t-113.5 -277t113 -276t278 -113q161 0 275 113.5t114 275.5t-114 276.5t-275 114.5zM303 269q0 37 22.5 63
t66.5 55q-40 35 -59 64.5t-19 66.5q0 57 48 93.5t118 36.5q65 0 106 -30t41 -77q0 -34 -21 -59t-64 -53q34 -27 52 -43t34 -43.5t16 -56.5q0 -61 -51 -97.5t-127 -36.5q-68 0 -115.5 32t-47.5 85zM434 559q0 -21 12.5 -39t46.5 -49q34 40 34 81q0 27 -13 43t-34 16
q-20 0 -33 -14t-13 -38zM404 265q0 -32 16 -54t48 -22q24 0 38.5 14.5t14.5 38.5q0 25 -17 45t-66 61q-34 -39 -34 -83z" />
    <glyph glyph-name="uni2468" unicode="&#x2468;" 
d="M469 -20q-175 0 -297 122t-122 299q0 173 122.5 296t296.5 123q176 0 298.5 -122.5t122.5 -296.5q0 -177 -122 -299t-299 -122zM469 10q164 0 277.5 114t113.5 277t-113 276t-278 113q-161 0 -275 -113.5t-114 -275.5t114 -276.5t275 -114.5zM670 437
q0 -118 -84.5 -190.5t-240.5 -94.5v17q132 30 172 161q-37 -25 -83 -25q-62 0 -98 42.5t-36 111.5q0 79 47 134.5t131 55.5q91 0 141.5 -56t50.5 -156zM534 468q0 146 -55 146q-25 0 -34.5 -27t-9.5 -106q0 -71 10 -107t39 -36q20 0 40 18q10 48 10 112z" />
    <glyph glyph-name="uni2469" unicode="&#x2469;" 
d="M471 820q175 0 297 -122t122 -299q0 -173 -122.5 -296t-296.5 -123q-176 0 -298.5 122.5t-122.5 296.5q0 177 122 299t299 122zM471 790q-164 0 -277.5 -114t-113.5 -277t113 -276t278 -113q160 0 274.5 113.5t114.5 275.5t-114 276.5t-275 114.5zM607 154
q-89 0 -141.5 71.5t-52.5 176.5q0 106 52.5 177.5t141.5 71.5t142 -71.5t53 -177.5q0 -105 -53 -176.5t-142 -71.5zM374 637v-405q0 -32 10.5 -43t41.5 -11v-17h-241v17q35 0 46 11t11 43v286q0 36 -10 41.5t-53 -11.5l-7 17l191 84zM607 188q57 0 57 214q0 215 -57 215
q-31 0 -43.5 -54t-12.5 -161t12.5 -160.5t43.5 -53.5z" />
    <glyph glyph-name="uni246A" unicode="&#x246a;" 
d="M471 820q175 0 297 -122t122 -299q0 -173 -122.5 -296t-296.5 -123q-176 0 -298.5 122.5t-122.5 296.5q0 177 122 299t299 122zM471 790q-164 0 -277.5 -114t-113.5 -277t113 -276t278 -113q161 0 275 113.5t114 275.5t-114 276.5t-275 114.5zM420 637v-405
q0 -32 10.5 -43t41.5 -11v-17h-241v17q34 0 45.5 11t11.5 43v286q0 36 -10 41.5t-53 -11.5l-8 17l192 84zM675 637v-405q0 -32 10.5 -43t41.5 -11v-17h-241v17q34 0 45.5 11t11.5 43v286q0 36 -10 41.5t-53 -11.5l-8 17l192 84z" />
    <glyph glyph-name="uni246B" unicode="&#x246b;" 
d="M471 820q175 0 297 -122t122 -299q0 -173 -122.5 -296t-296.5 -123q-176 0 -298.5 122.5t-122.5 296.5q0 177 122 299t299 122zM471 790q-164 0 -277.5 -114t-113.5 -277t113 -276t278 -113q161 0 275 113.5t114 275.5t-114 276.5t-275 114.5zM380 637v-405q0 -32 10 -43
t42 -11v-17h-242v17q35 0 46 11t11 43v286q0 36 -9.5 41.5t-52.5 -11.5l-8 17l191 84zM571 258h143q31 0 47 14.5t30 51.5l16 -6l-25 -67l-33 -90h-295v17q115 117 159 174t44 111q0 88 -81 88q-80 0 -93 -91h-19q0 85 51.5 137t134.5 52q64 0 99 -29.5t35 -84.5
q0 -32 -16 -65t-50.5 -70t-65 -64.5t-81.5 -70.5v-7z" />
    <glyph glyph-name="uni246C" unicode="&#x246c;" 
d="M471 820q175 0 297 -122t122 -299q0 -173 -122.5 -296t-296.5 -123q-176 0 -298.5 122.5t-122.5 296.5q0 177 122 299t299 122zM471 790q-164 0 -277.5 -114t-113.5 -277t113 -276t278 -113q161 0 275 113.5t114 275.5t-114 276.5t-275 114.5zM433 215q0 18 12.5 29.5
t31.5 11.5t28.5 -8.5t20.5 -26.5q10 -17 18 -23.5t22 -6.5q24 0 41 22.5t17 74.5q0 56 -30 84.5t-77 28.5v17q104 17 104 91q0 29 -16.5 46.5t-49.5 17.5q-64 0 -78 -59h-19q9 60 47.5 96.5t104.5 36.5q57 0 95.5 -29t38.5 -81q0 -47 -37 -78.5t-93 -41.5v-2
q59 -2 102 -31.5t43 -86.5q0 -71 -57.5 -109t-141.5 -38q-53 0 -90 16.5t-37 48.5zM382 633v-405q0 -31 10 -42t42 -11v-17h-242v17q35 0 46.5 11t11.5 42v286q0 36 -10 41.5t-53 -11.5l-8 18l79 34l113 50z" />
    <glyph glyph-name="uni246D" unicode="&#x246d;" 
d="M471 820q175 0 297 -122t122 -299q0 -173 -122.5 -296t-296.5 -123q-176 0 -298.5 122.5t-122.5 296.5q0 177 122 299t299 122zM471 790q-164 0 -277.5 -114t-113.5 -277t113 -276t278 -113q161 0 275 113.5t114 275.5t-114 276.5t-275 114.5zM376 637v-405q0 -32 10 -43
t42 -11v-17h-242v17q35 0 46 11t11 43v286q0 36 -9.5 41.5t-52.5 -11.5l-8 17l191 84zM575 279h-170v95l203 273h83v-273h66v-95h-66v-47q0 -32 10 -43t41 -11v-17h-223v17q34 0 45 11t11 43v47zM446 376v-2h129v176z" />
    <glyph glyph-name="uni246E" unicode="&#x246e;" 
d="M471 820q175 0 297 -122t122 -299q0 -173 -122.5 -296t-296.5 -123q-176 0 -298.5 122.5t-122.5 296.5q0 177 122 299t299 122zM471 790q-164 0 -277.5 -114t-113.5 -277t113 -276t278 -113q161 0 275 113.5t114 275.5t-114 276.5t-275 114.5zM379 637v-405q0 -32 10 -43
t42 -11v-17h-242v17q35 0 46 11t11 43v286q0 36 -9.5 41.5t-52.5 -11.5l-8 17l191 84zM555 155q-51 0 -88 16.5t-37 48.5q0 19 12.5 30.5t31.5 11.5q31 0 51 -37q17 -29 35 -29q26 0 41.5 29.5t15.5 84.5q0 114 -69 114q-38 0 -65 -40l-26 18l59 234h236l-23 -98h-181
l-20 -84l2 -2q43 25 78 25q57 0 101 -36.5t44 -115.5q0 -86 -58.5 -128t-139.5 -42z" />
    <glyph glyph-name="uni246F" unicode="&#x246f;" 
d="M471 820q175 0 297 -122t122 -299q0 -173 -122.5 -296t-296.5 -123q-176 0 -298.5 122.5t-122.5 296.5q0 177 122 299t299 122zM471 790q-164 0 -277.5 -114t-113.5 -277t113 -276t278 -113q161 0 275 113.5t114 275.5t-114 276.5t-275 114.5zM376 637v-405
q0 -32 10.5 -43t41.5 -11v-17h-241v17q34 0 45.5 11t11.5 43v286q0 36 -10 41.5t-53 -11.5l-8 17l192 84zM414 363q0 118 84.5 190.5t240.5 94.5v-17q-132 -30 -172 -161q38 26 83 26q62 0 98 -43t36 -112q0 -79 -47 -134.5t-131 -55.5q-91 0 -141.5 56t-50.5 156zM551 332
q0 -146 54 -146q25 0 35 27.5t10 105.5q0 70 -10.5 106.5t-39.5 36.5q-20 0 -40 -18q-9 -43 -9 -112z" />
    <glyph glyph-name="uni2470" unicode="&#x2470;" 
d="M471 820q175 0 297 -122t122 -299q0 -173 -122.5 -296t-296.5 -123q-176 0 -298.5 122.5t-122.5 296.5q0 177 122 299t299 122zM471 790q-164 0 -277.5 -114t-113.5 -277t113 -276t278 -113q161 0 275 113.5t114 275.5t-114 276.5t-275 114.5zM383 637v-405q0 -32 10 -43
t42 -11v-17h-242v17q35 0 46 11t11 43v286q0 36 -9.5 41.5t-52.5 -11.5l-8 17l191 84zM760 637l-173 -481l-89 32l142 349v3h-141q-28 0 -44 -15.5t-25 -54.5l-16 3l15 73l20 91h311z" />
    <glyph glyph-name="uni2471" unicode="&#x2471;" 
d="M471 820q175 0 297 -122t122 -299q0 -173 -122.5 -296t-296.5 -123q-176 0 -298.5 122.5t-122.5 296.5q0 177 122 299t299 122zM471 790q-164 0 -277.5 -114t-113.5 -277t113 -276t278 -113q161 0 275 113.5t114 275.5t-114 276.5t-275 114.5zM380 637v-405
q0 -32 10.5 -43t41.5 -11v-17h-241v17q34 0 45.5 11t11.5 43v286q0 36 -10 41.5t-53 -11.5l-8 17l192 84zM428 269q0 38 22.5 64t65.5 54q-40 36 -58.5 65t-18.5 66q0 58 47.5 94t117.5 36q65 0 106.5 -29.5t41.5 -76.5q0 -34 -21.5 -59.5t-63.5 -53.5q34 -26 52 -43
t33.5 -44t15.5 -56q0 -61 -51 -97.5t-126 -36.5q-69 0 -116 32t-47 85zM558 559q0 -20 13 -39t47 -48q33 39 33 80q0 28 -13 44t-34 16q-19 0 -32.5 -15t-13.5 -38zM528 266q0 -33 16 -54.5t48 -21.5q24 0 38.5 14t14.5 38q0 25 -17.5 46t-64.5 60q-35 -37 -35 -82z" />
    <glyph glyph-name="uni2472" unicode="&#x2472;" 
d="M471 820q175 0 297 -122t122 -299q0 -173 -122.5 -296t-296.5 -123q-176 0 -298.5 122.5t-122.5 296.5q0 177 122 299t299 122zM471 790q-164 0 -277.5 -114t-113.5 -277t113 -276t278 -113q161 0 275 113.5t114 275.5t-114 276.5t-275 114.5zM781 451
q0 -118 -84.5 -190.5t-240.5 -94.5v17q132 30 172 161q-37 -25 -83 -25q-62 0 -98 42.5t-36 111.5q0 79 47 134.5t131 55.5q91 0 141.5 -56t50.5 -156zM379 637v-405q0 -32 10.5 -43t41.5 -11v-17h-241v17q34 0 45.5 11t11.5 43v286q0 36 -10 41.5t-53 -11.5l-8 17l192 84z
M645 482q0 146 -55 146q-25 0 -34.5 -27t-9.5 -106q0 -71 10 -107t39 -36q21 0 40 18q10 48 10 112z" />
    <glyph glyph-name="uni2473" unicode="&#x2473;" 
d="M471 820q175 0 297 -122t122 -299q0 -173 -122.5 -296t-296.5 -123q-176 0 -298.5 122.5t-122.5 296.5q0 177 122 299t299 122zM471 10q161 0 275 113.5t114 275.5t-114 276.5t-275 114.5q-164 0 -277.5 -114t-113.5 -277q0 -121 67 -221q104 114 143.5 169.5t39.5 108.5
q0 88 -76 88q-73 0 -86 -91h-18q0 84 48 136.5t124 52.5q59 0 92 -29.5t33 -84.5q0 -59 -50 -121t-147 -149v-7h127q31 0 47 13.5t27 48.5l17 -6l-22 -63l-31 -90h-250q54 -67 134 -105.5t172 -38.5zM649 648q81 0 129 -71.5t48 -177.5t-48 -177t-129 -71t-128 71.5
t-47 176.5q0 106 47 177.5t128 71.5zM649 185q52 0 52 214t-52 214q-50 0 -50 -214t50 -214z" />
    <glyph glyph-name="uni24EA" unicode="&#x24ea;" 
d="M471 820q175 0 297 -122t122 -299q0 -173 -122.5 -296t-296.5 -123q-176 0 -298.5 122.5t-122.5 296.5q0 177 122 299t299 122zM471 790q-164 0 -277.5 -114t-113.5 -277t113 -276t278 -113q161 0 275 113.5t114 275.5t-114 276.5t-275 114.5zM477 151q-89 0 -141 71.5
t-52 176.5q0 106 52 177.5t141 71.5q90 0 142.5 -71.5t52.5 -177.5t-53 -177t-142 -71zM477 185q57 0 57 214q0 106 -13 160t-44 54q-30 0 -42.5 -53.5t-12.5 -160.5q0 -214 55 -214z" />
    <glyph glyph-name="uni24EB" unicode="&#x24eb;" 
d="M471 820q-177 0 -299 -122t-122 -299q0 -174 122.5 -296.5t298.5 -122.5q174 0 296.5 123t122.5 296q0 177 -122 299t-297 122zM416 637v-405q0 -32 10.5 -43t41.5 -11v-17h-241v17q34 0 45.5 11t11.5 43v286q0 36 -10 41.5t-53 -11.5l-8 17l192 84zM679 637v-405
q0 -32 10.5 -43t41.5 -11v-17h-241v17q34 0 45.5 11t11.5 43v286q0 36 -10 41.5t-53 -11.5l-8 17l192 84z" />
    <glyph glyph-name="uni24EC" unicode="&#x24ec;" 
d="M471 820q-177 0 -299 -122t-122 -299q0 -174 122.5 -296.5t298.5 -122.5q174 0 296.5 123t122.5 296q0 177 -122 299t-297 122zM380 637v-405q0 -32 10 -43t42 -11v-17h-242v17q35 0 46 11t11 43v286q0 36 -9.5 41.5t-52.5 -11.5l-8 17l191 84zM572 258h143q31 0 47 14.5
t30 51.5l17 -6l-26 -67l-33 -90h-295v17q62 63 89.5 92t59.5 69t43.5 68t11.5 56q0 88 -82 88q-81 0 -92 -91h-20q0 84 52 136.5t134 52.5q64 0 99 -29.5t35 -84.5q0 -32 -16 -65t-50.5 -70t-65 -64.5t-81.5 -70.5v-7z" />
    <glyph glyph-name="uni24ED" unicode="&#x24ed;" 
d="M471 820q-177 0 -299 -122t-122 -299q0 -174 122.5 -296.5t298.5 -122.5q174 0 296.5 123t122.5 296q0 177 -122 299t-297 122zM376 637v-405q0 -32 10.5 -43t41.5 -11v-17h-241v17q34 0 45.5 11t11.5 43v286q0 36 -10 41.5t-53 -11.5l-8 17l192 84zM428 216
q0 18 12.5 29.5t31.5 11.5t28.5 -8.5t20.5 -27.5q18 -29 40 -29q24 0 40.5 22.5t16.5 73.5q0 56 -29.5 84.5t-76.5 28.5v18q104 17 104 91q0 29 -16.5 46.5t-50.5 17.5q-63 0 -77 -59h-19q9 60 47.5 96.5t104.5 36.5q57 0 95.5 -29t38.5 -81q0 -47 -37 -79t-93 -42v-2
q59 -1 102 -30.5t43 -86.5q0 -71 -57.5 -109t-141.5 -38q-53 0 -90 16.5t-37 48.5z" />
    <glyph glyph-name="uni24EE" unicode="&#x24ee;" 
d="M471 820q-177 0 -299 -122t-122 -299q0 -174 122.5 -296.5t298.5 -122.5q174 0 296.5 123t122.5 296q0 177 -122 299t-297 122zM381 637v-405q0 -32 10.5 -43t41.5 -11v-17h-241v17q34 0 45.5 11t11.5 43v286q0 36 -10 41.5t-53 -11.5l-8 17l192 84zM573 279h-170v95
l202 273h83v-273h67v-95h-67v-47q0 -32 10.5 -43t41.5 -11v-17h-223v17q34 0 45 11t11 43v47zM444 376v-2h129v176z" />
    <glyph glyph-name="uni24EF" unicode="&#x24ef;" 
d="M471 820q-177 0 -299 -122t-122 -299q0 -174 122.5 -296.5t298.5 -122.5q174 0 296.5 123t122.5 296q0 177 -122 299t-297 122zM383 637v-405q0 -32 10.5 -43t41.5 -11v-17h-241v17q34 0 45.5 11t11.5 43v286q0 36 -9.5 41.5t-53.5 -11.5l-7 17l191 84zM543 156
q-51 0 -88 16.5t-37 48.5q0 19 12.5 30.5t31.5 11.5q18 0 29 -9t22 -27q18 -30 35 -30q25 0 41 30t16 84q0 115 -69 115q-38 0 -65 -40l-27 17l60 234h235l-22 -98h-181l-20 -84l2 -2q44 26 77 26q57 0 101.5 -37t44.5 -116q0 -85 -59 -127.5t-139 -42.5z" />
    <glyph glyph-name="uni24F0" unicode="&#x24f0;" 
d="M471 820q-177 0 -299 -122t-122 -299q0 -174 122.5 -296.5t298.5 -122.5q174 0 296.5 123t122.5 296q0 177 -122 299t-297 122zM375 637v-405q0 -32 10 -43t42 -11v-17h-242v17q35 0 46 11t11 43v286q0 36 -10 41.5t-53 -11.5l-7 17l191 84zM405 363q0 118 84.5 191
t240.5 94v-17q-131 -29 -172 -160q37 25 83 25q62 0 98 -43t36 -111q0 -80 -47 -135.5t-131 -55.5q-91 0 -141.5 56t-50.5 156zM542 332q0 -146 54 -146q25 0 35 27.5t10 105.5q0 70 -10.5 106.5t-39.5 36.5q-20 0 -40 -17q-9 -43 -9 -113z" />
    <glyph glyph-name="uni24F1" unicode="&#x24f1;" 
d="M471 820q-177 0 -299 -122t-122 -299q0 -174 122.5 -296.5t298.5 -122.5q174 0 296.5 123t122.5 296q0 177 -122 299t-297 122zM376 636v-405q0 -32 10 -43t42 -11v-17h-242v17q35 0 46.5 11t11.5 43v286q0 36 -10 41.5t-53 -11.5l-8 17l192 84zM760 635l-173 -481
l-89 32l142 350v2h-141q-28 0 -44 -15.5t-24 -54.5l-17 3l16 73l19 91h311z" />
    <glyph glyph-name="uni24F2" unicode="&#x24f2;" 
d="M471 820q-177 0 -299 -122t-122 -299q0 -174 122.5 -296.5t298.5 -122.5q174 0 296.5 123t122.5 296q0 177 -122 299t-297 122zM379 637v-405q0 -32 10.5 -43t41.5 -11v-17h-241v17q34 0 45.5 11t11.5 43v286q0 36 -10 41.5t-53 -11.5l-8 17l192 84zM424 268q0 37 22 63
t66 55q-40 35 -58.5 64.5t-18.5 66.5q0 58 47.5 94t117.5 36q65 0 106.5 -30t41.5 -77q0 -34 -21.5 -59t-63.5 -53q34 -26 52 -43t33.5 -44t15.5 -56q0 -61 -51 -97.5t-126 -36.5q-69 0 -116 32t-47 85zM554 558q0 -21 13 -39t47 -48q33 39 33 80q0 27 -13 43t-34 16
q-19 0 -32.5 -14.5t-13.5 -37.5zM524 264q0 -32 16 -53.5t48 -21.5q24 0 38.5 14.5t14.5 37.5q0 25 -17 45t-65 61q-35 -37 -35 -83z" />
    <glyph glyph-name="uni24F3" unicode="&#x24f3;" 
d="M471 820q-177 0 -299 -122t-122 -299q0 -174 122.5 -296.5t298.5 -122.5q174 0 296.5 123t122.5 296q0 177 -122 299t-297 122zM789 440q0 -118 -84.5 -190.5t-240.5 -94.5v17q133 31 173 161q-38 -25 -83 -25q-63 0 -98.5 42.5t-35.5 111.5q0 79 46.5 134.5t130.5 55.5
q91 0 141.5 -55.5t50.5 -156.5zM380 637v-405q0 -32 10 -43t42 -11v-17h-242v17q35 0 46.5 11t11.5 43v286q0 36 -10 41.5t-53 -11.5l-8 17l192 84zM653 471q0 146 -54 146q-26 0 -35.5 -27t-9.5 -106q0 -70 10 -106.5t39 -36.5q21 0 40 18q10 43 10 112z" />
    <glyph glyph-name="uni24F4" unicode="&#x24f4;" 
d="M471 820q-177 0 -299 -122t-122 -299q0 -174 122.5 -296.5t298.5 -122.5q174 0 296.5 123t122.5 296q0 177 -122 299t-297 122zM261 258h127q31 0 46.5 13.5t27.5 48.5l16 -6l-21 -63l-31 -90h-273v17q74 82 106 119.5t57 83t25 82.5q0 88 -75 88q-73 0 -86 -91h-18
q0 84 48 136.5t124 52.5q59 0 91.5 -29.5t32.5 -84.5q0 -59 -50 -121t-147 -149v-7zM665 151q-82 0 -130 71.5t-48 176.5q0 106 48 177.5t130 71.5t130.5 -71.5t48.5 -177.5q0 -105 -48.5 -176.5t-130.5 -71.5zM665 185q52 0 52 214t-52 214q-51 0 -51 -214t51 -214z" />
    <glyph glyph-name="uni24FF" unicode="&#x24ff;" 
d="M471 820q-177 0 -299 -122t-122 -299q0 -174 122.5 -296.5t298.5 -122.5q174 0 296.5 123t122.5 296q0 177 -122 299t-297 122zM477 151q-89 0 -141 71.5t-52 176.5q0 106 52 177.5t141 71.5q90 0 142.5 -71.5t52.5 -177.5t-53 -177t-142 -71zM477 185q57 0 57 214
q0 106 -13 160t-44 54q-30 0 -42.5 -53.5t-12.5 -160.5q0 -214 55 -214z" />
    <glyph glyph-name="lozenge" unicode="&#x25ca;" horiz-adv-x="656" 
d="M256 800h141l209 -431l-209 -431h-141l-206 431zM325 52h3l146 317l-146 317h-3l-143 -317z" />
    <glyph glyph-name="uni2776" unicode="&#x2776;" 
d="M471 820q-177 0 -299 -122t-122 -299q0 -174 122.5 -296.5t298.5 -122.5q174 0 296.5 123t122.5 296q0 177 -122 299t-297 122zM532 637v-405q0 -32 10.5 -43t41.5 -11v-17h-241v17q34 0 45.5 11t11.5 43v286q0 36 -10 41.5t-53 -11.5l-8 17l192 84z" />
    <glyph glyph-name="uni2777" unicode="&#x2777;" 
d="M471 820q-177 0 -299 -122t-122 -299q0 -174 122.5 -296.5t298.5 -122.5q174 0 296.5 123t122.5 296q0 177 -122 299t-297 122zM412 258h143q31 0 47 14.5t30 51.5l16 -6l-25 -67l-33 -90h-296v17q116 117 160 174t44 111q0 88 -81 88q-80 0 -93 -91h-19q0 84 51.5 136.5
t133.5 52.5q64 0 99.5 -29.5t35.5 -84.5q0 -32 -16 -65t-50.5 -70t-65 -64.5t-81.5 -70.5v-7z" />
    <glyph glyph-name="uni2778" unicode="&#x2778;" 
d="M471 820q-177 0 -299 -122t-122 -299q0 -174 122.5 -296.5t298.5 -122.5q174 0 296.5 123t122.5 296q0 177 -122 299t-297 122zM312 216q0 18 12.5 29.5t31.5 11.5t28.5 -8.5t20.5 -27.5q18 -29 40 -29q24 0 40.5 22.5t16.5 73.5q0 56 -30 84.5t-76 28.5v18
q104 18 104 91q0 29 -16.5 46.5t-50.5 17.5q-63 0 -77 -59h-19q8 60 47 96.5t105 36.5q57 0 95.5 -29t38.5 -81q0 -47 -37 -79t-93 -42v-2q59 -1 101.5 -30.5t42.5 -86.5q0 -71 -57 -109t-141 -38q-53 0 -90 16.5t-37 48.5z" />
    <glyph glyph-name="uni2779" unicode="&#x2779;" 
d="M471 820q-177 0 -299 -122t-122 -299q0 -174 122.5 -296.5t298.5 -122.5q174 0 296.5 123t122.5 296q0 177 -122 299t-297 122zM442 279h-170v94l202 273h84v-273h66v-94h-66v-48q0 -32 10 -43t41 -11v-17h-223v17q34 0 45 11t11 43v48zM313 375v-2h129v176z" />
    <glyph glyph-name="uni277A" unicode="&#x277a;" 
d="M471 820q-177 0 -299 -122t-122 -299q0 -174 122.5 -296.5t298.5 -122.5q174 0 296.5 123t122.5 296q0 177 -122 299t-297 122zM426 151q-51 0 -87.5 16.5t-36.5 48.5q0 19 12 30.5t32 11.5q29 0 51 -37q17 -29 35 -29q26 0 41.5 29.5t15.5 84.5q0 114 -69 114
q-38 0 -66 -40l-26 18l60 234h235l-23 -98h-181l-20 -84l2 -2q43 25 78 25q57 0 101.5 -36.5t44.5 -115.5q0 -86 -59 -128t-140 -42z" />
    <glyph glyph-name="uni277B" unicode="&#x277b;" 
d="M471 820q-177 0 -299 -122t-122 -299q0 -174 122.5 -296.5t298.5 -122.5q174 0 296.5 123t122.5 296q0 177 -122 299t-297 122zM277 360q0 118 84.5 191t240.5 94v-17q-133 -29 -173 -160q38 25 83 25q63 0 99 -43t36 -111q0 -80 -47 -135.5t-131 -55.5
q-91 0 -141.5 55.5t-50.5 156.5zM413 329q0 -146 54 -146q26 0 35.5 27.5t9.5 105.5q0 71 -10 107t-39 36q-20 0 -40 -17q-10 -48 -10 -113z" />
    <glyph glyph-name="uni277C" unicode="&#x277c;" 
d="M471 820q-177 0 -299 -122t-122 -299q0 -174 122.5 -296.5t298.5 -122.5q174 0 296.5 123t122.5 296q0 177 -122 299t-297 122zM643 632l-173 -481l-89 32l142 349v3h-141q-28 0 -44 -16t-24 -55l-17 4l16 73l19 91h311z" />
    <glyph glyph-name="uni277D" unicode="&#x277d;" 
d="M471 820q-177 0 -299 -122t-122 -299q0 -174 122.5 -296.5t298.5 -122.5q174 0 296.5 123t122.5 296q0 177 -122 299t-297 122zM300 268q0 37 22.5 63t66.5 55q-40 34 -58.5 64t-18.5 67q0 58 47.5 94t117.5 36q65 0 106 -30t41 -77q0 -34 -21 -59t-63 -53
q34 -27 51.5 -43t33.5 -43.5t16 -56.5q0 -61 -51 -97.5t-127 -36.5q-68 0 -115.5 32t-47.5 85zM431 558q0 -21 13 -39t47 -49q33 40 33 81q0 27 -13 43t-34 16q-19 0 -32.5 -14.5t-13.5 -37.5zM401 264q0 -32 16 -54t48 -22q24 0 38.5 14.5t14.5 38.5q0 25 -17 45t-66 61
q-34 -39 -34 -83z" />
    <glyph glyph-name="uni277E" unicode="&#x277e;" 
d="M469 -20q177 0 299 122t122 299q0 174 -122.5 296.5t-298.5 122.5q-174 0 -296.5 -123t-122.5 -296q0 -177 122 -299t297 -122zM663 440q0 -118 -84.5 -191t-240.5 -94v17q132 31 173 160q-38 -25 -83 -25q-62 0 -98 43t-36 111q0 80 46.5 135.5t130.5 55.5
q91 0 141.5 -55.5t50.5 -156.5zM527 471q0 146 -54 146q-26 0 -35.5 -27t-9.5 -106q0 -70 10 -106.5t39 -36.5q20 0 40 17q10 44 10 113z" />
    <glyph glyph-name="uni277F" unicode="&#x277f;" 
d="M471 820q-177 0 -299 -122t-122 -299q0 -174 122.5 -296.5t298.5 -122.5q174 0 296.5 123t122.5 296q0 177 -122 299t-297 122zM365 637v-405q0 -32 10 -43t42 -11v-17h-242v17q35 0 46.5 11t11.5 43v286q0 36 -10 41.5t-53 -11.5l-8 17l192 84zM598 151q-89 0 -141 71.5
t-52 176.5q0 106 52 177.5t141 71.5t142 -71.5t53 -177.5q0 -105 -53 -176.5t-142 -71.5zM598 185q57 0 57 214q0 106 -13 160t-44 54q-56 0 -56 -214t56 -214z" />
    <glyph glyph-name="fi" unicode="&#xfb01;" horiz-adv-x="715" 
d="M627 539v-421q0 -52 16 -70.5t65 -18.5v-29h-693v29q49 0 65 18.5t16 70.5v364h-70v49l70 4v16q0 65 20 116t51 81t71 49.5t76.5 26.5t71.5 7q88 0 141.5 -33t53.5 -92q0 -35 -22 -56t-59 -21q-6 0 -12 1t-10.5 1.5t-9.5 4t-8 5t-8 6.5l-7.5 7.5t-8 10t-8 11t-9.5 13.5
t-10 14q-12 16 -18 23t-19 15t-28 8q-31 0 -49.5 -29.5t-18.5 -108.5v-73h136q110 0 197 20zM448 118v273q0 21 -1 32.5t-6.5 27.5t-19.5 23.5t-37 7.5h-108v-364q0 -52 18.5 -70t76.5 -19q47 1 62 19t15 70z" />
    <glyph glyph-name="fl" unicode="&#xfb02;" horiz-adv-x="735" 
d="M647 783v-665q0 -53 15.5 -71t64.5 -18v-29h-333v29q44 0 58.5 18t14.5 71v514q-4 -1 -14 -1q-29 0 -47 17t-37 55q-23 46 -46 46q-25 0 -36 -28t-11 -110v-73h93v-56h-93v-364q0 -53 17.5 -71t72.5 -18v-29h-351v29q49 0 65 18.5t16 70.5v364h-70v49l70 4v55
q0 52 17 93.5t42.5 66.5t58.5 42t62.5 23.5t57.5 6.5q68 0 121 -22.5t70 -62.5l100 64z" />
    <glyph glyph-name="i.loclTRK" horiz-adv-x="371" 
d="M181 607q-34 0 -59 24.5t-25 58.5q0 35 24.5 59.5t59.5 24.5t59.5 -24.5t24.5 -59.5q0 -34 -25 -58.5t-59 -24.5zM23 0v29q49 0 65 18.5t16 70.5l-1 255q0 33 -1 47t-7.5 24.5t-19 9t-35.5 -10.5l-12 29l229 92l26 -23v-423q0 -52 16 -70.5t64 -18.5v-29h-340z" />
    <glyph glyph-name="C_O" horiz-adv-x="1244" 
d="M973 340q-94 0 -154 66.5t-60 173.5t59.5 173.5t153.5 66.5t154 -66.5t60 -173.5t-59.5 -173.5t-153.5 -66.5zM28 385q0 189 104 310t265 121q106 0 182 -64q10 -9 17 -6t9 15l7 47h29l15 -294h-29q-22 114 -70 177t-117 63q-85 0 -133 -93t-48 -249q0 -155 48.5 -242.5
t137.5 -87.5q78 0 129 68t68 178h34q-28 -344 -301 -344q-164 0 -255.5 112.5t-91.5 288.5zM981 397q43 0 65.5 38.5t22.5 110.5q0 55 -9.5 101.5t-34 81t-61.5 34.5q-42 0 -65.5 -38t-23.5 -108q0 -88 26.5 -154t79.5 -66zM989 -16q-35 0 -59.5 24.5t-24.5 59.5
q0 34 24.5 59t59.5 25t59.5 -24.5t24.5 -59.5t-24.5 -59.5t-59.5 -24.5z" />
    <glyph glyph-name="L_L" horiz-adv-x="1126" 
d="M455 800v-29q-64 0 -88 -20.5t-24 -68.5v-538q0 -50 16 -64.5t66 -14.5h63q56 0 91.5 45t61.5 158l34 -8l-49 -212l-10 -48h-599v29q64 0 87.5 20.5t23.5 68.5v564q0 48 -23.5 68.5t-87.5 20.5v29h438zM931 800v-29q-53 0 -72.5 -20.5t-19.5 -68.5v-242q0 -35 9 -46
t38 -11h71q47 0 76.5 38.5t49.5 135.5l28 -6l-39 -183l-9 -42h-518v29q53 0 72.5 21t19.5 69v237q0 48 -19.5 68.5t-72.5 20.5v29h386z" />
    <glyph glyph-name="L_T_D" horiz-adv-x="1629" 
d="M455 800v-29q-64 0 -88 -20.5t-24 -68.5v-538q0 -50 16 -64.5t66 -14.5h63q56 0 91.5 45t61.5 158l34 -8l-49 -212l-10 -48h-599v29q64 0 87.5 20.5t23.5 68.5v564q0 48 -23.5 68.5t-87.5 20.5v29h438zM750 744h-32q-47 0 -72.5 -25.5t-35.5 -89.5l-28 5l19 120l8 46h448
l8 -46l19 -120l-28 -5q-10 64 -35.5 89.5t-72.5 25.5h-32q-20 0 -20 -19v-247q0 -48 17 -68.5t61 -20.5v-29h-283v29q45 0 62 20.5t17 68.5v247q0 19 -20 19zM1368 360h-256v29q45 0 61.5 20.5t16.5 68.5v204q0 48 -16.5 68.5t-61.5 20.5v29h256q117 0 177.5 -58.5
t60.5 -161.5t-60.5 -161.5t-177.5 -58.5zM1366 416q45 0 73.5 44t28.5 120q0 77 -28.5 120.5t-73.5 43.5q-22 0 -34 -4q-15 -5 -15 -22v-276q0 -16 12 -21q17 -5 37 -5zM1052 -16q-35 0 -59 24.5t-24 59.5t24.5 59.5t58.5 24.5q35 0 59.5 -24.5t24.5 -59.5t-24.5 -59.5
t-59.5 -24.5z" />
    <glyph glyph-name="O_O" horiz-adv-x="1202" 
d="M789 820q169 0 277 -121.5t108 -298.5t-107 -298.5t-278 -121.5q-102 0 -188 48q-85 -48 -187 -48q-170 0 -278 121.5t-108 298.5t107.5 298.5t278.5 121.5q101 0 187 -48q86 48 188 48zM793 29q90 8 139.5 107.5t35.5 274.5q-15 179 -79 273t-157 87q-46 -3 -85 -31
q72 -57 112 -146.5t40 -193.5q0 -98 -35.5 -183t-99.5 -143q57 -51 129 -45zM470 29q48 5 85 31q-72 58 -112 147t-40 193q0 98 35 182.5t99 142.5q-55 51 -127 46q-92 -6 -140.5 -107t-34.5 -274q14 -179 78 -274t157 -87zM616 135q51 104 38 276q-13 159 -69 252
q-49 -101 -36 -274q12 -158 67 -254z" />
    <glyph glyph-name="S_T" horiz-adv-x="1097" 
d="M289 -15q-102 0 -175 61q-10 9 -19.5 6.5t-12.5 -15.5l-10 -43h-31l4 318h34q6 -96 63 -183.5t141 -87.5q47 0 72 27.5t25 68.5q0 50 -32 92.5t-97 91.5q-104 78 -135 111q-66 70 -66 162q0 105 68 163.5t167 58.5q89 0 148 -51q14 -11 24 -8t14 20l6 29h29l11 -269h-32
q-5 82 -56 152.5t-124 70.5q-43 0 -66.5 -25t-23.5 -62q0 -41 29 -73t116 -96q100 -74 143 -133t43 -143q0 -114 -74.5 -178.5t-182.5 -64.5zM742 744h-28q-47 0 -72.5 -25.5t-35.5 -89.5l-28 5l19 120l8 46h444l8 -46l19 -120l-28 -5q-10 64 -35.5 89.5t-72.5 25.5h-32
q-20 0 -20 -19v-247q0 -48 17 -68.5t61 -20.5v-29h-283v29q45 0 62 20.5t17 68.5v247q0 19 -20 19zM825 -16q-35 0 -59.5 24.5t-24.5 59.5q0 34 24.5 59t59.5 25t59.5 -24.5t24.5 -59.5t-24.5 -59.5t-59.5 -24.5z" />
    <glyph glyph-name="s_t" horiz-adv-x="836" 
d="M788 246h38q0 -135 -39 -198.5t-130 -63.5q-76 0 -115 47.5t-39 157.5v293h-65v53q64 4 115 43.5t67 114.5q1 6 1 15q0 51 -33 79t-91 28q-70 0 -108 -44t-38 -122q0 -147 44 -253l-31 -20q-78 119 -140 119q-23 0 -37.5 -11.5t-14.5 -32.5q0 -22 18 -40t78 -59
q79 -56 112 -97t33 -104q0 -81 -53.5 -124t-129.5 -43q-39 0 -72 11.5t-53.5 22.5t-28.5 11q-10 0 -13 -6.5t-3 -26.5h-34v213h32q13 -71 52 -116.5t93 -45.5t54 49q0 31 -21 55t-85 65q-67 44 -96.5 84t-29.5 93q0 75 50.5 120t120.5 45q77 0 135 -68l3 1q-39 78 -39 168
q0 105 59.5 163t145.5 58q77 0 127.5 -46t50.5 -141v-155h117v-56h-113v-285q0 -112 49 -112q57 0 57 161z" />
    <glyph glyph-name="zero.dnom" horiz-adv-x="410" 
d="M204 -9q-89 0 -141 71.5t-52 176.5q0 106 52 177.5t141 71.5t142 -71.5t53 -177.5q0 -105 -53 -176.5t-142 -71.5zM204 25q57 0 57 214q0 106 -13 160t-44 54q-56 0 -56 -214t56 -214z" />
    <glyph glyph-name="one.dnom" horiz-adv-x="257" 
d="M196 476v-405q0 -32 10.5 -43t41.5 -11v-17h-241v17q34 0 45.5 11t11.5 43v286q0 36 -10 41.5t-53 -11.5l-8 17l192 84z" />
    <glyph glyph-name="two.dnom" horiz-adv-x="373" 
d="M126 97h143q31 0 47 14.5t30 51.5l16 -6l-25 -67l-33 -90h-296v17q116 117 160 174t44 111q0 88 -81 88q-80 0 -93 -91h-19q0 84 51.5 136.5t133.5 52.5q64 0 99.5 -29.5t35.5 -84.5q0 -32 -16 -65t-50.5 -70t-65 -64.5t-81.5 -70.5v-7z" />
    <glyph glyph-name="three.dnom" horiz-adv-x="349" 
d="M6 56q0 18 12.5 29.5t31.5 11.5t28.5 -8.5t20.5 -27.5q18 -29 40 -29q24 0 41 22.5t17 73.5q0 56 -30 84.5t-77 28.5v18q104 17 104 91q0 29 -16.5 46.5t-49.5 17.5q-64 0 -78 -59h-19q9 60 47.5 96.5t104.5 36.5q57 0 95.5 -29t38.5 -81q0 -47 -37 -79t-93 -42v-2
q59 -1 102 -30.5t43 -86.5q0 -71 -57.5 -109t-141.5 -38q-53 0 -90 16.5t-37 48.5z" />
    <glyph glyph-name="four.dnom" horiz-adv-x="371" 
d="M178 118h-170v95l203 273h83v-273h66v-95h-66v-47q0 -32 10 -43t41 -11v-17h-222v17q33 0 44 11t11 43v47zM50 215v-2h128v176z" />
    <glyph glyph-name="five.dnom" horiz-adv-x="346" 
d="M126 -9q-51 0 -87.5 16.5t-36.5 48.5q0 19 12 30.5t32 11.5q18 0 29 -9t22 -27q10 -17 17 -23.5t18 -6.5q25 0 41 30t16 84q0 114 -69 114q-38 0 -66 -39l-26 17l60 234h235l-23 -98h-181l-20 -84l2 -2q43 25 78 25q57 0 101.5 -36.5t44.5 -115.5q0 -86 -59 -128
t-140 -42z" />
    <glyph glyph-name="six.dnom" horiz-adv-x="390" 
d="M12 212q0 118 84.5 190.5t240.5 94.5v-17q-132 -30 -172 -161q38 26 83 26q62 0 98 -43t36 -112q0 -79 -47 -134.5t-131 -55.5q-91 0 -141.5 56t-50.5 156zM149 181q0 -146 54 -146q25 0 35 27.5t10 105.5q0 70 -10.5 106.5t-39.5 36.5q-20 0 -40 -18q-9 -43 -9 -112z
" />
    <glyph glyph-name="seven.dnom" horiz-adv-x="362" 
d="M361 474l-173 -481l-89 31l142 350v3h-141q-28 0 -44.5 -16t-24.5 -55l-17 4l16 73l20 91h311z" />
    <glyph glyph-name="eight.dnom" horiz-adv-x="352" 
d="M5 108q0 37 22.5 62.5t66.5 55.5q-40 35 -58.5 64.5t-18.5 66.5q0 58 47.5 94t117.5 36q65 0 106.5 -30t41.5 -77q0 -34 -21.5 -59t-63.5 -53q34 -27 51.5 -43t33.5 -43.5t16 -56.5q0 -61 -51 -97.5t-126 -36.5q-69 0 -116.5 32t-47.5 85zM136 398q0 -21 13 -39t47 -48
q33 39 33 80q0 27 -13 43t-34 16q-19 0 -32.5 -14.5t-13.5 -37.5zM106 104q0 -32 16 -53.5t48 -21.5q24 0 38.5 14.5t14.5 37.5q0 25 -17 45t-66 61q-34 -37 -34 -83z" />
    <glyph glyph-name="nine.dnom" horiz-adv-x="386" 
d="M378 276q0 -118 -84.5 -190.5t-240.5 -94.5v17q133 31 173 161q-40 -26 -83 -26q-62 0 -98 43t-36 112q0 79 46.5 134.5t130.5 55.5q91 0 141.5 -55.5t50.5 -156.5zM242 307q0 146 -54 146q-26 0 -35.5 -27t-9.5 -106q0 -70 10 -106.5t39 -36.5q21 0 40 18q10 43 10 112z
" />
    <glyph glyph-name="zero.numr" horiz-adv-x="410" 
d="M204 319q-89 0 -141 71.5t-52 176.5q0 106 52 177.5t141 71.5t142 -71.5t53 -177.5q0 -105 -53 -176.5t-142 -71.5zM204 353q57 0 57 214q0 106 -13 160t-44 54q-56 0 -56 -214t56 -214z" />
    <glyph glyph-name="one.numr" horiz-adv-x="257" 
d="M196 804v-405q0 -32 10.5 -43t41.5 -11v-17h-241v17q34 0 45.5 11t11.5 43v286q0 36 -10 41.5t-53 -11.5l-8 17l192 84z" />
    <glyph glyph-name="two.numr" horiz-adv-x="373" 
d="M126 425h143q31 0 47 14.5t30 51.5l16 -6l-25 -67l-33 -90h-296v17q116 117 160 174t44 111q0 88 -81 88q-80 0 -93 -91h-19q0 84 51.5 136.5t133.5 52.5q64 0 99.5 -29.5t35.5 -84.5q0 -32 -16 -65t-50.5 -70t-65 -64.5t-81.5 -70.5v-7z" />
    <glyph glyph-name="three.numr" horiz-adv-x="349" 
d="M6 384q0 18 12.5 29.5t31.5 11.5t28.5 -8.5t20.5 -27.5q18 -29 40 -29q24 0 41 22.5t17 73.5q0 56 -30 84.5t-77 28.5v18q104 17 104 91q0 29 -16.5 46.5t-49.5 17.5q-64 0 -78 -59h-19q9 60 47.5 96.5t104.5 36.5q57 0 95.5 -29t38.5 -81q0 -47 -37 -79t-93 -42v-2
q59 -1 102 -30.5t43 -86.5q0 -71 -57.5 -109t-141.5 -38q-53 0 -90 16.5t-37 48.5z" />
    <glyph glyph-name="four.numr" horiz-adv-x="371" 
d="M178 446h-170v95l203 273h83v-273h66v-95h-66v-47q0 -32 10 -43t41 -11v-17h-222v17q33 0 44 11t11 43v47zM50 543v-2h128v176z" />
    <glyph glyph-name="five.numr" horiz-adv-x="346" 
d="M126 319q-51 0 -87.5 16.5t-36.5 48.5q0 19 12 30.5t32 11.5q18 0 29 -9t22 -27q10 -17 17 -23.5t18 -6.5q25 0 41 30t16 84q0 114 -69 114q-38 0 -66 -39l-26 17l60 234h235l-23 -98h-181l-20 -84l2 -2q43 25 78 25q57 0 101.5 -36.5t44.5 -115.5q0 -86 -59 -128
t-140 -42z" />
    <glyph glyph-name="six.numr" horiz-adv-x="390" 
d="M12 531q0 118 84.5 190.5t240.5 94.5v-17q-132 -30 -172 -161q38 26 83 26q62 0 98 -43t36 -112q0 -79 -47 -134.5t-131 -55.5q-91 0 -141.5 56t-50.5 156zM149 500q0 -146 54 -146q25 0 35 27.5t10 105.5q0 70 -10.5 106.5t-39.5 36.5q-20 0 -40 -18q-9 -43 -9 -112z
" />
    <glyph glyph-name="seven.numr" horiz-adv-x="361" 
d="M361 800l-173 -481l-89 32l142 349v3h-141q-28 0 -44.5 -16t-24.5 -55l-17 4l16 73l20 91h311z" />
    <glyph glyph-name="eight.numr" horiz-adv-x="352" 
d="M5 436q0 37 22.5 62.5t66.5 55.5q-40 35 -58.5 64.5t-18.5 66.5q0 58 47.5 94t117.5 36q65 0 106.5 -30t41.5 -77q0 -34 -21.5 -59t-63.5 -53q34 -27 51.5 -43t33.5 -43.5t16 -56.5q0 -61 -51 -97.5t-126 -36.5q-69 0 -116.5 32t-47.5 85zM136 726q0 -21 13 -39t47 -48
q33 39 33 80q0 27 -13 43t-34 16q-19 0 -32.5 -14.5t-13.5 -37.5zM106 432q0 -32 16 -53.5t48 -21.5q24 0 38.5 14.5t14.5 37.5q0 25 -17 45t-66 61q-34 -37 -34 -83z" />
    <glyph glyph-name="nine.numr" horiz-adv-x="390" 
d="M378 604q0 -118 -84.5 -190.5t-240.5 -94.5v17q133 31 173 161q-38 -25 -83 -25q-63 0 -98.5 42.5t-35.5 111.5q0 79 46.5 134.5t130.5 55.5q91 0 141.5 -55.5t50.5 -156.5zM242 635q0 146 -54 146q-26 0 -35.5 -27t-9.5 -106q0 -70 10 -106.5t39 -36.5q21 0 40 18
q10 43 10 112z" />
    <glyph glyph-name="colon.case" horiz-adv-x="268" 
d="M134 594q-35 0 -59.5 24.5t-24.5 59.5t24.5 59.5t59.5 24.5q34 0 59 -25t25 -59q0 -35 -24.5 -59.5t-59.5 -24.5zM134 124q-35 0 -59.5 24.5t-24.5 59.5t24.5 59.5t59.5 24.5q34 0 59 -25t25 -59q0 -35 -24.5 -59.5t-59.5 -24.5z" />
    <glyph glyph-name="periodcentered.case" horiz-adv-x="268" 
d="M134 349q-35 0 -59.5 24.5t-24.5 59.5t24.5 59.5t59.5 24.5q34 0 59 -24.5t25 -59.5t-24.5 -59.5t-59.5 -24.5z" />
    <glyph glyph-name="bullet.case" horiz-adv-x="377" 
d="M193 259q-59 0 -101 41.5t-42 101.5t42 101.5t101 41.5q60 0 102 -41.5t42 -101.5t-42 -101.5t-102 -41.5z" />
    <glyph glyph-name="parenleft.case" horiz-adv-x="471" 
d="M441 -141v-29q-75 34 -139 80t-123.5 113.5t-94 162t-34.5 204.5q0 112 33 208.5t89 164t119 113.5t133 74v-29q-159 -135 -159 -531q0 -163 43 -307.5t133 -223.5z" />
    <glyph glyph-name="parenright.case" horiz-adv-x="471" 
d="M30 -170v29q90 79 133 223.5t43 307.5q0 396 -159 531v29q70 -28 133 -74t119 -113.5t89 -164t33 -208.5q0 -110 -34.5 -204.5t-94 -162t-123.5 -113.5t-139 -80z" />
    <glyph glyph-name="braceleft.case" horiz-adv-x="476" 
d="M435 950v-29q-40 -5 -66.5 -14.5t-38 -23.5t-15.5 -26t-4 -28q0 -36 34 -98t34 -118q0 -63 -33 -109.5t-75.5 -68t-92.5 -31.5v-2q37 -7 69.5 -22t63.5 -39t49.5 -62.5t18.5 -86.5q0 -56 -34 -130.5t-34 -110.5q0 -35 24.5 -59t99.5 -33v-29q-155 20 -216.5 64t-61.5 129
q0 51 16.5 133.5t16.5 118.5q0 57 -33.5 85t-123.5 28v29q157 0 157 118q0 29 -16.5 100t-16.5 123q0 84 62 128.5t216 63.5z" />
    <glyph glyph-name="braceright.case" horiz-adv-x="476" 
d="M444 417v-29q-90 0 -123.5 -27.5t-33.5 -85.5q0 -36 16.5 -118.5t16.5 -133.5q0 -85 -62 -129t-217 -64v29q75 9 100 33t25 59q0 36 -34 110.5t-34 130.5q0 48 18.5 86.5t49.5 62.5t63.5 39t69.5 22v2q-50 10 -92.5 31.5t-75.5 68t-33 109.5q0 56 34 118t34 98
q0 34 -24.5 58.5t-100.5 33.5v29q154 -19 216.5 -63.5t62.5 -128.5q0 -52 -16.5 -123t-16.5 -100q0 -59 37 -88.5t120 -29.5z" />
    <glyph glyph-name="bracketleft.case" horiz-adv-x="389" 
d="M359 950v-56h-94v-1008h94v-56h-309v1120h309z" />
    <glyph glyph-name="bracketright.case" horiz-adv-x="389" 
d="M30 950h309v-1120h-309v56h94v1008h-94v56z" />
    <glyph glyph-name="hyphen.case" horiz-adv-x="400" 
d="M455 341h-405v118h405v-118z" />
    <glyph glyph-name="endash.case" horiz-adv-x="600" 
d="M600 341h-600v118h600v-118z" />
    <glyph glyph-name="emdash.case" horiz-adv-x="1200" 
d="M1200 341h-1200v118h1200v-118z" />
    <glyph glyph-name="guillemotleft.case" horiz-adv-x="537" 
d="M278 643l-83 -241l83 -244h-29l-208 244l208 241h29zM496 643l-83 -241l83 -244h-29l-207 244l207 241h29z" />
    <glyph glyph-name="guillemotright.case" horiz-adv-x="537" 
d="M41 158l83 244l-83 241h29l208 -241l-208 -244h-29zM260 158l82 244l-82 241h28l208 -241l-208 -244h-28z" />
    <glyph glyph-name="guilsinglleft.case" horiz-adv-x="319" 
d="M278 643l-83 -241l83 -244h-29l-208 244l208 241h29z" />
    <glyph glyph-name="guilsinglright.case" horiz-adv-x="319" 
d="M41 158l83 244l-83 241h29l208 -241l-208 -244h-29z" />
    <glyph glyph-name="at.case" horiz-adv-x="1117" 
d="M1048 198h39q-68 -155 -209 -252.5t-336 -97.5q-224 0 -358 127.5t-134 340.5q0 158 73 288.5t201 205.5t284 75q100 0 181.5 -32.5t132 -88t77.5 -125.5t27 -148q0 -157 -96.5 -279t-230.5 -122q-127 0 -127 113q0 43 21 114l4 12h-10q-88 -234 -204 -234
q-53 0 -85 44.5t-32 120.5q0 88 42.5 179t112 150.5t139.5 59.5q53 0 79.5 -34.5t25.5 -83.5h1l25 73q88 0 136 54l24 -15l-125 -369q-17 -53 -17 -77q0 -49 50 -49q51 0 103.5 49t87 130t34.5 164q0 67 -23.5 129t-68 113t-119 82t-167.5 31q-146 0 -262 -73.5t-177.5 -195
t-61.5 -266.5q0 -198 119.5 -311t322.5 -113q180 0 308 86.5t193 224.5zM453 214q35 0 86.5 69.5t74.5 147.5q14 46 14 76q0 32 -11.5 49.5t-31.5 17.5q-33 0 -72 -51.5t-64.5 -123t-25.5 -127.5q0 -58 30 -58z" />
    <glyph glyph-name="uni030C.alt" horiz-adv-x="0" 
d="M-94 614h-46v206h129z" />
    <glyph glyph-name="caron.alt" horiz-adv-x="206" 
d="M85 624h-46v206h129z" />
    </font>
</defs>
</svg>
